<ttFont>
        <CharString name=".notdef">
          412 -36 20 3 12 hstemhm
          577 8 hintmask 10100000
          569 230 rmoveto
          -78 -88 -5 -1 -28 22 -1 6 rlinecurve
          72 93 -91 72 6 16 13 15 7 8 rlinecurve
          19 -13 38 -28 40 -32 74 93 rcurveline
          13 -6 16 -13 8 -7 -13 -19 -28 -35 -32 -43 39 -35 35 -28 16 -15 1 -5 -23 -28 -5 -1 rrcurveto
          283 379 rmoveto
          2 1 -1 1 -2 hhcurveto
          -70 -3 25 69 rlineto
          1 vlineto
          2 -2 0 -1 vhcurveto
          -74 -26 rlineto
          -1 vlineto
          4 -13 -16 3 -18 hhcurveto
          -57 -39 -27 -71 -40 hvcurveto
          -29 -43 -80 -6 -228 -46 -256 22 rcurveline
          -13 -2 -14 -8 9 hvcurveto
          43 -35 72 -22 71 -24 37 -61 60 -103 117 -64 -1 -8 -1 -15 9 -9 rrcurveto
          -8 -7 -5 0 -7 vvcurveto
          -11 41 -18 34 -28 vhcurveto
          -21 -1 -20 0 -16 -11 rrcurveto
          -3 1 -2 2 -3 vhcurveto
          25 6 24 2 21 -3 rrcurveto
          hintmask 01100000
          24 -5 16 -21 13 -21 5 -1 2 2 1 3 -5 18 -9 13 -13 8 27 -4 6 -4 16 -15 rrcurveto
          3 3 2 -1 5 vvcurveto
          -23 31 -27 -3 -22 5 -28 23 -29 17 -27 17 3 3 5 3 7 4 16 -3 8 18 3 8 rrcurveto
          -3 19 17 -1 19 hhcurveto
          27 hlineto
          -4 1 7 -15 11 hhcurveto
          -7 -6 -4 -5 -4 vvcurveto
          -8 44 -6 43 -24 vhcurveto
          -20 -7 -10 1 -13 -15 1 -7 2 4 3 -3 rrcurveto
          10 23 6 4 22 hhcurveto
          25 1 20 -14 19 -19 5 1 3 2 1 3 -11 16 -13 7 -13 7 25 3 14 -7 19 -9 rrcurveto
          3 3 1 -1 5 vvcurveto
          23 -31 -31 -5 -21 hhcurveto
          -31 15 -33 12 -31 11 12 12 rcurveline
          15 3 17 7 hvcurveto
          210 143 30 157 1 99 1 -1 rcurveline
          endchar
        </CharString>
        <CharString name="A">
          305 -24 23 -20 21 20 18 198 21 38 21 444 -20 hstemhm
          8 20 295 21 17 19 61 21 358 21 hintmask 0101111101100000
          401 295 rmoveto
          23 22 0 1 26 hvcurveto
          -93 240 rlineto
          -2 hlineto
          -93 -239 rlineto
          -2 46 36 0 35 hhcurveto
          -23 190 rmoveto
          65 -170 -44 -1 -41 0 -45 2 rlinecurve
          hintmask 0111111101100000
          507 -296 rmoveto
          hintmask 1001111101100000
          3 -6 0 -12 -3 -6 -117 4 -116 1 -125 -5 rrcurveto
          hintmask 0111111101100000
          -3 6 0 12 3 6 36 5 73 2 -12 47 -71 182 rcurveline
          1 -32 -28 0 -27 hhcurveto
          -40 -40 -1 -1 -54 hvcurveto
          -71 -179 -18 -46 94 -5 51 -5 rlinecurve
          hintmask 1001111101100000
          3 -6 0 -12 -3 -6 rrcurveto
          hintmask 0101111101100000
          2 -68 -49 2 -42 hhcurveto
          -34 -47 -2 -2 -55 hvcurveto
          hintmask 0111111111100000
          -3 6 0 12 3 6 51 6 52 12 17 43 206 518 rcurveline
          -11 29 24 26 10 27 3 44 rlinecurve
          4 3 6 3 6 1 270 -667 rcurveline
          hintmask 0111111101100000
          15 -37 83 -4 56 -4 rrcurveto
          15 18 rmoveto
          -61 5 -25 4 -13 33 rrcurveto
          hintmask 0111111111100000
          -274 680 -37 -2 -33 -7 -31 -15 rlinecurve
          -3 -44 -12 -28 -27 -28 2 -7 8 -18 4 -11 -206 -518 rcurveline
          -11 -28 -52 -10 -51 -6 rrcurveto
          hintmask 1001111101100000
          -8 -19 1 -23 8 -20 112 4 101 0 110 -4 rrcurveto
          hintmask 0111111101100000
          8 20 1 23 -8 19 -75 3 -55 10 9 22 63 162 rcurveline
          65 3 63 1 65 -2 64 -162 rcurveline
          10 -25 -34 -8 -66 -4 rrcurveto
          hintmask 1001111101100000
          -8 -19 1 -23 7 -20 rrcurveto
          387 hlineto
          hintmask 0111111101100000
          8 20 1 23 -8 19 rrcurveto
          endchar
        </CharString>
        <CharString name="AE">
          621 0 39 172 39 85 39 287 39 hstem
          578 86 187 33 99 34 vstem
          505 323 rmoveto
          -1 -86 -2 -84 -3 -85 -1 -19 -67 -6 -40 -4 -8 -27 2 -13 7 -22 rrcurveto
          2 63 158 1 66 hhcurveto
          405 hlineto
          10 77 21 50 45 75 -9 19 -21 11 -22 8 rrcurveto
          -83 -45 -94 -87 -181 hhcurveto
          -101 hlineto
          -3 116 -1 67 80 vvcurveto
          88 hlineto
          60 -3 27 -46 30 -51 5 -10 15 -26 6 -10 20 7 20 11 10 20 rrcurveto
          -29 49 -23 55 49 vvcurveto
          36 23 67 29 50 vhcurveto
          -9 19 -21 11 -22 8 -21 -41 rcurveline
          -62 -31 -27 -52 -61 hhcurveto
          -29 -29 0 1 -31 hvcurveto
          83 2 81 3 105 vhcurveto
          80 hlineto
          181 94 -87 -83 45 hvcurveto
          22 8 21 11 9 19 -45 75 -21 50 -10 77 rrcurveto
          -472 hlineto
          -63 -76 3 2 -60 hvcurveto
          -9 -24 1 -16 6 -23 19 -2 26 -2 22 -4 -347 -588 rcurveline
          -14 -24 -46 -11 -52 -6 -9 -19 0 -24 10 -20 100 4 90 0 98 -4 7 21 0 23 -7 20 -58 3 -42 4 16 27 145 249 rcurveline
          169 329 rmoveto
          -162 -279 rlineto
          169 hlineto
          92 -1 95 -4 92 vhcurveto
          -182 -309 rmoveto
          -159 -272 -28 -48 92 1 30 -4 rlinecurve
          1 -4 1 -5 -4 vvcurveto
          -3 -1 -4 -1 -4 vhcurveto
          -90 6 -84 -1 -85 -5 rrcurveto
          -1 3 -1 6 3 vvcurveto
          4 1 5 1 3 vhcurveto
          51 6 45 14 18 30 360 610 rcurveline
          -24 9 -33 4 -24 2 rrcurveto
          23 vlineto
          -2 55 58 -2 58 hhcurveto
          246 hlineto
          167 61 -57 -125 62 hvcurveto
          -3 -6 -6 -4 -8 -3 rrcurveto
          82 -44 -85 83 -199 hhcurveto
          -155 hlineto
          -4 -127 -2 -89 -92 vvcurveto
          -2 54 53 0 52 hhcurveto
          87 25 68 82 43 hvcurveto
          8 -3 8 -4 3 -6 rrcurveto
          -27 -47 -22 -66 -40 vvcurveto
          -54 22 -53 27 -46 vhcurveto
          -3 -6 -8 -4 -8 -3 rrcurveto
          76 -42 -26 75 -87 hhcurveto
          -159 -1 rlineto
          -94 2 -90 3 -128 vhcurveto
          176 hlineto
          199 85 83 82 44 hvcurveto
          8 -3 6 -4 3 -6 rrcurveto
          -125 -62 -61 -57 -167 hhcurveto
          -211 hlineto
          -66 -98 -1 -2 -63 hvcurveto
          -3 8 2 7 1 8 42 4 70 7 1 36 rrcurveto
          4 92 2 91 93 vvcurveto
          -20 52 rmoveto
          -115 -1 114 194 rlineto
          endchar
        </CharString>
        <CharString name="Aacute">
          305 854 188 hstem
          190 205 vstem
          401 295 rmoveto
          23 22 0 1 26 hvcurveto
          -93 240 rlineto
          -2 hlineto
          -93 -239 rlineto
          -2 46 36 0 35 hhcurveto
          -23 190 rmoveto
          65 -170 -44 -1 -41 0 -45 2 rlinecurve
          507 -296 rmoveto
          -56 4 -83 4 -15 37 -270 667 rcurveline
          -6 -1 -6 -3 -4 -3 -3 -44 -10 -27 -24 -26 11 -29 rcurveline
          -206 -518 -17 -43 -52 -12 -51 -6 rlinecurve
          -3 -6 0 -12 3 -6 rrcurveto
          2 55 47 2 34 hhcurveto
          42 49 -2 -2 68 hvcurveto
          3 6 0 12 -3 6 -51 5 -94 5 18 46 71 179 rcurveline
          1 54 40 1 40 hhcurveto
          27 28 0 -1 32 hvcurveto
          71 -182 12 -47 -73 -2 -36 -5 rlinecurve
          -3 -6 0 -12 3 -6 125 5 116 -1 117 -4 3 6 0 12 -3 6 rrcurveto
          15 18 rmoveto
          8 -19 -1 -23 -8 -20 rrcurveto
          -387 hlineto
          -7 20 -1 23 8 19 66 4 34 8 -10 25 -64 162 rcurveline
          -65 2 -63 -1 -65 -3 -63 -162 rcurveline
          -9 -22 55 -10 75 -3 8 -19 -1 -23 -8 -20 -110 4 -101 0 -112 -4 -8 20 -1 23 8 19 51 6 52 10 11 28 206 518 rcurveline
          -4 11 -8 18 -2 7 27 28 12 28 3 44 31 15 33 7 37 2 274 -680 rcurveline
          13 -33 25 -4 61 -5 rrcurveto
          -367 942 rmoveto
          15 12 16 8 17 hhcurveto
          25 17 -17 -25 -17 -7 -12 -11 -7 hvcurveto
          -173 -110 -14 18 rlineto
          -25 1 rmoveto
          33 -46 rlineto
          35 hlineto
          192 122 rlineto
          16 10 9 17 24 vvcurveto
          37 -25 25 -37 vhcurveto
          -35 hlineto
          -23 -21 -10 -21 -17 hvcurveto
          endchar
        </CharString>
        <CharString name="Acircumflex">
          305 854 172 hstem
          380 305 vstem
          401 295 rmoveto
          23 22 0 1 26 hvcurveto
          -93 240 rlineto
          -2 hlineto
          -93 -239 rlineto
          -2 46 36 0 35 hhcurveto
          -23 190 rmoveto
          65 -170 -44 -1 -41 0 -45 2 rlinecurve
          507 -296 rmoveto
          -56 4 -83 4 -15 37 -270 667 rcurveline
          -6 -1 -6 -3 -4 -3 -3 -44 -10 -27 -24 -26 11 -29 rcurveline
          -206 -518 -17 -43 -52 -12 -51 -6 rlinecurve
          -3 -6 0 -12 3 -6 rrcurveto
          2 55 47 2 34 hhcurveto
          42 49 -2 -2 68 hvcurveto
          3 6 0 12 -3 6 -51 5 -94 5 18 46 71 179 rcurveline
          1 54 40 1 40 hhcurveto
          27 28 0 -1 32 hvcurveto
          71 -182 12 -47 -73 -2 -36 -5 rlinecurve
          -3 -6 0 -12 3 -6 125 5 116 -1 117 -4 3 6 0 12 -3 6 rrcurveto
          15 18 rmoveto
          8 -19 -1 -23 -8 -20 rrcurveto
          -387 hlineto
          -7 20 -1 23 8 19 66 4 34 8 -10 25 -64 162 rcurveline
          -65 2 -63 -1 -65 -3 -63 -162 rcurveline
          -9 -22 55 -10 75 -3 8 -19 -1 -23 -8 -20 -110 4 -101 0 -112 -4 -8 20 -1 23 8 19 51 6 52 10 11 28 206 518 rcurveline
          -4 11 -8 18 -2 7 27 28 12 28 3 44 31 15 33 7 37 2 274 -680 rcurveline
          13 -33 25 -4 61 -5 rrcurveto
          -530 769 rmoveto
          -36 hlineto
          125 162 rlineto
          58 hlineto
          125 -162 rlineto
          -36 hlineto
          -118 87 rlineto
          111 -107 rmoveto
          118 hlineto
          -155 202 rlineto
          -113 hlineto
          -155 -202 rlineto
          118 hlineto
          93 69 rlineto
          endchar
        </CharString>
        <CharString name="Adieresis">
          305 854 109 hstem
          364 108 67 109 vstem
          401 295 rmoveto
          23 22 0 1 26 hvcurveto
          -93 240 rlineto
          -2 hlineto
          -93 -239 rlineto
          -2 46 36 0 35 hhcurveto
          -23 190 rmoveto
          65 -170 -44 -1 -41 0 -45 2 rlinecurve
          507 -296 rmoveto
          -56 4 -83 4 -15 37 -270 667 rcurveline
          -6 -1 -6 -3 -4 -3 -3 -44 -10 -27 -24 -26 11 -29 rcurveline
          -206 -518 -17 -43 -52 -12 -51 -6 rlinecurve
          -3 -6 0 -12 3 -6 rrcurveto
          2 55 47 2 34 hhcurveto
          42 49 -2 -2 68 hvcurveto
          3 6 0 12 -3 6 -51 5 -94 5 18 46 71 179 rcurveline
          1 54 40 1 40 hhcurveto
          27 28 0 -1 32 hvcurveto
          71 -182 12 -47 -73 -2 -36 -5 rlinecurve
          -3 -6 0 -12 3 -6 125 5 116 -1 117 -4 3 6 0 12 -3 6 rrcurveto
          15 18 rmoveto
          8 -19 -1 -23 -8 -20 rrcurveto
          -387 hlineto
          -7 20 -1 23 8 19 66 4 34 8 -10 25 -64 162 rcurveline
          -65 2 -63 -1 -65 -3 -63 -162 rcurveline
          -9 -22 55 -10 75 -3 8 -19 -1 -23 -8 -20 -110 4 -101 0 -112 -4 -8 20 -1 23 8 19 51 6 52 10 11 28 206 518 rcurveline
          -4 11 -8 18 -2 7 27 28 12 28 3 44 31 15 33 7 37 2 274 -680 rcurveline
          13 -33 25 -4 61 -5 rrcurveto
          -572 854 rmoveto
          33 24 27 29 29 24 -27 -33 -33 -24 -27 -29 -29 -24 27 33 vhcurveto
          182 hmoveto
          33 24 27 29 29 24 -27 -33 -33 -24 -27 -29 -29 -24 27 33 vhcurveto
          60 80 rmoveto
          -35 -30 -23 -31 -11 hvcurveto
          32 -9 -30 22 -67 hhcurveto
          -44 -36 -36 -44 -44 36 -36 44 67 30 21 32 9 hvcurveto
          -31 11 30 -22 35 hhcurveto
          84 26 34 46 46 -26 34 -84 hvcurveto
          endchar
        </CharString>
        <CharString name="Agrave">
          305 854 188 hstem
          205 205 vstem
          401 295 rmoveto
          23 22 0 1 26 hvcurveto
          -93 240 rlineto
          -2 hlineto
          -93 -239 rlineto
          -2 46 36 0 35 hhcurveto
          -23 190 rmoveto
          65 -170 -44 -1 -41 0 -45 2 rlinecurve
          507 -296 rmoveto
          -56 4 -83 4 -15 37 -270 667 rcurveline
          -6 -1 -6 -3 -4 -3 -3 -44 -10 -27 -24 -26 11 -29 rcurveline
          -206 -518 -17 -43 -52 -12 -51 -6 rlinecurve
          -3 -6 0 -12 3 -6 rrcurveto
          2 55 47 2 34 hhcurveto
          42 49 -2 -2 68 hvcurveto
          3 6 0 12 -3 6 -51 5 -94 5 18 46 71 179 rcurveline
          1 54 40 1 40 hhcurveto
          27 28 0 -1 32 hvcurveto
          71 -182 12 -47 -73 -2 -36 -5 rlinecurve
          -3 -6 0 -12 3 -6 125 5 116 -1 117 -4 3 6 0 12 -3 6 rrcurveto
          15 18 rmoveto
          8 -19 -1 -23 -8 -20 rrcurveto
          -387 hlineto
          -7 20 -1 23 8 19 66 4 34 8 -10 25 -64 162 rcurveline
          -65 2 -63 -1 -65 -3 -63 -162 rcurveline
          -9 -22 55 -10 75 -3 8 -19 -1 -23 -8 -20 -110 4 -101 0 -112 -4 -8 20 -1 23 8 19 51 6 52 10 11 28 206 518 rcurveline
          -4 11 -8 18 -2 7 27 28 12 28 3 44 31 15 33 7 37 2 274 -680 rcurveline
          13 -33 25 -4 61 -5 rrcurveto
          -360 795 rmoveto
          -14 -18 -173 110 rlineto
          -11 7 -7 12 17 vvcurveto
          25 17 17 25 17 16 -8 -15 12 vhcurveto
          50 13 rmoveto
          20 -16 -21 10 -58 hhcurveto
          -37 -25 -25 -37 -25 9 -16 16 -10 hvcurveto
          192 -122 rlineto
          35 hlineto
          33 46 rlineto
          endchar
        </CharString>
        <CharString name="Aring">
          305 854 35 129 35 hstem
          359 35 129 35 vstem
          401 295 rmoveto
          23 22 0 1 26 hvcurveto
          -93 240 rlineto
          -2 hlineto
          -93 -239 rlineto
          -2 46 36 0 35 hhcurveto
          -23 190 rmoveto
          65 -170 -44 -1 -41 0 -45 2 rlinecurve
          507 -296 rmoveto
          -56 4 -83 4 -15 37 -270 667 rcurveline
          -6 -1 -6 -3 -4 -3 -3 -44 -10 -27 -24 -26 11 -29 rcurveline
          -206 -518 -17 -43 -52 -12 -51 -6 rlinecurve
          -3 -6 0 -12 3 -6 rrcurveto
          2 55 47 2 34 hhcurveto
          42 49 -2 -2 68 hvcurveto
          3 6 0 12 -3 6 -51 5 -94 5 18 46 71 179 rcurveline
          1 54 40 1 40 hhcurveto
          27 28 0 -1 32 hvcurveto
          71 -182 12 -47 -73 -2 -36 -5 rlinecurve
          -3 -6 0 -12 3 -6 125 5 116 -1 117 -4 3 6 0 12 -3 6 rrcurveto
          15 18 rmoveto
          8 -19 -1 -23 -8 -20 rrcurveto
          -387 hlineto
          -7 20 -1 23 8 19 66 4 34 8 -10 25 -64 162 rcurveline
          -65 2 -63 -1 -65 -3 -63 -162 rcurveline
          -9 -22 55 -10 75 -3 8 -19 -1 -23 -8 -20 -110 4 -101 0 -112 -4 -8 20 -1 23 8 19 51 6 52 10 11 28 206 518 rcurveline
          -4 11 -8 18 -2 7 27 28 12 28 3 44 31 15 33 7 37 2 274 -680 rcurveline
          13 -33 25 -4 61 -5 rrcurveto
          -482 863 rmoveto
          -33 31 -26 28 32 28 28 31 29 -25 31 -35 -32 -27 -27 -33 vhcurveto
          -40 1 rmoveto
          65 54 34 45 46 54 -34 -65 -58 -42 -42 -58 -57 -42 42 58 vhcurveto
          -20 hmoveto
          -70 50 -50 69 vhcurveto
          35 hlineto
          70 50 50 70 78 -65 41 -55 hvcurveto
          -35 hlineto
          -54 -65 -41 -78 hvcurveto
          115 -1 rmoveto
          15 9 14 12 6 vhcurveto
          14 -7 9 -15 -13 vvcurveto
          -14 -9 -14 -13 -7 vhcurveto
          -13 7 -9 12 16 vvcurveto
          endchar
        </CharString>
        <CharString name="Atilde">
          305 854 68 -38 69 hstem
          371 354 vstem
          401 295 rmoveto
          23 22 0 1 26 hvcurveto
          -93 240 rlineto
          -2 hlineto
          -93 -239 rlineto
          -2 46 36 0 35 hhcurveto
          -23 190 rmoveto
          65 -170 -44 -1 -41 0 -45 2 rlinecurve
          507 -296 rmoveto
          -56 4 -83 4 -15 37 -270 667 rcurveline
          -6 -1 -6 -3 -4 -3 -3 -44 -10 -27 -24 -26 11 -29 rcurveline
          -206 -518 -17 -43 -52 -12 -51 -6 rlinecurve
          -3 -6 0 -12 3 -6 rrcurveto
          2 55 47 2 34 hhcurveto
          42 49 -2 -2 68 hvcurveto
          3 6 0 12 -3 6 -51 5 -94 5 18 46 71 179 rcurveline
          1 54 40 1 40 hhcurveto
          27 28 0 -1 32 hvcurveto
          71 -182 12 -47 -73 -2 -36 -5 rlinecurve
          -3 -6 0 -12 3 -6 125 5 116 -1 117 -4 3 6 0 12 -3 6 rrcurveto
          15 18 rmoveto
          8 -19 -1 -23 -8 -20 rrcurveto
          -387 hlineto
          -7 20 -1 23 8 19 66 4 34 8 -10 25 -64 162 rcurveline
          -65 2 -63 -1 -65 -3 -63 -162 rcurveline
          -9 -22 55 -10 75 -3 8 -19 -1 -23 -8 -20 -110 4 -101 0 -112 -4 -8 20 -1 23 8 19 51 6 52 10 11 28 206 518 rcurveline
          -4 11 -8 18 -2 7 27 28 12 28 3 44 31 15 33 7 37 2 274 -680 rcurveline
          13 -33 25 -4 61 -5 rrcurveto
          -249 903 rmoveto
          -50 -15 -31 -54 -63 -48 -42 30 -45 hhcurveto
          -20 -17 -7 -23 -18 hvcurveto
          -27 hlineto
          77 31 41 21 33 44 64 -30 33 hhcurveto
          19 23 10 26 8 hvcurveto
          -15 20 rmoveto
          -6 -18 -8 -10 -9 -5 rrcurveto
          19 -75 -34 8 -44 hhcurveto
          -40 -51 -29 -109 -44 hvcurveto
          102 hlineto
          11 14 9 8 9 4 rrcurveto
          -14 55 44 -12 52 hhcurveto
          75 40 75 69 21 hvcurveto
          endchar
        </CharString>
        <CharString name="B">
          222 -6 21 -15 -20 hstemhm
          165 135 184 146 hintmask 10110000
          251 405 rmoveto
          155 64 57 95 94 -66 35 -85 -10 -25 -1 -2 -27 hvcurveto
          -1 -650 rmoveto
          144 156 16 169 116 -98 44 -131 -26 -24 -1 -2 -26 hvcurveto
          -36 vlineto
          75 hmoveto
          18 vlineto
          92 9 118 -42 -106 vvcurveto
          -130 -99 -28 -106 -6 vhcurveto
          611 vmoveto
          70 -4 49 -31 -73 vvcurveto
          -69 -37 -47 -86 -13 vhcurveto
          -278 -431 rmoveto
          -2 8 -1 8 3 7 42 4 70 7 1 36 rrcurveto
          4 102 2 103 103 vvcurveto
          90 -1 91 -4 92 vhcurveto
          -1 36 -70 7 -42 4 -2 7 -1 9 3 7 rrcurveto
          -8 161 61 8 68 hhcurveto
          99 145 -15 -146 -77 -58 -45 -69 -22 hvcurveto
          -4 vlineto
          109 -17 99 -64 -108 vvcurveto
          hintmask 01110000
          -207 -248 -13 -141 -66 -98 -1 -2 -63 vhcurveto
          -13 742 rmoveto
          -8 -26 0 -14 6 -23 40 -4 68 -6 1 -19 rrcurveto
          4 -92 1 -90 -90 vvcurveto
          -103 -2 -102 -4 -102 vhcurveto
          -1 -19 -66 -6 -40 -4 -10 -25 2 -15 8 -23 rrcurveto
          2 80 72 2 124 hhcurveto
          155 274 14 226 102 -78 66 -99 29 hvcurveto
          51 28 45 44 68 vvcurveto
          164 -169 17 -115 -82 -97 -5 6 -160 vhcurveto
          endchar
        </CharString>
        <CharString name="C">
          257 5 54 681 22 hstem
          70 151 vstem
          75 356 rmoveto
          290 226 88 144 135 108 -45 -208 52 vhcurveto
          -2 -6 -9 -4 -7 -1 rrcurveto
          102 -46 -63 127 -168 hhcurveto
          -198 -63 -193 -150 -166 91 -150 212 89 76 28 61 50 hvcurveto
          10 8 -7 -8 hvcurveto
          -94 -64 -123 -40 -88 hhcurveto
          -144 -226 86 290 hvcurveto
          635 92 rmoveto
          20 3 22 11 10 21 -30 88 -8 59 23 80 rrcurveto
          15 -117 -38 29 -127 hhcurveto
          -167 -243 -82 -316 -305 238 -91 152 93 132 44 103 70 hvcurveto
          22 -21 20 -26 vhcurveto
          -46 -56 -66 -29 -75 -4 rrcurveto
          -173 8 -74 137 151 vvcurveto
          136 49 175 156 11 vhcurveto
          141 -10 61 -122 44 -98 rrcurveto
          endchar
        </CharString>
        <CharString name="Ccedilla">
          257 5 54 681 22 hstem
          70 151 vstem
          453 -155 rmoveto
          -10 -6 -9 -11 -4 vhcurveto
          -13 3 -15 8 -17 18 21 6 16 4 12 2 rrcurveto
          8 -3 5 -6 -9 vvcurveto
          -32 70 rmoveto
          2 11 19 0 15 hhcurveto
          41 27 -24 -46 -44 -33 -42 -64 -39 -35 15 31 -20 hvcurveto
          13 15 rlineto
          -20 19 26 -3 19 hhcurveto
          33 20 20 26 27 -18 13 -29 -16 -13 -2 -5 -18 hvcurveto
          32 103 rlineto
          -143 12 -193 94 269 vvcurveto
          290 226 88 144 135 108 -45 -208 52 vhcurveto
          -2 -6 -9 -4 -7 -1 rrcurveto
          102 -46 -63 127 -168 hhcurveto
          -198 -63 -193 -150 -166 91 -150 212 89 76 28 61 50 hvcurveto
          10 8 -7 -8 hvcurveto
          -94 -64 -123 -40 -88 hhcurveto
          -3 hlineto
          -124 -172 rmoveto
          -45 29 41 -22 84 hhcurveto
          86 45 52 54 59 -41 31 -65 hvcurveto
          9 29 83 15 95 45 56 81 rlinecurve
          22 -21 20 -26 vhcurveto
          -46 -56 -66 -29 -75 -4 rrcurveto
          -173 8 -74 137 151 vvcurveto
          136 49 175 156 11 vhcurveto
          141 -10 61 -122 44 -98 20 3 22 11 10 21 -30 88 -8 59 23 80 rrcurveto
          15 -117 -38 29 -127 hhcurveto
          -167 -243 -82 -316 -266 181 -103 148 -22 hvcurveto
          -34 -116 rlineto
          endchar
        </CharString>
        <CharString name="D">
          339 771 -20 21 -20 hstem
          155 135 -135 140 390 156 vstem
          257 677 rmoveto
          -5 -131 -1 -103 -104 vvcurveto
          -90 2 -91 3 -122 vhcurveto
          -1 27 28 0 25 hhcurveto
          215 107 136 190 140 -62 182 -227 -35 -42 -2 -4 -35 hvcurveto
          105 -697 rmoveto
          210 270 76 304 318 -224 60 -208 -142 -111 -1 2 -121 hvcurveto
          -8 -26 0 -14 6 -23 40 -4 68 -6 1 -19 rrcurveto
          4 -92 1 -90 -90 vvcurveto
          -103 -2 -102 -4 -102 vhcurveto
          -1 -19 -66 -6 -40 -4 -10 -25 2 -15 8 -23 rrcurveto
          3 122 59 1 146 hhcurveto
          -30 679 rmoveto
          2 15 16 1 15 hhcurveto
          203 -5 57 -167 -129 vvcurveto
          -174 -95 -126 -213 -6 vhcurveto
          -3 122 -1 72 90 vvcurveto
          104 2 102 4 114 vhcurveto
          -283 -662 rmoveto
          -3 8 0 8 3 7 42 4 70 7 1 36 rrcurveto
          4 102 2 103 103 vvcurveto
          90 -1 91 -4 92 vhcurveto
          -1 36 -70 7 -42 4 -2 7 -1 9 3 7 rrcurveto
          -7 107 111 7 107 hhcurveto
          188 204 -57 -300 -289 -248 -72 -192 -109 -99 -1 -2 -70 hvcurveto
          endchar
        </CharString>
        <CharString name="E">
          284 -20 20 20 19 -9 20 263 30 31 20 270 20 -8 19 19 20 5 -20 hstemhm
          28 20 99 20 83 75 209 20 hintmask 0011100101111000
          466 714 rmoveto
          167 61 -57 -125 62 hvcurveto
          -3 -6 -6 -4 -8 -3 rrcurveto
          hintmask 0011110101111000
          82 -44 -85 83 -199 hhcurveto
          -155 hlineto
          -4 -127 -2 -89 -92 vvcurveto
          -2 54 53 0 52 hhcurveto
          87 25 68 82 43 hvcurveto
          8 -3 8 -4 3 -6 rrcurveto
          -27 -47 -22 -66 -40 vvcurveto
          -54 22 -53 27 -46 vhcurveto
          -3 -6 -8 -4 -8 -3 rrcurveto
          76 -42 -26 75 -87 hhcurveto
          -159 -1 rlineto
          -94 2 -90 3 -128 vhcurveto
          176 hlineto
          199 85 83 82 44 hvcurveto
          8 -3 6 -4 3 -6 rrcurveto
          hintmask 1011100101111000
          -125 -62 -61 -57 -167 hhcurveto
          -211 hlineto
          -66 -98 -1 -2 -63 hvcurveto
          hintmask 0101101011111000
          -3 8 2 7 1 8 42 4 70 7 1 36 rrcurveto
          4 102 2 103 103 vvcurveto
          90 -1 91 -4 92 vhcurveto
          -1 36 -70 7 -42 4 rrcurveto
          23 vlineto
          hintmask 0011100101111000
          -2 55 58 -2 58 hhcurveto
          313 -206 rmoveto
          -62 -31 -27 -52 -61 hhcurveto
          -29 -29 0 1 -31 hvcurveto
          hintmask 0011110101111000
          83 2 81 3 105 vhcurveto
          80 hlineto
          181 94 -87 -83 45 hvcurveto
          22 8 21 11 9 19 rrcurveto
          hintmask 0011100101111000
          -45 75 -21 50 -10 77 rrcurveto
          -472 hlineto
          hintmask 1011101011111000
          -63 -76 3 2 -60 hvcurveto
          -9 -24 1 -16 6 -23 40 -4 68 -6 1 -19 rrcurveto
          4 -92 1 -90 -90 vvcurveto
          -103 -2 -102 -4 -102 vhcurveto
          -1 -19 -67 -6 -40 -4 -8 -27 2 -13 7 -22 rrcurveto
          2 63 158 1 66 hhcurveto
          405 hlineto
          10 77 21 50 45 75 -9 19 -21 11 -22 8 rrcurveto
          hintmask 0011100101111000
          -83 -45 -94 -87 -181 hhcurveto
          -101 hlineto
          -3 116 -1 67 80 vvcurveto
          88 hlineto
          60 -3 27 -46 30 -51 5 -10 15 -26 6 -10 20 7 20 11 10 20 rrcurveto
          -29 49 -23 55 49 vvcurveto
          36 23 67 29 50 vhcurveto
          -9 19 -21 11 -22 8 rrcurveto
          endchar
        </CharString>
        <CharString name="Eacute">
          284 854 188 hstem
          190 205 vstem
          220 714 rmoveto
          -58 -58 2 2 -55 hvcurveto
          -23 vlineto
          42 -4 70 -7 1 -36 rrcurveto
          4 -92 1 -91 -90 vvcurveto
          -103 -2 -103 -4 -102 vhcurveto
          -1 -36 -70 -7 -42 -4 -1 -8 -2 -7 3 -8 rrcurveto
          2 63 98 1 66 hhcurveto
          211 hlineto
          167 61 57 125 62 hvcurveto
          -3 6 -6 4 -8 3 rrcurveto
          -82 -44 -85 -83 -199 hhcurveto
          -176 hlineto
          -3 128 -2 90 94 vvcurveto
          159 1 rlineto
          87 26 -75 -76 42 hvcurveto
          8 3 8 4 3 6 rrcurveto
          -27 46 -22 53 54 vvcurveto
          40 22 66 27 47 vhcurveto
          -3 6 -8 4 -8 3 rrcurveto
          -82 -43 -25 -68 -87 hhcurveto
          -52 -53 0 2 -54 hvcurveto
          92 2 89 4 127 vhcurveto
          155 hlineto
          199 85 -83 -82 44 hvcurveto
          8 3 6 4 3 6 rrcurveto
          125 -62 -61 57 -167 hhcurveto
          88 -165 rmoveto
          22 -8 21 -11 9 -19 rrcurveto
          -29 -50 -23 -67 -36 vvcurveto
          -49 23 -55 29 -49 vhcurveto
          -10 -20 -20 -11 -20 -7 -6 10 -15 26 -5 10 -30 51 -27 46 -60 3 rrcurveto
          -88 hlineto
          -80 1 -67 3 -116 vhcurveto
          101 hlineto
          181 94 87 83 45 hvcurveto
          22 -8 21 -11 9 -19 -45 -75 -21 -50 -10 -77 rrcurveto
          -405 hlineto
          -66 -158 -1 -2 -63 hvcurveto
          -7 22 -2 13 8 27 40 4 67 6 1 19 rrcurveto
          4 102 2 102 103 vvcurveto
          90 -1 90 -4 92 vhcurveto
          -1 19 -68 6 -40 4 -6 23 -1 16 9 24 rrcurveto
          -2 60 76 -3 63 hhcurveto
          472 hlineto
          10 -77 21 -50 45 -75 -9 -19 -21 -11 -22 -8 rrcurveto
          83 -45 -94 87 -181 hhcurveto
          -80 hlineto
          -3 -105 -2 -81 -83 vvcurveto
          -1 31 29 0 29 hhcurveto
          61 27 52 62 31 hvcurveto
          -65 472 rmoveto
          15 12 16 8 17 hhcurveto
          25 17 -17 -25 -17 -7 -12 -11 -7 hvcurveto
          -173 -110 -14 18 rlineto
          -25 1 rmoveto
          33 -46 rlineto
          35 hlineto
          192 122 rlineto
          16 10 9 17 24 vvcurveto
          37 -25 25 -37 vhcurveto
          -35 hlineto
          -23 -21 -10 -21 -17 hvcurveto
          endchar
        </CharString>
        <CharString name="Ecircumflex">
          284 854 172 hstem
          369 305 vstem
          220 714 rmoveto
          -58 -58 2 2 -55 hvcurveto
          -23 vlineto
          42 -4 70 -7 1 -36 rrcurveto
          4 -92 1 -91 -90 vvcurveto
          -103 -2 -103 -4 -102 vhcurveto
          -1 -36 -70 -7 -42 -4 -1 -8 -2 -7 3 -8 rrcurveto
          2 63 98 1 66 hhcurveto
          211 hlineto
          167 61 57 125 62 hvcurveto
          -3 6 -6 4 -8 3 rrcurveto
          -82 -44 -85 -83 -199 hhcurveto
          -176 hlineto
          -3 128 -2 90 94 vvcurveto
          159 1 rlineto
          87 26 -75 -76 42 hvcurveto
          8 3 8 4 3 6 rrcurveto
          -27 46 -22 53 54 vvcurveto
          40 22 66 27 47 vhcurveto
          -3 6 -8 4 -8 3 rrcurveto
          -82 -43 -25 -68 -87 hhcurveto
          -52 -53 0 2 -54 hvcurveto
          92 2 89 4 127 vhcurveto
          155 hlineto
          199 85 -83 -82 44 hvcurveto
          8 3 6 4 3 6 rrcurveto
          125 -62 -61 57 -167 hhcurveto
          88 -165 rmoveto
          22 -8 21 -11 9 -19 rrcurveto
          -29 -50 -23 -67 -36 vvcurveto
          -49 23 -55 29 -49 vhcurveto
          -10 -20 -20 -11 -20 -7 -6 10 -15 26 -5 10 -30 51 -27 46 -60 3 rrcurveto
          -88 hlineto
          -80 1 -67 3 -116 vhcurveto
          101 hlineto
          181 94 87 83 45 hvcurveto
          22 -8 21 -11 9 -19 -45 -75 -21 -50 -10 -77 rrcurveto
          -405 hlineto
          -66 -158 -1 -2 -63 hvcurveto
          -7 22 -2 13 8 27 40 4 67 6 1 19 rrcurveto
          4 102 2 102 103 vvcurveto
          90 -1 90 -4 92 vhcurveto
          -1 19 -68 6 -40 4 -6 23 -1 16 9 24 rrcurveto
          -2 60 76 -3 63 hhcurveto
          472 hlineto
          10 -77 21 -50 45 -75 -9 -19 -21 -11 -22 -8 rrcurveto
          83 -45 -94 87 -181 hhcurveto
          -80 hlineto
          -3 -105 -2 -81 -83 vvcurveto
          -1 31 29 0 29 hhcurveto
          61 27 52 62 31 hvcurveto
          -239 299 rmoveto
          -36 hlineto
          125 162 rlineto
          58 hlineto
          125 -162 rlineto
          -36 hlineto
          -118 87 rlineto
          111 -107 rmoveto
          118 hlineto
          -155 202 rlineto
          -113 hlineto
          -155 -202 rlineto
          118 hlineto
          93 69 rlineto
          endchar
        </CharString>
        <CharString name="Edieresis">
          284 854 109 hstem
          354 108 67 109 vstem
          220 714 rmoveto
          -58 -58 2 2 -55 hvcurveto
          -23 vlineto
          42 -4 70 -7 1 -36 rrcurveto
          4 -92 1 -91 -90 vvcurveto
          -103 -2 -103 -4 -102 vhcurveto
          -1 -36 -70 -7 -42 -4 -1 -8 -2 -7 3 -8 rrcurveto
          2 63 98 1 66 hhcurveto
          211 hlineto
          167 61 57 125 62 hvcurveto
          -3 6 -6 4 -8 3 rrcurveto
          -82 -44 -85 -83 -199 hhcurveto
          -176 hlineto
          -3 128 -2 90 94 vvcurveto
          159 1 rlineto
          87 26 -75 -76 42 hvcurveto
          8 3 8 4 3 6 rrcurveto
          -27 46 -22 53 54 vvcurveto
          40 22 66 27 47 vhcurveto
          -3 6 -8 4 -8 3 rrcurveto
          -82 -43 -25 -68 -87 hhcurveto
          -52 -53 0 2 -54 hvcurveto
          92 2 89 4 127 vhcurveto
          155 hlineto
          199 85 -83 -82 44 hvcurveto
          8 3 6 4 3 6 rrcurveto
          125 -62 -61 57 -167 hhcurveto
          88 -165 rmoveto
          22 -8 21 -11 9 -19 rrcurveto
          -29 -50 -23 -67 -36 vvcurveto
          -49 23 -55 29 -49 vhcurveto
          -10 -20 -20 -11 -20 -7 -6 10 -15 26 -5 10 -30 51 -27 46 -60 3 rrcurveto
          -88 hlineto
          -80 1 -67 3 -116 vhcurveto
          101 hlineto
          181 94 87 83 45 hvcurveto
          22 -8 21 -11 9 -19 -45 -75 -21 -50 -10 -77 rrcurveto
          -405 hlineto
          -66 -158 -1 -2 -63 hvcurveto
          -7 22 -2 13 8 27 40 4 67 6 1 19 rrcurveto
          4 102 2 102 103 vvcurveto
          90 -1 90 -4 92 vhcurveto
          -1 19 -68 6 -40 4 -6 23 -1 16 9 24 rrcurveto
          -2 60 76 -3 63 hhcurveto
          472 hlineto
          10 -77 21 -50 45 -75 -9 -19 -21 -11 -22 -8 rrcurveto
          83 -45 -94 87 -181 hhcurveto
          -80 hlineto
          -3 -105 -2 -81 -83 vvcurveto
          -1 31 29 0 29 hhcurveto
          61 27 52 62 31 hvcurveto
          -280 384 rmoveto
          33 24 27 29 29 24 -27 -33 -33 -24 -27 -29 -29 -24 27 33 vhcurveto
          182 hmoveto
          33 24 27 29 29 24 -27 -33 -33 -24 -27 -29 -29 -24 27 33 vhcurveto
          60 80 rmoveto
          -35 -30 -23 -31 -11 hvcurveto
          32 -9 -30 22 -67 hhcurveto
          -44 -36 -36 -44 -44 36 -36 44 67 30 21 32 9 hvcurveto
          -31 11 30 -22 35 hhcurveto
          84 26 34 46 46 -26 34 -84 hvcurveto
          endchar
        </CharString>
        <CharString name="Egrave">
          284 854 188 hstem
          205 205 vstem
          220 714 rmoveto
          -58 -58 2 2 -55 hvcurveto
          -23 vlineto
          42 -4 70 -7 1 -36 rrcurveto
          4 -92 1 -91 -90 vvcurveto
          -103 -2 -103 -4 -102 vhcurveto
          -1 -36 -70 -7 -42 -4 -1 -8 -2 -7 3 -8 rrcurveto
          2 63 98 1 66 hhcurveto
          211 hlineto
          167 61 57 125 62 hvcurveto
          -3 6 -6 4 -8 3 rrcurveto
          -82 -44 -85 -83 -199 hhcurveto
          -176 hlineto
          -3 128 -2 90 94 vvcurveto
          159 1 rlineto
          87 26 -75 -76 42 hvcurveto
          8 3 8 4 3 6 rrcurveto
          -27 46 -22 53 54 vvcurveto
          40 22 66 27 47 vhcurveto
          -3 6 -8 4 -8 3 rrcurveto
          -82 -43 -25 -68 -87 hhcurveto
          -52 -53 0 2 -54 hvcurveto
          92 2 89 4 127 vhcurveto
          155 hlineto
          199 85 -83 -82 44 hvcurveto
          8 3 6 4 3 6 rrcurveto
          125 -62 -61 57 -167 hhcurveto
          88 -165 rmoveto
          22 -8 21 -11 9 -19 rrcurveto
          -29 -50 -23 -67 -36 vvcurveto
          -49 23 -55 29 -49 vhcurveto
          -10 -20 -20 -11 -20 -7 -6 10 -15 26 -5 10 -30 51 -27 46 -60 3 rrcurveto
          -88 hlineto
          -80 1 -67 3 -116 vhcurveto
          101 hlineto
          181 94 87 83 45 hvcurveto
          22 -8 21 -11 9 -19 -45 -75 -21 -50 -10 -77 rrcurveto
          -405 hlineto
          -66 -158 -1 -2 -63 hvcurveto
          -7 22 -2 13 8 27 40 4 67 6 1 19 rrcurveto
          4 102 2 102 103 vvcurveto
          90 -1 90 -4 92 vhcurveto
          -1 19 -68 6 -40 4 -6 23 -1 16 9 24 rrcurveto
          -2 60 76 -3 63 hhcurveto
          472 hlineto
          10 -77 21 -50 45 -75 -9 -19 -21 -11 -22 -8 rrcurveto
          83 -45 -94 87 -181 hhcurveto
          -80 hlineto
          -3 -105 -2 -81 -83 vvcurveto
          -1 31 29 0 29 hhcurveto
          61 27 52 62 31 hvcurveto
          -58 325 rmoveto
          -14 -18 -173 110 rlineto
          -11 7 -7 12 17 vvcurveto
          25 17 17 25 17 16 -8 -15 12 vhcurveto
          50 13 rmoveto
          20 -16 -21 10 -58 hhcurveto
          -37 -25 -25 -37 -25 9 -16 16 -10 hvcurveto
          192 -122 rlineto
          35 hlineto
          33 46 rlineto
          endchar
        </CharString>
        <CharString name="Eth">
          339 0 44 339 44 320 44 -20 -20 21 -20 hstem
          155 135 -135 140 -123 98 415 156 -88 113 vstem
          326 394 rmoveto
          1 86 2 84 3 95 rrcurveto
          2 15 16 1 15 hhcurveto
          203 -5 57 -167 -129 vvcurveto
          -174 -95 -126 -213 -6 vhcurveto
          -3 112 -1 67 80 vvcurveto
          -3 47 42 0 76 hhcurveto
          88 vlineto
          -3 -74 -47 -2 -44 hhcurveto
          -158 -20 rmoveto
          90 -1 92 -4 92 vhcurveto
          -1 36 -70 7 -42 4 -2 7 -1 9 3 7 rrcurveto
          -7 107 111 7 107 hhcurveto
          188 204 -57 -300 -289 -248 -72 -192 -109 -99 -1 -2 -70 hvcurveto
          -3 8 0 8 3 7 42 4 70 7 1 36 rrcurveto
          4 102 2 61 103 vvcurveto
          -39 -39 -1 -1 -38 hvcurveto
          47 vlineto
          38 -2 39 -1 39 -1 rrcurveto
          83 hmoveto
          64 87 1 3 64 hvcurveto
          -47 vlineto
          1 -64 -87 2 -64 hhcurveto
          -90 2 -86 3 -122 vhcurveto
          -1 27 28 0 25 hhcurveto
          215 107 136 190 140 -62 182 -227 -35 -42 -2 -4 -35 hvcurveto
          -5 -131 -1 -68 -104 vvcurveto
          -103 21 rmoveto
          -28 1 -27 1 -26 2 rrcurveto
          -35 -89 35 hlineto
          81 2 rlineto
          -82 -3 -81 -3 -81 vhcurveto
          -1 -19 -66 -6 -40 -4 -10 -25 2 -15 8 -23 rrcurveto
          3 122 59 1 146 hhcurveto
          210 270 76 304 318 -224 60 -208 -142 -111 -1 2 -121 hvcurveto
          -8 -26 0 -14 6 -23 40 -4 68 -6 1 -19 rrcurveto
          4 -86 1 -82 -84 vvcurveto
          endchar
        </CharString>
        <CharString name="Euro">
          -8 39 263 39 60 39 237 39 hstem
          46 99 302 25 vstem
          -8 416 rmoveto
          -1 18 20 -1 21 hhcurveto
          244 22 155 76 97 hhcurveto
          83 82 -48 -154 5 hvcurveto
          -4 -8 -12 -1 -5 hhcurveto
          117 -33 -20 55 -92 hhcurveto
          -117 -58 -149 -137 -13 hvcurveto
          134 85 0 3 64 hvcurveto
          -12 -41 rlineto
          2 -64 -85 0 -124 hhcurveto
          -25 vlineto
          -12 0 -12 1 -11 vhcurveto
          120 69 0 3 64 hvcurveto
          -12 -41 rlineto
          2 -64 -69 0 -106 hhcurveto
          -138 16 57 -103 126 hhcurveto
          59 49 26 60 34 hvcurveto
          7 12 -4 -8 2 hvcurveto
          -94 -43 -91 -40 -59 hhcurveto
          -100 -133 68 232 -23 hvcurveto
          -71 hlineto
          12 40 rlineto
          -1 18 19 -1 20 hhcurveto
          -1 11 0 11 12 vvcurveto
          24 -68 vlineto
          488 -230 rmoveto
          -30 -53 -39 -27 -44 -5 -87 9 -43 81 -16 110 188 -2 rcurveline
          24 82 rlineto
          -36 hlineto
          -181 -4 rlineto
          20 vlineto
          224 -2 24 82 rlineto
          -35 hlineto
          -3 -64 -81 -1 -64 hhcurveto
          14 114 43 117 80 13 61 -9 19 -55 30 -106 rrcurveto
          11 29 3 11 22 hvcurveto
          -10 72 -1 65 14 66 rrcurveto
          23 -98 -35 7 -62 hhcurveto
          -104 -162 -70 -249 -26 hvcurveto
          -55 2 -25 -81 rlineto
          75 -17 hlineto
          -50 2 -25 -81 rlineto
          80 hlineto
          -239 28 139 -61 107 hhcurveto
          64 101 45 105 48 hvcurveto
          24 -35 12 -17 vhcurveto
          endchar
        </CharString>
        <CharString name="F">
          233 -20 20 20 16 -16 19 274 30 31 20 270 20 -8 19 19 20 5 -20 hstemhm
          28 21 99 20 83 75 93 26 70 20 hintmask 1001100101111100
          394 313 rmoveto
          60 -3 27 -46 30 -51 5 -10 14 -26 7 -10 20 7 20 11 10 20 rrcurveto
          -29 49 -23 55 49 vvcurveto
          36 24 67 28 50 vhcurveto
          -9 19 -21 11 -22 8 -21 -41 rcurveline
          -62 -31 -27 -52 -61 hhcurveto
          -23 -22 0 1 -24 hvcurveto
          hintmask 1001110101111100
          83 2 81 3 105 vhcurveto
          60 hlineto
          181 94 -87 -83 45 hvcurveto
          22 8 21 11 9 19 rrcurveto
          hintmask 1001100101111100
          -45 75 -21 50 -10 77 rrcurveto
          -452 hlineto
          hintmask 1011101011111100
          -63 -76 3 2 -60 hvcurveto
          -9 -24 1 -16 6 -23 40 -4 68 -6 1 -19 rrcurveto
          4 -92 1 -90 -90 vvcurveto
          -103 -1 -102 -5 -102 vhcurveto
          -1 -19 -66 -6 -40 -4 rrcurveto
          hintmask 1001100101111100
          -10 -25 2 -15 8 -23 rrcurveto
          2 79 55 2 50 hhcurveto
          57 72 -2 -2 90 hvcurveto
          hintmask 1101100101111100
          8 25 1 14 -6 21 -42 6 -67 7 -1 18 rrcurveto
          -3 78 -2 98 70 vvcurveto
          -75 29 rmoveto
          -82 1 -101 4 -92 vhcurveto
          2 -36 99 -7 62 -4 rrcurveto
          hintmask 1001100101111100
          2 -8 1 -8 -3 -7 rrcurveto
          2 -64 -70 1 -66 hhcurveto
          -58 -57 -1 -2 -55 hvcurveto
          hintmask 1011101011111100
          -2 8 -1 8 3 7 42 4 70 7 1 36 rrcurveto
          4 102 2 103 103 vvcurveto
          90 -1 91 -4 92 vhcurveto
          -1 36 -70 7 -42 4 rrcurveto
          23 vlineto
          hintmask 1001100101111100
          -2 55 58 -2 58 hhcurveto
          226 hlineto
          167 61 -57 -125 62 hvcurveto
          -3 -6 -6 -4 -8 -3 rrcurveto
          hintmask 1001110101111100
          82 -44 -85 83 -199 hhcurveto
          -135 hlineto
          -4 -127 -2 -89 -92 vvcurveto
          -2 48 45 0 46 hhcurveto
          87 25 68 82 43 hvcurveto
          8 -3 9 -4 2 -6 rrcurveto
          -27 -47 -22 -66 -40 vvcurveto
          -54 23 -53 26 -46 vhcurveto
          -3 -6 -8 -4 -8 -3 rrcurveto
          76 -42 -26 75 -87 hhcurveto
          endchar
        </CharString>
        <CharString name="G">
          347 698 -20 hstem
          70 151 373 140 vstem
          455 734 rmoveto
          135 108 -45 -208 52 hvcurveto
          -2 -6 -9 -4 -7 -1 rrcurveto
          102 -46 -63 127 -168 hhcurveto
          -198 -73 -193 -150 -150 73 -191 198 52 62 8 40 35 hvcurveto
          198 vlineto
          36 -71 7 -42 4 vhcurveto
          -2 8 0 8 2 7 rrcurveto
          -2 55 57 -2 58 hhcurveto
          66 70 2 2 64 hvcurveto
          3 -7 0 -9 -3 -7 rrcurveto
          -61 -4 -102 -7 -36 vvcurveto
          -72 vlineto
          -74 8 -40 14 -38 vhcurveto
          -35 -88 -71 -22 -106 hhcurveto
          -144 -236 76 300 300 236 78 144 hvcurveto
          265 -286 rmoveto
          20 3 22 11 10 21 -30 88 -8 59 23 80 rrcurveto
          15 -117 -50 29 -139 hhcurveto
          -152 -244 -82 -316 -316 248 -80 152 174 64 25 40 108 hvcurveto
          -18 48 -10 45 71 vvcurveto
          72 vlineto
          18 68 6 41 4 vhcurveto
          6 18 0 24 -7 18 -130 -2 -148 -1 -126 6 -9 -18 0 -26 7 -19 rrcurveto
          41 -4 68 -6 -18 vvcurveto
          -190 vlineto
          -26 -26 -40 -10 -40 hhcurveto
          -159 -60 183 138 137 56 177 159 8 hvcurveto
          141 -10 61 -122 44 -98 rrcurveto
          endchar
        </CharString>
        <CharString name="H">
          361 -20 20 20 16 -16 19 275 30 30 20 282 19 19 20 -20 25 0 -20 hstemhm
          28 20 98 20 83 75 94 25 31 21 93 20 -18 20 87 75 93 25 hintmask 100010100111111011000000
          hintmask 101110100111111011000000
          608 67 rmoveto
          2 88 2 99 1 87 rrcurveto
          2 -60 -50 1 -60 hhcurveto
          -61 -73 -1 -1 -60 hvcurveto
          hintmask 110010100111111011000000
          -88 2 -99 3 -88 vhcurveto
          1 -36 100 -7 62 -4 rrcurveto
          hintmask 100010100111111011000000
          2 -8 1 -8 -3 -7 rrcurveto
          2 -64 -70 1 -66 hhcurveto
          -58 -57 -1 -2 -55 hvcurveto
          hintmask 101011001111111011000000
          -2 8 -1 8 3 7 42 4 70 7 1 36 rrcurveto
          4 102 2 103 103 vvcurveto
          90 -1 91 -4 92 vhcurveto
          -1 36 -70 7 -42 4 -2 7 -1 9 3 7 rrcurveto
          hintmask 100010100111111011000000
          -2 55 57 -2 58 hhcurveto
          66 70 2 2 64 hvcurveto
          hintmask 100011001111111011000000
          2 -8 1 -7 -3 -8 -62 -4 -100 -7 -1 -36 rrcurveto
          -5 -90 -1 -90 -92 vvcurveto
          -2 60 73 0 61 hhcurveto
          60 50 1 2 60 hvcurveto
          -1 90 -1 91 -3 90 -1 36 -70 7 -42 4 -2 9 0 5 2 9 rrcurveto
          hintmask 100010100111111011000000
          -2 55 57 -2 58 hhcurveto
          66 70 2 2 64 hvcurveto
          hintmask 101011100111111011000000
          3 -7 0 -8 -3 -8 -62 -4 -100 -7 -1 -36 rrcurveto
          -4 -97 -1 -97 -97 vvcurveto
          -96 1 -97 4 -97 vhcurveto
          1 -36 100 -7 62 -4 rrcurveto
          hintmask 100010100111111011000000
          2 -7 1 -9 -3 -7 rrcurveto
          2 -64 -70 1 -66 hhcurveto
          -58 -57 -1 -2 -55 hvcurveto
          hintmask 101010100111111011000000
          -2 8 -1 8 3 7 rrcurveto
          hintmask 101110100111111011000000
          42 4 71 7 36 vvcurveto
          -20 hmoveto
          -18 -67 -6 -40 -4 vhcurveto
          hintmask 100010100111111011000000
          -10 -25 2 -15 8 -23 rrcurveto
          2 90 71 2 58 hhcurveto
          50 55 -2 -2 79 hvcurveto
          hintmask 101011100111111011000000
          8 26 0 13 -6 24 -40 4 -68 6 -1 19 rrcurveto
          -4 97 -1 96 96 vvcurveto
          97 1 96 4 97 vhcurveto
          1 19 68 6 40 4 rrcurveto
          hintmask 100010100111111011000000
          5 19 0 23 -6 18 rrcurveto
          -88 -69 -2 -55 hhcurveto
          hintmask 100010010111111011000000
          -79 -42 0 5 -71 hvcurveto
          hintmask 100011100111111011000000
          -9 -24 1 -16 6 -23 40 -4 68 -6 1 -19 rrcurveto
          hintmask 100011100111110111000000
          3 -87 1 -77 1 -87 -150 -2 rcurveline
          -44 -1 -57 1 -18 1 rrcurveto
          92 2 70 4 90 vhcurveto
          1 19 68 6 40 4 rrcurveto
          hintmask 100010100111111011000000
          6 25 0 13 -7 22 rrcurveto
          -81 -55 -2 -49 hhcurveto
          hintmask 100010010111111011000000
          -58 -74 4 1 -87 hvcurveto
          hintmask 101011100111111011000000
          -8 -26 0 -14 6 -23 40 -4 68 -6 1 -19 rrcurveto
          4 -92 1 -90 -90 vvcurveto
          -103 -2 -102 -4 -102 vhcurveto
          -1 -19 -66 -6 -40 -4 rrcurveto
          hintmask 100010100111111011000000
          -10 -25 2 -15 8 -23 rrcurveto
          2 79 55 2 50 hhcurveto
          57 72 -2 -2 90 hvcurveto
          hintmask 110110100111111011000000
          8 25 1 14 -6 21 rrcurveto
          -42 6 -68 7 19 vvcurveto
          -3 79 -2 87 79 vvcurveto
          20 28 1 71 hhcurveto
          48 54 -1 -1 48 hvcurveto
          hintmask 101110100111111011000000
          -1 -87 -2 -70 -2 -88 rrcurveto
          endchar
        </CharString>
        <CharString name="I">
          -86 -20 20 20 16 -16 19 637 19 19 20 5 -20 hstemhm
          28 21 -15 16 98 20 84 74 94 25 hintmask 1000100111100000
          hintmask 1100100111100000
          256 67 rmoveto
          1 -36 100 -7 62 -4 rrcurveto
          hintmask 1000101011100000
          2 -8 1 -8 -3 -7 rrcurveto
          2 -64 -70 1 -66 hhcurveto
          -58 -57 -1 -2 -55 hvcurveto
          hintmask 1011101011100000
          -2 8 -1 8 3 7 42 4 70 7 1 36 rrcurveto
          4 102 2 103 103 vvcurveto
          90 -1 91 -4 92 vhcurveto
          hintmask 1001010111100000
          -1 36 -70 7 -42 4 -2 7 -1 9 3 7 rrcurveto
          hintmask 1000100111100000
          -2 55 57 -2 58 hhcurveto
          66 70 2 2 64 hvcurveto
          hintmask 1001100111100000
          2 -8 1 -7 -3 -8 -62 -4 -100 -7 -1 -36 rrcurveto
          -3 -92 -2 -91 -90 vvcurveto
          hintmask 1100100111100000
          -103 2 -103 2 -102 vhcurveto
          hintmask 1011100111100000
          -222 609 rmoveto
          40 -4 68 -6 1 -19 rrcurveto
          4 -92 1 -90 -90 vvcurveto
          -103 -1 -102 -5 -102 vhcurveto
          hintmask 1010101011100000
          -1 -19 -66 -6 -40 -4 rrcurveto
          hintmask 1000101011100000
          -10 -25 2 -15 8 -23 rrcurveto
          2 79 55 2 50 hhcurveto
          57 72 -2 -2 90 hvcurveto
          hintmask 1101100111100000
          8 25 1 14 -6 21 -42 6 -67 7 -1 19 rrcurveto
          -5 91 0 90 90 vvcurveto
          104 1 102 5 102 vhcurveto
          1 19 68 6 40 4 rrcurveto
          hintmask 1000100111100000
          6 25 0 13 -7 22 rrcurveto
          -81 -55 -2 -49 hhcurveto
          hintmask 1000010111100000
          -58 -74 4 1 -87 hvcurveto
          hintmask 1011100111100000
          -7 -22 -1 -16 6 -25 rrcurveto
          endchar
        </CharString>
        <CharString name="Iacute">
          -86 854 188 hstem
          -15 205 vstem
          256 67 rmoveto
          1 -36 100 -7 62 -4 2 -8 1 -8 -3 -7 rrcurveto
          2 -64 -70 1 -66 hhcurveto
          -58 -57 -1 -2 -55 hvcurveto
          -2 8 -1 8 3 7 42 4 70 7 1 36 rrcurveto
          4 102 2 103 103 vvcurveto
          90 -1 91 -4 92 vhcurveto
          -1 36 -70 7 -42 4 -2 7 -1 9 3 7 rrcurveto
          -2 55 57 -2 58 hhcurveto
          66 70 2 2 64 hvcurveto
          2 -8 1 -7 -3 -8 -62 -4 -100 -7 -1 -36 rrcurveto
          -3 -92 -2 -91 -90 vvcurveto
          -103 2 -103 2 -102 vhcurveto
          -222 609 rmoveto
          40 -4 68 -6 1 -19 rrcurveto
          4 -92 1 -90 -90 vvcurveto
          -103 -1 -102 -5 -102 vhcurveto
          -1 -19 -66 -6 -40 -4 -10 -25 2 -15 8 -23 rrcurveto
          2 79 55 2 50 hhcurveto
          57 72 -2 -2 90 hvcurveto
          8 25 1 14 -6 21 -42 6 -67 7 -1 19 rrcurveto
          -5 91 0 90 90 vvcurveto
          104 1 102 5 102 vhcurveto
          1 19 68 6 40 4 6 25 0 13 -7 22 rrcurveto
          -81 -55 -2 -49 hhcurveto
          -58 -74 4 1 -87 hvcurveto
          -7 -22 -1 -16 6 -25 rrcurveto
          229 304 rmoveto
          15 12 16 8 17 hhcurveto
          25 17 -17 -25 -17 -7 -12 -11 -7 hvcurveto
          -173 -110 -14 18 rlineto
          -25 1 rmoveto
          33 -46 rlineto
          35 hlineto
          192 122 rlineto
          16 10 9 17 24 vvcurveto
          37 -25 25 -37 vhcurveto
          -35 hlineto
          -23 -21 -10 -21 -17 hvcurveto
          endchar
        </CharString>
        <CharString name="Icircumflex">
          -86 854 172 hstem
          175 305 vstem
          256 67 rmoveto
          1 -36 100 -7 62 -4 2 -8 1 -8 -3 -7 rrcurveto
          2 -64 -70 1 -66 hhcurveto
          -58 -57 -1 -2 -55 hvcurveto
          -2 8 -1 8 3 7 42 4 70 7 1 36 rrcurveto
          4 102 2 103 103 vvcurveto
          90 -1 91 -4 92 vhcurveto
          -1 36 -70 7 -42 4 -2 7 -1 9 3 7 rrcurveto
          -2 55 57 -2 58 hhcurveto
          66 70 2 2 64 hvcurveto
          2 -8 1 -7 -3 -8 -62 -4 -100 -7 -1 -36 rrcurveto
          -3 -92 -2 -91 -90 vvcurveto
          -103 2 -103 2 -102 vhcurveto
          -222 609 rmoveto
          40 -4 68 -6 1 -19 rrcurveto
          4 -92 1 -90 -90 vvcurveto
          -103 -1 -102 -5 -102 vhcurveto
          -1 -19 -66 -6 -40 -4 -10 -25 2 -15 8 -23 rrcurveto
          2 79 55 2 50 hhcurveto
          57 72 -2 -2 90 hvcurveto
          8 25 1 14 -6 21 -42 6 -67 7 -1 19 rrcurveto
          -5 91 0 90 90 vvcurveto
          104 1 102 5 102 vhcurveto
          1 19 68 6 40 4 6 25 0 13 -7 22 rrcurveto
          -81 -55 -2 -49 hhcurveto
          -58 -74 4 1 -87 hvcurveto
          -7 -22 -1 -16 6 -25 rrcurveto
          66 131 rmoveto
          -36 hlineto
          125 162 rlineto
          58 hlineto
          125 -162 rlineto
          -36 hlineto
          -118 87 rlineto
          111 -107 rmoveto
          118 hlineto
          -155 202 rlineto
          -113 hlineto
          -155 -202 rlineto
          118 hlineto
          93 69 rlineto
          endchar
        </CharString>
        <CharString name="Idieresis">
          -86 854 109 hstem
          169 108 67 109 vstem
          256 67 rmoveto
          1 -36 100 -7 62 -4 2 -8 1 -8 -3 -7 rrcurveto
          2 -64 -70 1 -66 hhcurveto
          -58 -57 -1 -2 -55 hvcurveto
          -2 8 -1 8 3 7 42 4 70 7 1 36 rrcurveto
          4 102 2 103 103 vvcurveto
          90 -1 91 -4 92 vhcurveto
          -1 36 -70 7 -42 4 -2 7 -1 9 3 7 rrcurveto
          -2 55 57 -2 58 hhcurveto
          66 70 2 2 64 hvcurveto
          2 -8 1 -7 -3 -8 -62 -4 -100 -7 -1 -36 rrcurveto
          -3 -92 -2 -91 -90 vvcurveto
          -103 2 -103 2 -102 vhcurveto
          -222 609 rmoveto
          40 -4 68 -6 1 -19 rrcurveto
          4 -92 1 -90 -90 vvcurveto
          -103 -1 -102 -5 -102 vhcurveto
          -1 -19 -66 -6 -40 -4 -10 -25 2 -15 8 -23 rrcurveto
          2 79 55 2 50 hhcurveto
          57 72 -2 -2 90 hvcurveto
          8 25 1 14 -6 21 -42 6 -67 7 -1 19 rrcurveto
          -5 91 0 90 90 vvcurveto
          104 1 102 5 102 vhcurveto
          1 19 68 6 40 4 6 25 0 13 -7 22 rrcurveto
          -81 -55 -2 -49 hhcurveto
          -58 -74 4 1 -87 hvcurveto
          -7 -22 -1 -16 6 -25 rrcurveto
          34 216 rmoveto
          33 24 27 29 29 24 -27 -33 -33 -24 -27 -29 -29 -24 27 33 vhcurveto
          182 hmoveto
          33 24 27 29 29 24 -27 -33 -33 -24 -27 -29 -29 -24 27 33 vhcurveto
          60 80 rmoveto
          -35 -30 -23 -31 -11 hvcurveto
          32 -9 -30 22 -67 hhcurveto
          -44 -36 -36 -44 -44 36 -36 44 67 30 21 32 9 hvcurveto
          -31 11 30 -22 35 hhcurveto
          84 26 34 46 46 -26 34 -84 hvcurveto
          endchar
        </CharString>
        <CharString name="Igrave">
          -86 854 188 hstem
          20 205 vstem
          256 67 rmoveto
          1 -36 100 -7 62 -4 2 -8 1 -8 -3 -7 rrcurveto
          2 -64 -70 1 -66 hhcurveto
          -58 -57 -1 -2 -55 hvcurveto
          -2 8 -1 8 3 7 42 4 70 7 1 36 rrcurveto
          4 102 2 103 103 vvcurveto
          90 -1 91 -4 92 vhcurveto
          -1 36 -70 7 -42 4 -2 7 -1 9 3 7 rrcurveto
          -2 55 57 -2 58 hhcurveto
          66 70 2 2 64 hvcurveto
          2 -8 1 -7 -3 -8 -62 -4 -100 -7 -1 -36 rrcurveto
          -3 -92 -2 -91 -90 vvcurveto
          -103 2 -103 2 -102 vhcurveto
          -222 609 rmoveto
          40 -4 68 -6 1 -19 rrcurveto
          4 -92 1 -90 -90 vvcurveto
          -103 -1 -102 -5 -102 vhcurveto
          -1 -19 -66 -6 -40 -4 -10 -25 2 -15 8 -23 rrcurveto
          2 79 55 2 50 hhcurveto
          57 72 -2 -2 90 hvcurveto
          8 25 1 14 -6 21 -42 6 -67 7 -1 19 rrcurveto
          -5 91 0 90 90 vvcurveto
          104 1 102 5 102 vhcurveto
          1 19 68 6 40 4 6 25 0 13 -7 22 rrcurveto
          -81 -55 -2 -49 hhcurveto
          -58 -74 4 1 -87 hvcurveto
          -7 -22 -1 -16 6 -25 rrcurveto
          256 157 rmoveto
          -14 -18 -173 110 rlineto
          -11 7 -7 12 17 vvcurveto
          25 17 17 25 17 16 -8 -15 12 vhcurveto
          50 13 rmoveto
          20 -16 -21 10 -58 hhcurveto
          -37 -25 -25 -37 -25 9 -16 16 -10 hvcurveto
          192 -122 rlineto
          35 hlineto
          33 46 rlineto
          endchar
        </CharString>
        <CharString name="J">
          -59 -260 21 974 -20 hstem
          -84 173 86 146 -146 152 -146 140 vstem
          275 375 rmoveto
          -428 -10 -207 -180 -93 -46 59 58 55 33 30 45 22 17 -6 -20 14 vhcurveto
          -2 -7 -3 -7 -11 -3 rrcurveto
          8 -8 -11 4 -10 hhcurveto
          -22 -22 -19 -37 -39 30 -45 67 92 14 81 175 hvcurveto
          348 vlineto
          90 -1 91 -4 92 vhcurveto
          -1 36 -70 7 -42 4 -2 7 -1 9 3 7 rrcurveto
          -2 55 57 -2 58 hhcurveto
          66 70 2 2 64 hvcurveto
          2 -8 1 -7 -3 -8 -62 -4 -100 -7 -1 -36 rrcurveto
          -3 -92 -2 -91 -90 vvcurveto
          -178 -655 rmoveto
          225 27 286 333 104 1 102 5 102 hvcurveto
          1 19 68 6 40 4 6 25 0 13 -7 22 rrcurveto
          -81 -55 -2 -49 hhcurveto
          -58 -75 0 5 -86 hvcurveto
          -7 -22 -1 -16 6 -25 40 -4 68 -6 1 -19 rrcurveto
          4 -92 1 -90 -90 vvcurveto
          -348 vlineto
          -146 -9 -75 -58 -13 vhcurveto
          -9 3 -5 4 -3 6 rrcurveto
          2 11 25 9 43 vvcurveto
          62 -45 32 -46 -48 -50 -35 -71 1 vhcurveto
          -68 1 50 -69 120 hhcurveto
          endchar
        </CharString>
        <CharString name="K">
          298 -10 21 hstem
          151 135 -129 129 vstem
          787 718 rmoveto
          2 -7 0 -8 -2 -8 -51 -4 -59 -5 -55 -38 -263 -250 rcurveline
          301 -305 56 -56 73 -15 54 -2 rlinecurve
          2 -8 0 -8 -2 -7 rrcurveto
          3 -69 -44 0 -69 hhcurveto
          -53 -78 -2 -2 -54 hvcurveto
          1 vlineto
          -3 7 1 8 2 8 rrcurveto
          65 2 13 9 22 vvcurveto
          14 -14 13 -12 13 vhcurveto
          -238 247 -39 -1 rlineto
          -90 2 -91 3 -91 vhcurveto
          1 -36 100 -7 62 -4 2 -8 1 -8 -3 -7 rrcurveto
          2 -64 -70 1 -66 hhcurveto
          -58 -57 -1 -2 -55 hvcurveto
          -2 8 -1 8 3 7 42 4 70 7 1 36 rrcurveto
          4 102 2 103 103 vvcurveto
          90 -1 91 -4 92 vhcurveto
          -1 36 -70 7 -42 4 -2 7 -1 9 3 7 rrcurveto
          -2 55 57 -2 58 hhcurveto
          66 70 2 2 64 hvcurveto
          2 -8 1 -7 -3 -8 -62 -4 -100 -7 -1 -36 rrcurveto
          -4 -89 -2 -88 -90 vvcurveto
          34 hlineto
          277 267 rlineto
          3 5 3 5 4 vvcurveto
          26 -31 3 -59 4 vhcurveto
          -2 7 -1 6 3 10 rrcurveto
          -2 55 32 -2 58 hhcurveto
          69 28 2 2 67 hvcurveto
          26 -42 rmoveto
          5 21 0 21 -5 18 -116 -4 -118 1 -113 5 -9 -24 1 -15 7 -23 rrcurveto
          56 -4 27 -2 -8 vvcurveto
          -222 -214 1 67 2 65 3 67 rlinecurve
          1 19 62 6 40 4 6 25 0 13 -7 22 rrcurveto
          -81 -49 -2 -49 hhcurveto
          -58 -74 4 1 -87 hvcurveto
          -7 -22 -1 -16 6 -25 40 -4 68 -6 1 -19 rrcurveto
          4 -92 1 -90 -90 vvcurveto
          -103 -1 -102 -5 -102 vhcurveto
          -1 -19 -66 -6 -40 -4 -10 -25 2 -15 8 -23 rrcurveto
          2 79 55 2 50 hhcurveto
          57 72 -2 -2 90 hvcurveto
          6 17 2 20 -5 23 -42 6 -67 7 -1 19 rrcurveto
          -3 69 -2 68 69 vvcurveto
          201 -209 7 -8 -4 vvcurveto
          -8 -15 -7 -60 -2 vhcurveto
          -5 -23 2 -20 6 -17 101 3 204 3 98 -6 5 18 0 21 -5 21 -46 2 -47 26 -44 44 -307 311 rcurveline
          224 214 49 33 64 6 55 4 rlinecurve
          endchar
        </CharString>
        <CharString name="L">
          279 767 -20 hstem
          154 135 -129 134 vstem
          251 375 rmoveto
          -94 1 -123 3 -128 vhcurveto
          176 hlineto
          199 80 93 82 44 hvcurveto
          8 -3 6 -4 3 -6 rrcurveto
          -125 -62 -56 -67 -167 hhcurveto
          -277 -98 -1 -2 -63 hvcurveto
          -2 8 0 7 2 8 42 4 70 7 1 36 rrcurveto
          4 102 2 103 103 vvcurveto
          90 -1 91 -4 92 vhcurveto
          -1 36 -70 7 -42 4 -2 7 -1 9 3 7 rrcurveto
          -2 55 57 -2 58 hhcurveto
          66 70 2 2 64 hvcurveto
          2 -8 1 -7 -3 -8 -62 -4 -100 -7 -1 -36 rrcurveto
          -3 -92 -2 -91 -90 vvcurveto
          74 -36 rmoveto
          104 1 102 5 102 vhcurveto
          1 19 68 6 40 4 6 25 0 13 -7 22 rrcurveto
          -81 -55 -2 -49 hhcurveto
          -58 -76 0 5 -85 hvcurveto
          -7 -22 -1 -16 6 -25 40 -4 68 -6 1 -19 rrcurveto
          4 -92 1 -90 -90 vvcurveto
          -103 -2 -102 -4 -102 vhcurveto
          -1 -19 -67 -6 -40 -4 -8 -27 2 -13 7 -22 rrcurveto
          2 63 158 1 66 hhcurveto
          394 hlineto
          10 77 27 60 45 75 -9 19 -21 11 -22 8 rrcurveto
          -83 -45 -83 -97 -187 hhcurveto
          -101 hlineto
          -3 116 -1 93 80 vvcurveto
          endchar
        </CharString>
        <CharString name="M">
          431 16 21 740 -20 21 -20 hstem
          174 27 491 141 -135 135 vstem
          152 74 rmoveto
          4 102 2 96 103 vvcurveto
          70 -1 77 -2 80 vhcurveto
          -2 80 -21 7 -72 10 -3 6 0 7 3 6 rrcurveto
          -1 23 86 -3 102 hhcurveto
          200 -543 208 543 rlineto
          122 70 1 2 64 hvcurveto
          3 -7 -1 -9 -2 -7 -62 -4 -100 -7 -1 -35 rrcurveto
          -3 -92 -1 -91 -90 vvcurveto
          -103 2 -103 4 -102 vhcurveto
          1 -35 100 -7 62 -4 2 -7 1 -9 -3 -7 rrcurveto
          2 -64 -70 1 -66 hhcurveto
          -58 -57 -1 -2 -55 hvcurveto
          -2 8 -1 8 3 7 42 4 69 7 2 36 rrcurveto
          4 90 1 91 90 vvcurveto
          88 -2 85 -3 88 vhcurveto
          -4 hlineto
          -223 -588 rlineto
          -5 hlineto
          -238 600 rlineto
          -5 hlineto
          -3 -89 -1 -101 -83 vvcurveto
          -90 2 -84 3 -91 vhcurveto
          1 -41 65 -9 42 -4 3 -7 -1 -8 -2 -8 rrcurveto
          2 -52 -58 1 -29 hhcurveto
          -37 -2 0 -3 -92 hvcurveto
          -2 8 -1 8 3 7 42 4 64 9 2 41 rrcurveto
          -20 hmoveto
          -1 -23 -61 -8 -40 -4 -10 -25 2 -15 8 -23 106 4 98 0 99 -4 8 23 2 15 -10 25 -45 4 -61 8 -1 23 rrcurveto
          -3 91 -2 84 90 vvcurveto
          190 vlineto
          213 -537 rlineto
          33 hlineto
          197 526 rlineto
          1 -57 0 -66 -56 vvcurveto
          -90 -1 -90 -4 -91 vhcurveto
          -1 -18 -66 -6 -40 -4 -10 -25 2 -15 8 -23 rrcurveto
          2 90 71 2 58 hhcurveto
          50 55 -2 -2 79 hvcurveto
          8 26 0 13 -6 24 -40 4 -68 6 -1 19 rrcurveto
          -5 101 -1 102 103 vvcurveto
          90 0 89 4 92 vhcurveto
          1 19 68 6 40 4 6 24 0 13 -8 26 rrcurveto
          -2 -79 -90 -2 -120 hhcurveto
          -165 -428 -160 428 rlineto
          -127 -98 2 3 -67 hvcurveto
          -11 -22 -1 -13 11 -24 67 -9 19 -6 2 -63 rrcurveto
          2 -80 1 -77 -70 vvcurveto
          -103 -2 -95 -4 -103 vhcurveto
          endchar
        </CharString>
        <CharString name="N">
          331 -2 21 -19 -20 771 -20 hstemhm
          155 27 513 22 hintmask 01111000
          632 312 rmoveto
          -338 422 rlineto
          -62 -114 1 4 -82 hvcurveto
          -6 -10 -3 -12 -11 vvcurveto
          -11 2 -10 5 -9 vhcurveto
          43 -3 29 -7 25 -20 rrcurveto
          3 -89 1 -97 -85 vvcurveto
          -103 0 -95 -6 -103 vhcurveto
          -1 -23 -61 -8 -40 -4 rrcurveto
          -5 -12 -2 -10 -9 vvcurveto
          -10 3 -10 4 -12 vhcurveto
          2 53 51 1 50 hhcurveto
          50 49 -1 -2 50 hvcurveto
          4 12 3 10 10 vvcurveto
          9 -2 10 -5 12 vhcurveto
          -45 4 -61 8 -1 23 rrcurveto
          -5 138 -1 85 179 25 1 24 19 vvcurveto
          463 -567 40 1 rlineto
          -4 92 -2 180 90 vvcurveto
          103 0 95 6 103 vhcurveto
          1 23 61 8 40 4 rrcurveto
          5 12 2 9 10 vvcurveto
          10 -3 8 -4 12 vhcurveto
          -2 -53 -51 -1 -50 hhcurveto
          -51 -49 1 2 -49 hvcurveto
          -4 -12 -3 -8 -10 vvcurveto
          -10 2 -9 5 -12 vhcurveto
          45 -4 61 -8 1 -23 rrcurveto
          3 -91 2 -84 -90 vvcurveto
          63 -36 rmoveto
          hintmask 10111000
          -90 1 -160 4 -92 vhcurveto
          -9 -1 -485 597 rlineto
          -5 hlineto
          -2 -84 -1 -92 -79 vvcurveto
          -90 2 -84 3 -91 vhcurveto
          1 -41 65 -9 42 -4 3 -7 -1 -8 -2 -8 rrcurveto
          2 -52 -58 1 -29 hhcurveto
          -37 -2 0 -3 -92 hvcurveto
          -2 8 -1 8 3 7 42 4 64 9 2 41 rrcurveto
          4 102 2 96 103 vvcurveto
          85 -1 106 -3 89 vhcurveto
          -30 26 -31 11 -43 3 -3 8 0 7 3 8 rrcurveto
          -3 54 72 -1 56 hhcurveto
          421 -516 rlineto
          1 56 1 53 69 vvcurveto
          90 -2 84 -3 91 vhcurveto
          -1 41 -65 9 -42 4 -3 7 1 8 2 8 rrcurveto
          -2 52 58 -1 29 hhcurveto
          37 2 0 3 92 hvcurveto
          2 -8 1 -8 -3 -7 -42 -4 -64 -9 -2 -41 rrcurveto
          -4 -102 -2 -96 -103 vvcurveto
          endchar
        </CharString>
        <CharString name="Ntilde">
          331 -2 21 -19 -20 771 -20 123 68 hstemhm
          155 27 192 354 -33 22 hintmask 10111100
          632 376 rmoveto
          90 -2 84 -3 91 vhcurveto
          -1 23 -61 8 -45 4 rrcurveto
          -5 12 -2 9 10 vvcurveto
          10 3 8 4 12 vhcurveto
          -2 49 49 -1 51 hhcurveto
          50 51 1 2 53 hvcurveto
          4 -12 3 -8 -10 vvcurveto
          -10 -2 -9 -5 -12 vhcurveto
          -40 -4 -61 -8 -1 -23 rrcurveto
          -6 -103 0 -95 -103 vvcurveto
          -90 2 -180 4 -92 vhcurveto
          -40 -1 -463 567 rlineto
          -19 -1 -24 -25 vvcurveto
          -179 1 -85 5 -138 vhcurveto
          1 -23 61 -8 45 -4 rrcurveto
          5 -12 2 -10 -9 vvcurveto
          -10 -3 -10 -4 -12 vhcurveto
          2 -50 -49 1 -50 hhcurveto
          -50 -51 -1 -2 -53 hvcurveto
          -4 12 -3 10 10 vvcurveto
          9 2 10 5 12 vhcurveto
          40 4 61 8 1 23 rrcurveto
          6 103 0 95 103 vvcurveto
          85 -1 97 -3 89 vhcurveto
          -25 20 -29 7 -43 3 rrcurveto
          -5 9 -2 10 11 vvcurveto
          11 3 12 6 10 vhcurveto
          -4 82 114 -1 62 hhcurveto
          338 -422 rlineto
          hintmask 01111010
          63 28 rmoveto
          103 2 96 4 102 vhcurveto
          2 41 64 9 42 4 3 7 -1 8 -2 8 rrcurveto
          -3 -92 -2 0 -37 hhcurveto
          -29 -58 1 2 -52 hvcurveto
          -2 -8 -1 -8 3 -7 42 -4 65 -9 1 -41 rrcurveto
          3 -91 2 -84 -90 vvcurveto
          -69 -1 -53 -1 -56 vhcurveto
          -421 516 rlineto
          -56 -72 1 3 -54 hvcurveto
          -3 -8 0 -7 3 -8 43 -3 31 -11 30 -26 rrcurveto
          3 -89 1 -106 -85 vvcurveto
          -103 -2 -96 -4 -102 vhcurveto
          -2 -41 -64 -9 -42 -4 -3 -7 1 -8 2 -8 rrcurveto
          3 92 2 0 37 hhcurveto
          29 58 -1 -2 52 hvcurveto
          2 8 1 8 -3 7 -42 4 -65 9 -1 41 rrcurveto
          -3 91 -2 84 90 vvcurveto
          79 1 92 2 84 vhcurveto
          5 hlineto
          485 -597 rlineto
          hintmask 10111100
          9 1 rlineto
          hintmask 10111010
          -4 92 -1 160 90 vvcurveto
          -106 601 rmoveto
          -50 -15 -31 -54 -63 -48 -42 30 -45 hhcurveto
          -20 -17 -7 -23 -18 hvcurveto
          -27 hlineto
          77 31 41 21 33 44 64 -30 33 hhcurveto
          19 23 10 26 8 hvcurveto
          -15 20 rmoveto
          -6 -18 -8 -10 -9 -5 rrcurveto
          19 -75 -34 8 -44 hhcurveto
          -40 -51 -29 -109 -44 hvcurveto
          102 hlineto
          11 14 9 8 9 4 rrcurveto
          -14 55 44 -12 52 hhcurveto
          75 40 75 69 21 hvcurveto
          endchar
        </CharString>
        <CharString name="O">
          369 -42 22 35 21 642 21 35 20 hstem
          55 20 109 75 407 20 109 75 vstem
          686 356 rmoveto
          150 -58 193 -183 -199 -62 -193 -150 -150 62 -191 199 183 58 191 150 vhcurveto
          -611 hmoveto
          300 226 78 144 136 214 -78 -300 -300 -214 -76 -136 -144 -226 76 300 vhcurveto
          591 hmoveto
          -136 -49 -172 -155 -12 vhcurveto
          -154 12 -49 172 136 vvcurveto
          136 49 174 154 12 vhcurveto
          155 -12 49 -174 -136 vvcurveto
          204 hmoveto
          263 -168 135 -240 -268 -139 -163 -235 -235 139 -163 268 240 168 135 263 vhcurveto
          endchar
        </CharString>
        <CharString name="OE">
          682 -9 41 -32 44 335 44 336 41 hstemhm
          54 113 413 98 234 37 111 38 hintmask 10111111
          549 61 rmoveto
          -183 -18 -107 143 170 vvcurveto
          136 49 175 156 11 vhcurveto
          33 -2 28 -10 25 -13 rrcurveto
          4 -92 0 -96 -90 vvcurveto
          -103 -1 -109 -4 -102 vhcurveto
          324 653 rmoveto
          167 61 -57 -125 62 hvcurveto
          -3 -6 -6 -4 -8 -3 rrcurveto
          82 -44 -85 83 -199 hhcurveto
          -155 hlineto
          -4 -127 -2 -89 -92 vvcurveto
          -2 54 53 0 52 hhcurveto
          87 25 68 82 43 hvcurveto
          8 -3 8 -4 3 -6 rrcurveto
          -27 -47 -22 -66 -40 vvcurveto
          -54 22 -53 27 -46 vhcurveto
          -3 -6 -8 -4 -8 -3 rrcurveto
          76 -42 -26 75 -87 hhcurveto
          -159 -1 rlineto
          -94 2 -90 3 -128 vhcurveto
          176 hlineto
          199 85 83 82 44 hvcurveto
          8 -3 6 -4 3 -6 rrcurveto
          hintmask 01111111
          -125 -62 -61 -57 -167 hhcurveto
          -314 hlineto
          -12 -41 -45 -8 -48 hhcurveto
          -144 -226 86 290 290 226 88 144 49 46 -8 -12 41 hvcurveto
          552 -734 rmoveto
          10 77 21 50 45 75 -9 19 -21 11 -22 8 rrcurveto
          -83 -45 -94 -87 -181 hhcurveto
          -101 hlineto
          -3 116 -1 67 80 vvcurveto
          88 hlineto
          60 -3 27 -46 30 -51 5 -10 15 -26 6 -10 20 7 20 11 10 20 rrcurveto
          -29 49 -23 55 49 vvcurveto
          36 23 67 29 50 vhcurveto
          -9 19 -21 11 -22 8 -21 -41 rcurveline
          -62 -31 -27 -52 -61 hhcurveto
          -29 -29 0 1 -31 hvcurveto
          83 2 81 3 105 vhcurveto
          80 hlineto
          181 94 -87 -83 45 hvcurveto
          22 8 21 11 9 19 -45 75 -21 50 -10 77 rrcurveto
          -495 hlineto
          10 -43 -42 10 -68 hhcurveto
          -167 -243 -82 -316 -305 238 -91 152 71 43 3 17 60 hvcurveto
          -50 685 rmoveto
          18 -34 -40 16 -50 hhcurveto
          -198 -63 -193 -150 -166 91 -150 212 35 24 3 6 23 hvcurveto
          4 102 1 121 103 vvcurveto
          90 -1 108 -4 92 vhcurveto
          endchar
        </CharString>
        <CharString name="Oacute">
          369 854 188 hstem
          212 205 vstem
          686 356 rmoveto
          150 -58 193 -183 -199 -62 -193 -150 -150 62 -191 199 183 58 191 150 vhcurveto
          -611 hmoveto
          300 226 78 144 136 214 -78 -300 -300 -214 -76 -136 -144 -226 76 300 vhcurveto
          591 hmoveto
          -136 -49 -172 -155 -12 vhcurveto
          -154 12 -49 172 136 vvcurveto
          136 49 174 154 12 vhcurveto
          155 -12 49 -174 -136 vvcurveto
          204 hmoveto
          263 -168 135 -240 -268 -139 -163 -235 -235 139 -163 268 240 168 135 263 vhcurveto
          -380 624 rmoveto
          15 12 16 8 17 hhcurveto
          25 17 -17 -25 -17 -7 -12 -11 -7 hvcurveto
          -173 -110 -14 18 rlineto
          -25 1 rmoveto
          33 -46 rlineto
          35 hlineto
          192 122 rlineto
          16 10 9 17 24 vvcurveto
          37 -25 25 -37 vhcurveto
          -35 hlineto
          -23 -21 -10 -21 -17 hvcurveto
          endchar
        </CharString>
        <CharString name="Ocircumflex">
          369 854 172 hstem
          412 305 vstem
          686 356 rmoveto
          150 -58 193 -183 -199 -62 -193 -150 -150 62 -191 199 183 58 191 150 vhcurveto
          -611 hmoveto
          300 226 78 144 136 214 -78 -300 -300 -214 -76 -136 -144 -226 76 300 vhcurveto
          591 hmoveto
          -136 -49 -172 -155 -12 vhcurveto
          -154 12 -49 172 136 vvcurveto
          136 49 174 154 12 vhcurveto
          155 -12 49 -174 -136 vvcurveto
          204 hmoveto
          263 -168 135 -240 -268 -139 -163 -235 -235 139 -163 268 240 168 135 263 vhcurveto
          -533 451 rmoveto
          -36 hlineto
          125 162 rlineto
          58 hlineto
          125 -162 rlineto
          -36 hlineto
          -118 87 rlineto
          111 -107 rmoveto
          118 hlineto
          -155 202 rlineto
          -113 hlineto
          -155 -202 rlineto
          118 hlineto
          93 69 rlineto
          endchar
        </CharString>
        <CharString name="Odieresis">
          369 854 109 hstem
          396 108 67 109 vstem
          686 356 rmoveto
          150 -58 193 -183 -199 -62 -193 -150 -150 62 -191 199 183 58 191 150 vhcurveto
          -611 hmoveto
          300 226 78 144 136 214 -78 -300 -300 -214 -76 -136 -144 -226 76 300 vhcurveto
          591 hmoveto
          -136 -49 -172 -155 -12 vhcurveto
          -154 12 -49 172 136 vvcurveto
          136 49 174 154 12 vhcurveto
          155 -12 49 -174 -136 vvcurveto
          204 hmoveto
          263 -168 135 -240 -268 -139 -163 -235 -235 139 -163 268 240 168 135 263 vhcurveto
          -575 536 rmoveto
          33 24 27 29 29 24 -27 -33 -33 -24 -27 -29 -29 -24 27 33 vhcurveto
          182 hmoveto
          33 24 27 29 29 24 -27 -33 -33 -24 -27 -29 -29 -24 27 33 vhcurveto
          60 80 rmoveto
          -35 -30 -23 -31 -11 hvcurveto
          32 -9 -30 22 -67 hhcurveto
          -44 -36 -36 -44 -44 36 -36 44 67 30 21 32 9 hvcurveto
          -31 11 30 -22 35 hhcurveto
          84 26 34 46 46 -26 34 -84 hvcurveto
          endchar
        </CharString>
        <CharString name="Ograve">
          369 854 188 hstem
          257 205 vstem
          686 356 rmoveto
          150 -58 193 -183 -199 -62 -193 -150 -150 62 -191 199 183 58 191 150 vhcurveto
          -611 hmoveto
          300 226 78 144 136 214 -78 -300 -300 -214 -76 -136 -144 -226 76 300 vhcurveto
          591 hmoveto
          -136 -49 -172 -155 -12 vhcurveto
          -154 12 -49 172 136 vvcurveto
          136 49 174 154 12 vhcurveto
          155 -12 49 -174 -136 vvcurveto
          204 hmoveto
          263 -168 135 -240 -268 -139 -163 -235 -235 139 -163 268 240 168 135 263 vhcurveto
          -343 477 rmoveto
          -14 -18 -173 110 rlineto
          -11 7 -7 12 17 vvcurveto
          25 17 17 25 17 16 -8 -15 12 vhcurveto
          50 13 rmoveto
          20 -16 -21 10 -58 hhcurveto
          -37 -25 -25 -37 -25 9 -16 16 -10 hvcurveto
          192 -122 rlineto
          35 hlineto
          33 46 rlineto
          endchar
        </CharString>
        <CharString name="Oslash">
          369 -9 44 721 44 hstem
          53 113 575 113 vstem
          686 356 rmoveto
          72 -14 82 -34 65 vhcurveto
          -354 -495 rlineto
          -37 40 51 -28 70 hhcurveto
          183 58 191 150 hvcurveto
          -502 hmoveto
          -74 16 -85 48 -74 vhcurveto
          359 500 rlineto
          46 -38 -52 30 -72 hhcurveto
          -199 -62 -193 -150 hvcurveto
          508 294 rmoveto
          58 -57 45 -93 -144 vvcurveto
          -300 -214 -76 -136 -60 -73 13 36 -66 vhcurveto
          -84 -118 -43 32 83 116 rlineto
          -73 57 -54 93 147 vvcurveto
          300 226 78 144 61 75 -14 -39 67 vhcurveto
          79 110 43 -32 -78 -109 rlineto
          -441 -648 rmoveto
          -32 83 61 -10 67 hhcurveto
          170 238 80 316 141 -49 96 -89 80 hvcurveto
          66 91 -76 55 -71 -100 rlineto
          26 -59 -61 9 -68 hhcurveto
          -170 -238 -82 -316 -143 50 -97 70 -61 hvcurveto
          -84 -117 76 -55 rlineto
          92 473 rmoveto
          136 49 175 156 11 vhcurveto
          49 -5 40 -20 29 -31 -301 -418 rcurveline
          -16 49 -6 53 50 vvcurveto
          407 hmoveto
          -137 -50 -173 -156 -11 vhcurveto
          -47 4 -55 24 -32 41 310 437 rcurveline
          18 -53 12 -85 -47 vvcurveto
          endchar
        </CharString>
        <CharString name="Otilde">
          369 854 68 -38 69 hstem
          393 354 vstem
          686 356 rmoveto
          150 -58 193 -183 -199 -62 -193 -150 -150 62 -191 199 183 58 191 150 vhcurveto
          -611 hmoveto
          300 226 78 144 136 214 -78 -300 -300 -214 -76 -136 -144 -226 76 300 vhcurveto
          591 hmoveto
          -136 -49 -172 -155 -12 vhcurveto
          -154 12 -49 172 136 vvcurveto
          136 49 174 154 12 vhcurveto
          155 -12 49 -174 -136 vvcurveto
          204 hmoveto
          263 -168 135 -240 -268 -139 -163 -235 -235 139 -163 268 240 168 135 263 vhcurveto
          -262 585 rmoveto
          -50 -15 -31 -54 -63 -48 -42 30 -45 hhcurveto
          -20 -17 -7 -23 -18 hvcurveto
          -27 hlineto
          77 31 41 21 33 44 64 -30 33 hhcurveto
          19 23 10 26 8 hvcurveto
          -15 20 rmoveto
          -6 -18 -8 -10 -9 -5 rrcurveto
          19 -75 -34 8 -44 hhcurveto
          -40 -51 -29 -109 -44 hvcurveto
          102 hlineto
          11 14 9 8 9 4 rrcurveto
          -14 55 44 -12 52 hhcurveto
          75 40 75 69 21 hvcurveto
          endchar
        </CharString>
        <CharString name="P">
          140 -20 20 20 16 -16 19 238 20 42 20 306 21 -10 19 23 20 hstemhm
          28 21 -15 16 98 20 87 75 91 26 26 20 107 75 hintmask 1001110101110110
          258 684 rmoveto
          -2 -117 -1 -104 -106 vvcurveto
          -12 32 33 -6 35 hhcurveto
          94 44 66 101 97 -37 83 -141 -17 -20 -1 -1 -20 hvcurveto
          -116 -616 rmoveto
          -1 -19 -66 -6 -40 -4 -10 -25 2 -15 8 -23 rrcurveto
          2 79 57 2 50 hhcurveto
          57 72 -2 -2 90 hvcurveto
          hintmask 1011110110110110
          8 25 1 14 -6 21 -42 6 -67 7 -1 18 rrcurveto
          hintmask 1001110110111110
          -3 78 0 68 70 vvcurveto
          -5 23 22 -1 18 hhcurveto
          163 119 82 146 hvcurveto
          hintmask 1101110101111110
          136 -92 97 -185 -119 -127 -4 5 -116 vhcurveto
          -7 -22 -1 -16 6 -25 40 -4 68 -6 1 -19 rrcurveto
          4 -92 1 -90 -90 vvcurveto
          -103 -1 -102 -5 -102 vhcurveto
          331 438 rmoveto
          hintmask 1001101101110110
          -84 -34 -56 -70 -7 vhcurveto
          -13 1 -13 3 -13 6 rrcurveto
          100 0 88 2 108 vhcurveto
          hintmask 1011110110110110
          111 -6 30 -71 -82 vvcurveto
          -311 -439 rmoveto
          4 102 2 103 103 vvcurveto
          hintmask 1001101101110110
          90 -1 91 -4 92 vhcurveto
          -2 36 -69 7 -42 4 rrcurveto
          hintmask 1101110101111110
          -2 7 -1 9 3 7 rrcurveto
          -7 103 102 7 108 hhcurveto
          158 79 -89 -124 -117 -70 -91 -137 -35 -53 5 22 -50 hvcurveto
          -82 1 -83 2 -92 vhcurveto
          1 -36 100 -7 62 -4 rrcurveto
          hintmask 1001110110111110
          2 -8 1 -8 -3 -7 rrcurveto
          2 -64 -70 1 -66 hhcurveto
          -58 -59 -1 -2 -55 hvcurveto
          hintmask 1011110110110110
          -2 8 -1 8 3 7 42 4 70 7 1 36 rrcurveto
          endchar
        </CharString>
        <CharString name="Q">
          369 -205 21 957 -20 hstem
          75 157 460 157 vstem
          686 356 rmoveto
          150 -58 193 -183 -198 -63 -193 -150 -150 63 -191 198 183 58 191 150 vhcurveto
          151 -554 rmoveto
          -160 53 -49 62 -29 58 rrcurveto
          138 37 133 104 240 vvcurveto
          281 -192 117 -233 -152 -238 -82 -316 -262 158 -99 143 -27 vhcurveto
          -180 102 166 -46 210 hhcurveto
          8 25 1 14 -6 21 rrcurveto
          -171 554 rmoveto
          -136 -49 -172 -155 -12 vhcurveto
          -154 12 -49 172 136 vvcurveto
          136 49 174 154 12 vhcurveto
          155 -12 49 -174 -136 vvcurveto
          156 -571 rmoveto
          3 -7 -1 -9 -3 -7 -180 6 -141 89 -61 123 rrcurveto
          -224 5 -140 151 220 vvcurveto
          300 226 78 144 136 214 -78 -300 -242 -130 -79 -108 -39 vhcurveto
          34 -66 57 -92 174 -53 rrcurveto
          endchar
        </CharString>
        <CharString name="R">
          257 -20 20 20 16 -16 19 242 20 37 21 306 21 -10 19 23 20 hstemhm
          28 21 -15 16 98 20 83 75 93 26 23 20 107 75 123 25 hintmask 1001110101110111
          256 684 rmoveto
          -3 -98 -2 -137 -100 vvcurveto
          -8 32 30 -3 27 hhcurveto
          111 37 99 84 93 -51 72 -102 -30 -18 0 -2 -30 hvcurveto
          211 -163 rmoveto
          -71 -29 -82 -83 -9 vhcurveto
          -10 1 -10 1 -10 3 rrcurveto
          94 2 113 2 94 vhcurveto
          87 7 51 -72 -79 vvcurveto
          hintmask 1011101101110111
          -306 -454 rmoveto
          4 102 2 103 103 vvcurveto
          90 -1 91 -4 92 vhcurveto
          -1 36 -70 7 -42 4 rrcurveto
          hintmask 1011110101110111
          -2 7 0 9 2 7 rrcurveto
          -6 113 104 6 115 hhcurveto
          136 77 -83 -114 -93 -58 -80 -97 -32 hvcurveto
          27 -48 30 -44 33 -41 99 -123 60 -32 104 -8 rrcurveto
          hintmask 1001110101110111
          2 -7 1 -9 -3 -7 -76 3 -77 -1 -76 1 -74 86 -73 96 -64 119 rrcurveto
          -32 -35 4 7 -35 hvcurveto
          hintmask 1101110101111111
          -82 2 -81 3 -82 vhcurveto
          1 -36 100 -7 62 -4 rrcurveto
          hintmask 1001110110111111
          2 -8 1 -8 -3 -7 rrcurveto
          2 -64 -70 1 -66 hhcurveto
          -58 -57 -1 -2 -55 hvcurveto
          hintmask 1011110110110111
          -2 8 -1 8 3 7 rrcurveto
          hintmask 1011101101110111
          42 4 70 7 1 36 rrcurveto
          -20 1 rmoveto
          hintmask 1011110110110111
          -1 -19 -66 -6 -40 -4 rrcurveto
          hintmask 1001110110111111
          -10 -25 2 -15 8 -23 rrcurveto
          2 79 55 2 50 hhcurveto
          57 72 -2 -2 90 hvcurveto
          hintmask 1101110101111111
          8 25 1 14 -6 21 -42 6 -67 7 -1 19 rrcurveto
          -3 73 -2 67 73 vvcurveto
          15 hlineto
          hintmask 1001110101110111
          63 -115 75 -97 76 -89 83 -1 94 -1 80 -2 rrcurveto
          hintmask 1011110101110111
          8 26 0 14 -6 23 -88 9 -65 67 -60 80 -28 36 -26 37 -23 38 rrcurveto
          90 40 56 83 92 vvcurveto
          126 -92 91 -161 -125 -135 -5 6 -121 vhcurveto
          hintmask 1001101101110111
          -7 -22 -1 -16 6 -25 40 -4 68 -6 1 -19 rrcurveto
          4 -92 1 -90 -90 vvcurveto
          hintmask 1011101101110111
          -103 -1 -102 -5 -102 vhcurveto
          endchar
        </CharString>
        <CharString name="S">
          126 -40 20 36 21 226 19 207 22 167 21 35 20 hstemhm
          63 20 -7 20 72 75 208 20 68 12 6 75 hintmask 1110110111010000
          331 754 rmoveto
          -110 -145 -47 -174 hvcurveto
          -269 375 115 -218 vvcurveto
          -67 -41 -51 -80 -6 vhcurveto
          hintmask 1110111011010000
          -74 8 -84 69 -26 159 -35 12 -31 1 -32 -15 rrcurveto
          10 -61 5 -57 -52 vvcurveto
          -22 -2 -34 -1 -21 vhcurveto
          -27 60 97 -37 130 hhcurveto
          124 161 76 169 hvcurveto
          326 -389 -159 209 vvcurveto
          53 36 38 67 6 vhcurveto
          hintmask 1111110111100000
          120 -16 16 -117 24 -56 20 2 24 11 13 11 -13 57 -8 59 23 80 rrcurveto
          hintmask 1110110111010000
          15 -117 10 30 -127 hhcurveto
          -20 vmoveto
          hintmask 1111110111100000
          100 85 -46 -170 23 hvcurveto
          -2 -3 -10 -5 -9 1 rrcurveto
          77 -21 -44 111 -122 hhcurveto
          -106 -57 -56 -82 hvcurveto
          hintmask 1110111011010000
          -222 389 115 -269 vvcurveto
          -141 -139 -64 -106 -92 -87 32 24 -52 vhcurveto
          1 21 1 22 22 vvcurveto
          52 -4 54 -9 53 vhcurveto
          9 4 7 0 7 -4 rrcurveto
          -175 29 104 -69 86 hhcurveto
          105 54 61 84 hvcurveto
          hintmask 1110110111010000
          234 -375 -105 243 vvcurveto
          158 134 43 101 vhcurveto
          endchar
        </CharString>
        <CharString name="T">
          294 -20 20 20 19 622 22 -19 21 30 19 hstemhm
          69 18 129 21 98 20 84 75 93 19 hintmask 1001011111000000
          41 494 rmoveto
          hintmask 1110011111000000
          45 73 76 72 169 22 rrcurveto
          3 -96 1 -85 -103 vvcurveto
          -107 -1 -105 -4 -98 vhcurveto
          -1 -18 -66 -6 -40 -4 rrcurveto
          hintmask 1001011111000000
          -10 -25 2 -15 8 -23 rrcurveto
          2 90 71 2 58 hhcurveto
          50 55 -2 -2 79 hvcurveto
          hintmask 1101011111000000
          8 26 0 13 -6 24 -40 4 -68 6 -1 19 rrcurveto
          -5 97 0 105 107 vvcurveto
          96 1 100 3 91 vhcurveto
          181 94 -87 -83 45 hvcurveto
          22 8 21 11 9 19 rrcurveto
          hintmask 1001111111000000
          -45 75 -21 50 -10 77 rrcurveto
          -407 hlineto
          -338 hlineto
          -10 -81 -27 -46 -40 -75 rrcurveto
          hintmask 1001011111000000
          9 -18 17 -11 23 -9 rrcurveto
          hintmask 1010111111000000
          138 187 rmoveto
          -46 -1 -45 -71 -56 -90 -8 3 -6 4 -3 6 28 54 35 59 9 70 rrcurveto
          104 110 -1 106 hhcurveto
          167 hlineto
          167 61 -57 -125 62 hvcurveto
          -3 -6 -6 -4 -8 -3 rrcurveto
          hintmask 1101011111000000
          -44 82 -85 78 -199 5 -75 2 rcurveline
          -4 -97 -1 -107 -105 vvcurveto
          -107 2 -106 3 -97 vhcurveto
          1 -36 100 -7 62 -4 rrcurveto
          hintmask 1001011111000000
          2 -7 1 -9 -3 -7 rrcurveto
          2 -64 -70 1 -66 hhcurveto
          -58 -57 -1 -2 -55 hvcurveto
          hintmask 1110011111000000
          -2 8 -1 8 3 7 42 4 70 7 1 36 rrcurveto
          4 97 1 106 107 vvcurveto
          105 -2 107 -3 97 vhcurveto
          endchar
        </CharString>
        <CharString name="Thorn">
          151 0 38 95 44 468 44 64 38 hstem
          139 97 358 113 vstem
          364 541 rmoveto
          -63 -24 -6 -7 -24 hvcurveto
          -3 -110 -1 -102 3 -101 rrcurveto
          -9 34 35 -2 38 hhcurveto
          94 44 73 101 97 -37 66 -96 hvcurveto
          -108 107 rmoveto
          -1 -28 -1 -29 -28 vvcurveto
          13 35 48 7 66 hhcurveto
          124 77 -82 -124 -117 -69 -98 -138 -37 -55 2 19 -53 hvcurveto
          1 -38 1 -39 2 -39 1 -36 100 -7 62 -4 2 -8 1 -8 -3 -7 rrcurveto
          2 -64 -70 1 -66 hhcurveto
          -58 -57 -1 -2 -55 hvcurveto
          -2 8 -1 8 3 7 rrcurveto
          42 4 71 7 36 vvcurveto
          1 191 1 193 -1 197 rrcurveto
          36 -72 7 -42 4 vhcurveto
          -2 7 -1 9 3 7 rrcurveto
          -2 55 57 -2 58 hhcurveto
          66 70 2 2 64 hvcurveto
          2 -8 1 -7 -3 -8 -62 -4 -100 -7 -1 -36 rrcurveto
          221 -270 rmoveto
          -85 -35 -63 -72 -6 vhcurveto
          -15 1 -15 2 -14 3 -2 96 0 94 3 93 11 3 15 3 23 1 rrcurveto
          73 -5 28 -57 -80 vvcurveto
          -146 269 rmoveto
          1 19 68 6 40 4 6 25 0 13 -7 22 rrcurveto
          -81 -55 -2 -49 hhcurveto
          -58 -74 4 1 -87 hvcurveto
          -7 -22 -1 -16 6 -25 rrcurveto
          40 -4 69 -6 -19 vvcurveto
          4 -194 0 -193 -4 -192 -1 -19 -66 -6 -40 -4 -10 -25 2 -15 8 -23 rrcurveto
          2 79 55 2 50 hhcurveto
          57 72 -2 -2 90 hvcurveto
          8 25 1 14 -6 21 -42 6 -67 7 -1 19 -2 26 -1 26 -1 27 rrcurveto
          -5 26 52 0 27 hhcurveto
          164 83 107 128 136 -93 90 -148 -27 -60 -2 -3 -21 hvcurveto
          17 0 15 1 17 vhcurveto
          endchar
        </CharString>
        <CharString name="U">
          362 -40 20 46 20 631 19 18 24 -23 20 5 -20 hstemhm
          10 20 98 20 87 75 90 25 138 21 91 20 46 20 93 21 hintmask 1100101111111100
          hintmask 1110101111111100
          123 648 rmoveto
          4 -94 1 -91 -172 vvcurveto
          -272 140 -59 194 119 180 67 264 114 -1 122 6 113 vhcurveto
          1 24 61 8 40 4 rrcurveto
          hintmask 1101001111111100
          5 11 2 10 9 vvcurveto
          10 -3 9 -4 12 vhcurveto
          hintmask 1100101111111100
          -2 -54 -41 -1 -38 hhcurveto
          hintmask 1101001111111100
          -50 -46 2 2 -69 hvcurveto
          hintmask 1110101111111100
          -5 -14 -2 -10 -11 vvcurveto
          -7 1 -8 3 -9 vhcurveto
          41 -6 63 -9 1 -24 rrcurveto
          3 -117 0 -115 -117 vvcurveto
          -151 -72 -86 -126 -8 vhcurveto
          -123 7 -44 78 160 vvcurveto
          255 -1 51 3 51 vhcurveto
          1 19 68 6 40 4 rrcurveto
          hintmask 1100101111111100
          3 12 1 9 9 vvcurveto
          9 -1 9 -4 12 vhcurveto
          -81 -55 -2 -49 hhcurveto
          hintmask 1101001111111100
          -58 -74 4 1 -87 hvcurveto
          hintmask 1110101111111100
          -4 -12 -2 -11 -11 vvcurveto
          -9 1 -9 3 -11 vhcurveto
          40 -4 68 -6 1 -19 rrcurveto
          114 1 rmoveto
          -2 -66 0 -66 -226 vvcurveto
          -181 58 -84 167 150 85 94 171 117 0 116 -3 117 vhcurveto
          -1 41 -65 8 -42 4 rrcurveto
          hintmask 1100101111111100
          -2 8 -1 8 3 7 rrcurveto
          -2 52 58 -1 29 hhcurveto
          37 2 0 3 92 hvcurveto
          hintmask 1110011111111100
          2 -8 1 -8 -3 -7 -42 -4 -64 -8 -2 -41 rrcurveto
          -5 -116 0 -117 -117 vvcurveto
          -248 -168 -63 -111 -182 -132 55 256 172 -2 92 -3 93 vhcurveto
          -1 37 -70 7 -42 4 -2 7 -1 9 3 7 rrcurveto
          hintmask 1100101111111100
          -2 55 57 -2 58 hhcurveto
          66 70 2 2 64 hvcurveto
          hintmask 1110101111111100
          2 -8 1 -7 -3 -8 -62 -4 -100 -7 -1 -36 rrcurveto
          endchar
        </CharString>
        <CharString name="Uacute">
          362 854 188 hstem
          279 205 vstem
          123 648 rmoveto
          4 -94 1 -91 -172 vvcurveto
          -272 140 -59 194 119 180 67 264 114 -1 122 6 113 vhcurveto
          1 24 61 8 40 4 rrcurveto
          5 11 2 10 9 vvcurveto
          10 -3 9 -4 12 vhcurveto
          -2 -54 -41 -1 -38 hhcurveto
          -50 -46 2 2 -69 hvcurveto
          -5 -14 -2 -10 -11 vvcurveto
          -7 1 -8 3 -9 vhcurveto
          41 -6 63 -9 1 -24 rrcurveto
          3 -117 0 -115 -117 vvcurveto
          -151 -72 -86 -126 -8 vhcurveto
          -123 7 -44 78 160 vvcurveto
          255 -1 51 3 51 vhcurveto
          1 19 68 6 40 4 rrcurveto
          3 12 1 9 9 vvcurveto
          9 -1 9 -4 12 vhcurveto
          -81 -55 -2 -49 hhcurveto
          -58 -74 4 1 -87 hvcurveto
          -4 -12 -2 -11 -11 vvcurveto
          -9 1 -9 3 -11 vhcurveto
          40 -4 68 -6 1 -19 rrcurveto
          114 1 rmoveto
          -2 -66 0 -66 -226 vvcurveto
          -181 58 -84 167 150 85 94 171 117 0 116 -3 117 vhcurveto
          -1 41 -65 8 -42 4 -2 8 -1 8 3 7 rrcurveto
          -2 52 58 -1 29 hhcurveto
          37 2 0 3 92 hvcurveto
          2 -8 1 -8 -3 -7 -42 -4 -64 -8 -2 -41 rrcurveto
          -5 -116 0 -117 -117 vvcurveto
          -248 -168 -63 -111 -182 -132 55 256 172 -2 92 -3 93 vhcurveto
          -1 37 -70 7 -42 4 -2 7 -1 9 3 7 rrcurveto
          -2 55 57 -2 58 hhcurveto
          66 70 2 2 64 hvcurveto
          2 -8 1 -7 -3 -8 -62 -4 -100 -7 -1 -36 rrcurveto
          320 331 rmoveto
          15 12 16 8 17 hhcurveto
          25 17 -17 -25 -17 -7 -12 -11 -7 hvcurveto
          -173 -110 -14 18 rlineto
          -25 1 rmoveto
          33 -46 rlineto
          35 hlineto
          192 122 rlineto
          16 10 9 17 24 vvcurveto
          37 -25 25 -37 vhcurveto
          -35 hlineto
          -23 -21 -10 -21 -17 hvcurveto
          endchar
        </CharString>
        <CharString name="Ucircumflex">
          362 854 172 hstem
          428 305 vstem
          123 648 rmoveto
          4 -94 1 -91 -172 vvcurveto
          -272 140 -59 194 119 180 67 264 114 -1 122 6 113 vhcurveto
          1 24 61 8 40 4 rrcurveto
          5 11 2 10 9 vvcurveto
          10 -3 9 -4 12 vhcurveto
          -2 -54 -41 -1 -38 hhcurveto
          -50 -46 2 2 -69 hvcurveto
          -5 -14 -2 -10 -11 vvcurveto
          -7 1 -8 3 -9 vhcurveto
          41 -6 63 -9 1 -24 rrcurveto
          3 -117 0 -115 -117 vvcurveto
          -151 -72 -86 -126 -8 vhcurveto
          -123 7 -44 78 160 vvcurveto
          255 -1 51 3 51 vhcurveto
          1 19 68 6 40 4 rrcurveto
          3 12 1 9 9 vvcurveto
          9 -1 9 -4 12 vhcurveto
          -81 -55 -2 -49 hhcurveto
          -58 -74 4 1 -87 hvcurveto
          -4 -12 -2 -11 -11 vvcurveto
          -9 1 -9 3 -11 vhcurveto
          40 -4 68 -6 1 -19 rrcurveto
          114 1 rmoveto
          -2 -66 0 -66 -226 vvcurveto
          -181 58 -84 167 150 85 94 171 117 0 116 -3 117 vhcurveto
          -1 41 -65 8 -42 4 -2 8 -1 8 3 7 rrcurveto
          -2 52 58 -1 29 hhcurveto
          37 2 0 3 92 hvcurveto
          2 -8 1 -8 -3 -7 -42 -4 -64 -8 -2 -41 rrcurveto
          -5 -116 0 -117 -117 vvcurveto
          -248 -168 -63 -111 -182 -132 55 256 172 -2 92 -3 93 vhcurveto
          -1 37 -70 7 -42 4 -2 7 -1 9 3 7 rrcurveto
          -2 55 57 -2 58 hhcurveto
          66 70 2 2 64 hvcurveto
          2 -8 1 -7 -3 -8 -62 -4 -100 -7 -1 -36 rrcurveto
          116 158 rmoveto
          -36 hlineto
          125 162 rlineto
          58 hlineto
          125 -162 rlineto
          -36 hlineto
          -118 87 rlineto
          111 -107 rmoveto
          118 hlineto
          -155 202 rlineto
          -113 hlineto
          -155 -202 rlineto
          118 hlineto
          93 69 rlineto
          endchar
        </CharString>
        <CharString name="Udieresis">
          362 854 109 hstem
          403 108 67 109 vstem
          123 648 rmoveto
          4 -94 1 -91 -172 vvcurveto
          -272 140 -59 194 119 180 67 264 114 -1 122 6 113 vhcurveto
          1 24 61 8 40 4 rrcurveto
          5 11 2 10 9 vvcurveto
          10 -3 9 -4 12 vhcurveto
          -2 -54 -41 -1 -38 hhcurveto
          -50 -46 2 2 -69 hvcurveto
          -5 -14 -2 -10 -11 vvcurveto
          -7 1 -8 3 -9 vhcurveto
          41 -6 63 -9 1 -24 rrcurveto
          3 -117 0 -115 -117 vvcurveto
          -151 -72 -86 -126 -8 vhcurveto
          -123 7 -44 78 160 vvcurveto
          255 -1 51 3 51 vhcurveto
          1 19 68 6 40 4 rrcurveto
          3 12 1 9 9 vvcurveto
          9 -1 9 -4 12 vhcurveto
          -81 -55 -2 -49 hhcurveto
          -58 -74 4 1 -87 hvcurveto
          -4 -12 -2 -11 -11 vvcurveto
          -9 1 -9 3 -11 vhcurveto
          40 -4 68 -6 1 -19 rrcurveto
          114 1 rmoveto
          -2 -66 0 -66 -226 vvcurveto
          -181 58 -84 167 150 85 94 171 117 0 116 -3 117 vhcurveto
          -1 41 -65 8 -42 4 -2 8 -1 8 3 7 rrcurveto
          -2 52 58 -1 29 hhcurveto
          37 2 0 3 92 hvcurveto
          2 -8 1 -8 -3 -7 -42 -4 -64 -8 -2 -41 rrcurveto
          -5 -116 0 -117 -117 vvcurveto
          -248 -168 -63 -111 -182 -132 55 256 172 -2 92 -3 93 vhcurveto
          -1 37 -70 7 -42 4 -2 7 -1 9 3 7 rrcurveto
          -2 55 57 -2 58 hhcurveto
          66 70 2 2 64 hvcurveto
          2 -8 1 -7 -3 -8 -62 -4 -100 -7 -1 -36 rrcurveto
          65 243 rmoveto
          33 24 27 29 29 24 -27 -33 -33 -24 -27 -29 -29 -24 27 33 vhcurveto
          182 hmoveto
          33 24 27 29 29 24 -27 -33 -33 -24 -27 -29 -29 -24 27 33 vhcurveto
          60 80 rmoveto
          -35 -30 -23 -31 -11 hvcurveto
          32 -9 -30 22 -67 hhcurveto
          -44 -36 -36 -44 -44 36 -36 44 67 30 21 32 9 hvcurveto
          -31 11 30 -22 35 hhcurveto
          84 26 34 46 46 -26 34 -84 hvcurveto
          endchar
        </CharString>
        <CharString name="Ugrave">
          362 854 188 hstem
          224 205 vstem
          123 648 rmoveto
          4 -94 1 -91 -172 vvcurveto
          -272 140 -59 194 119 180 67 264 114 -1 122 6 113 vhcurveto
          1 24 61 8 40 4 rrcurveto
          5 11 2 10 9 vvcurveto
          10 -3 9 -4 12 vhcurveto
          -2 -54 -41 -1 -38 hhcurveto
          -50 -46 2 2 -69 hvcurveto
          -5 -14 -2 -10 -11 vvcurveto
          -7 1 -8 3 -9 vhcurveto
          41 -6 63 -9 1 -24 rrcurveto
          3 -117 0 -115 -117 vvcurveto
          -151 -72 -86 -126 -8 vhcurveto
          -123 7 -44 78 160 vvcurveto
          255 -1 51 3 51 vhcurveto
          1 19 68 6 40 4 rrcurveto
          3 12 1 9 9 vvcurveto
          9 -1 9 -4 12 vhcurveto
          -81 -55 -2 -49 hhcurveto
          -58 -74 4 1 -87 hvcurveto
          -4 -12 -2 -11 -11 vvcurveto
          -9 1 -9 3 -11 vhcurveto
          40 -4 68 -6 1 -19 rrcurveto
          114 1 rmoveto
          -2 -66 0 -66 -226 vvcurveto
          -181 58 -84 167 150 85 94 171 117 0 116 -3 117 vhcurveto
          -1 41 -65 8 -42 4 -2 8 -1 8 3 7 rrcurveto
          -2 52 58 -1 29 hhcurveto
          37 2 0 3 92 hvcurveto
          2 -8 1 -8 -3 -7 -42 -4 -64 -8 -2 -41 rrcurveto
          -5 -116 0 -117 -117 vvcurveto
          -248 -168 -63 -111 -182 -132 55 256 172 -2 92 -3 93 vhcurveto
          -1 37 -70 7 -42 4 -2 7 -1 9 3 7 rrcurveto
          -2 55 57 -2 58 hhcurveto
          66 70 2 2 64 hvcurveto
          2 -8 1 -7 -3 -8 -62 -4 -100 -7 -1 -36 rrcurveto
          257 184 rmoveto
          -14 -18 -173 110 rlineto
          -11 7 -7 12 17 vvcurveto
          25 17 17 25 17 16 -8 -15 12 vhcurveto
          50 13 rmoveto
          20 -16 -21 10 -58 hhcurveto
          -37 -25 -25 -37 -25 9 -16 16 -10 hvcurveto
          192 -122 rlineto
          35 hlineto
          33 46 rlineto
          endchar
        </CharString>
        <CharString name="V">
          282 -10 21 719 -20 21 -20 hstem
          832 676 rmoveto
          6 25 -1 16 -7 22 -97 -5 -108 0 -100 4 -7 -22 -1 -16 6 -25 54 -5 56 -7 -9 -23 -155 -389 rcurveline
          -167 389 -9 24 13 5 84 6 rlinecurve
          6 21 1 21 -7 20 -125 -4 -143 2 -124 4 -7 -22 -1 -16 6 -25 42 -4 56 -11 15 -34 289 -661 rcurveline
          50 hlineto
          269 668 13 32 49 6 53 4 rlinecurve
          -16 19 rmoveto
          -50 -4 -47 -9 -21 -41 -264 -655 rcurveline
          -23 hlineto
          -284 649 -19 43 -54 13 -42 4 rlinecurve
          -2 7 -1 9 3 7 117 -4 125 -2 117 6 3 -7 -1 -9 -2 -7 -135 -9 -28 -5 20 -46 216 -502 rcurveline
          202 508 18 44 -84 7 -40 3 rlinecurve
          -2 7 -1 9 3 7 rrcurveto
          -2 54 57 -1 34 hhcurveto
          29 59 1 2 43 hvcurveto
          3 -7 -1 -9 -2 -7 rrcurveto
          endchar
        </CharString>
        <CharString name="W">
          546 -6 21 -15 -20 hstem
          321 676 rmoveto
          7 19 0 23 -7 16 rrcurveto
          -324 hlineto
          -7 -16 0 -23 7 -19 59 -6 35 -9 14 -34 273 -661 rcurveline
          49 hlineto
          127 337 131 -337 rlineto
          50 hlineto
          250 661 17 45 52 0 57 4 rlinecurve
          7 19 0 23 -7 16 rrcurveto
          -290 hlineto
          -7 -16 0 -23 7 -19 59 -5 27 -6 -14 -38 -137 -367 rcurveline
          -140 367 -10 26 11 20 76 3 rlinecurve
          7 19 0 23 -7 16 rrcurveto
          -345 hlineto
          -7 -16 0 -23 7 -19 45 -3 17 -11 14 -34 84 -211 rcurveline
          -60 -160 -150 370 -15 36 4 11 34 2 rlinecurve
          -17 42 rmoveto
          3 -5 0 -12 -3 -6 -77 -6 -35 -7 25 -47 205 -505 rcurveline
          107 287 -86 218 -17 43 -21 13 -40 4 rlinecurve
          -3 6 0 12 3 5 rrcurveto
          307 hlineto
          3 -5 0 -12 -3 -6 -103 -5 -47 -20 15 -35 193 -505 rcurveline
          190 511 18 47 -62 3 -34 4 rlinecurve
          -3 6 0 12 3 5 rrcurveto
          248 hlineto
          3 -5 0 -12 -3 -6 -60 -5 -45 -8 -16 -41 -248 -655 rcurveline
          -22 hlineto
          -147 372 -139 -372 rlineto
          -22 hlineto
          -268 649 -18 43 -51 13 -40 4 rlinecurve
          -3 6 0 12 3 5 rrcurveto
          endchar
        </CharString>
        <CharString name="X">
          243 10 21 740 -20 hstem
          338 348 rmoveto
          -188 300 -30 39 -41 4 -42 4 rlinecurve
          -2 7 -1 9 3 7 rrcurveto
          -2 55 64 -2 58 hhcurveto
          68 51 1 3 66 hvcurveto
          2 -8 1 -8 -3 -7 -82 -3 -88 -11 33 -52 130 -206 rcurveline
          155 218 27 44 -75 7 -24 3 rlinecurve
          -2 8 -1 8 3 7 rrcurveto
          -2 42 44 -1 28 hhcurveto
          25 59 1 2 37 hvcurveto
          3 -7 0 -9 -3 -7 -42 -4 -43 -11 -27 -39 -183 -255 rcurveline
          196 -312 38 -42 76 -9 59 -4 rlinecurve
          2 -7 1 -9 -3 -7 rrcurveto
          2 -64 -80 2 -68 hhcurveto
          -57 -58 -1 -3 -55 hvcurveto
          -2 8 -1 8 3 7 27 1 115 4 -34 50 -149 237 rcurveline
          -172 -236 -31 -46 82 -6 24 -3 rlinecurve
          2 -8 1 -8 -3 -7 rrcurveto
          2 -42 -49 1 -28 hhcurveto
          -25 -59 -1 -2 -37 hvcurveto
          -2 8 -1 8 3 7 42 4 42 12 28 38 rrcurveto
          -16 12 rmoveto
          -24 -32 -42 -11 -44 -4 -10 -25 2 -15 8 -23 86 5 94 -1 88 -4 8 25 1 14 -6 21 -27 1 -65 4 16 22 153 211 rcurveline
          135 -211 18 -25 -101 1 -23 -1 rlinecurve
          -8 -23 0 -15 8 -22 131 4 158 -2 127 -5 8 26 0 14 -6 23 -45 4 -56 9 -21 34 -214 341 rcurveline
          145 203 23 33 43 10 44 4 rlinecurve
          7 15 0 33 -7 15 -84 -4 -93 -1 -86 5 -8 -25 -1 -14 6 -21 15 -2 72 -4 -15 -21 -109 -153 rcurveline
          -87 141 -16 26 34 7 67 3 rlinecurve
          7 24 1 13 -8 23 -126 -3 -147 1 -123 5 -8 -26 0 -14 6 -23 45 -4 44 -4 24 -32 -1 1 rcurveline
          181 -288 rlineto
          endchar
        </CharString>
        <CharString name="Y">
          215 32 21 hstem
          295 146 vstem
          472 69 rmoveto
          -4 79 -1 135 83 vvcurveto
          165 265 20 32 36 9 43 4 rlinecurve
          9 23 -2 17 -7 22 rrcurveto
          -2 -39 -40 -2 -40 hhcurveto
          -44 -45 2 2 -45 hvcurveto
          -7 -21 -2 -18 6 -20 rrcurveto
          15 -2 58 -1 -19 vvcurveto
          -2 -1 -2 -132 -219 vhcurveto
          -117 210 -2 4 3 vvcurveto
          14 24 5 68 5 vhcurveto
          3 11 2 11 10 vvcurveto
          10 -2 9 -3 10 vhcurveto
          -2 -48 -50 0 -51 hhcurveto
          -83 -83 1 3 -77 hvcurveto
          -4 -12 -2 -10 -11 vvcurveto
          -9 1 -9 3 -11 vhcurveto
          41 -4 53 -13 19 -32 182 -317 rcurveline
          -1 -86 -2 -71 -3 -85 -1 -18 -66 -6 -40 -4 -9 -19 -1 -25 10 -18 rrcurveto
          1 67 67 1 67 hhcurveto
          68 67 -1 -1 67 hvcurveto
          6 22 1 19 -5 21 -40 4 -68 6 -1 19 rrcurveto
          -169 -2 rmoveto
          3 85 2 76 1 86 -184 321 rcurveline
          -23 41 -50 15 -42 4 -2 7 -1 9 3 7 117 -4 125 -2 117 6 3 -7 -1 -9 -2 -7 -135 -9 -32 -7 24 -44 160 -286 rcurveline
          177 292 27 45 -72 6 -26 3 rlinecurve
          -2 8 -1 8 3 7 rrcurveto
          -2 42 44 -1 28 hhcurveto
          25 49 1 2 37 hvcurveto
          2 -8 1 -8 -3 -7 -42 -4 -35 -10 -25 -40 -223 -357 rcurveline
          -83 2 -50 3 -84 vhcurveto
          1 -35 100 -7 62 -4 2 -7 1 -10 -3 -7 -123 2 -124 -1 -123 -2 -3 7 0 10 3 7 42 4 70 8 1 35 rrcurveto
          endchar
        </CharString>
        <CharString name="Yacute">
          215 32 21 801 188 hstemhm
          205 205 -115 146 hintmask 10010000
          472 69 rmoveto
          -4 79 -1 135 83 vvcurveto
          165 265 20 32 36 9 43 4 rlinecurve
          9 23 -2 17 -7 22 rrcurveto
          -2 -39 -40 -2 -40 hhcurveto
          -44 -45 2 2 -45 hvcurveto
          -7 -21 -2 -18 6 -20 rrcurveto
          15 -2 58 -1 -19 vvcurveto
          -2 -1 -2 -132 -219 vhcurveto
          -117 210 -2 4 3 vvcurveto
          14 24 5 68 5 vhcurveto
          3 11 2 11 10 vvcurveto
          10 -2 9 -3 10 vhcurveto
          -2 -48 -50 0 -51 hhcurveto
          -83 -83 1 3 -77 hvcurveto
          -4 -12 -2 -10 -11 vvcurveto
          -9 1 -9 3 -11 vhcurveto
          41 -4 53 -13 19 -32 182 -317 rcurveline
          -1 -86 -2 -71 -3 -85 -1 -18 -66 -6 -40 -4 -9 -19 -1 -25 10 -18 rrcurveto
          1 67 67 1 67 hhcurveto
          68 67 -1 -1 67 hvcurveto
          6 22 1 19 -5 21 -40 4 -68 6 -1 19 rrcurveto
          -169 -2 rmoveto
          3 85 2 76 1 86 -184 321 rcurveline
          -23 41 -50 15 -42 4 -2 7 -1 9 3 7 117 -4 125 -2 117 6 3 -7 -1 -9 -2 -7 -135 -9 -32 -7 24 -44 160 -286 rcurveline
          177 292 27 45 -72 6 -26 3 rlinecurve
          -2 8 -1 8 3 7 rrcurveto
          -2 42 44 -1 28 hhcurveto
          25 49 1 2 37 hvcurveto
          2 -8 1 -8 -3 -7 -42 -4 -35 -10 -25 -40 -223 -357 rcurveline
          -83 2 -50 3 -84 vhcurveto
          1 -35 100 -7 62 -4 2 -7 1 -10 -3 -7 -123 2 -124 -1 -123 -2 -3 7 0 10 3 7 42 4 70 8 1 35 rrcurveto
          hintmask 01100000
          180 913 rmoveto
          15 12 16 8 17 hhcurveto
          25 17 -17 -25 -17 -7 -12 -11 -7 hvcurveto
          -173 -110 -14 18 rlineto
          -25 1 rmoveto
          33 -46 rlineto
          35 hlineto
          192 122 rlineto
          16 10 9 17 24 vvcurveto
          37 -25 25 -37 vhcurveto
          -35 hlineto
          -23 -21 -10 -21 -17 hvcurveto
          endchar
        </CharString>
        <CharString name="Z">
          216 0 -20 744 21 6 -20 hstem
          440 hmoveto
          -119 -223 0 -3 -53 hvcurveto
          -3 3 -4 10 6 vvcurveto
          156 219 154 222 154 229 -125 -1 -75 -12 -102 -6 -29 -47 -37 -45 -64 -59 rrcurveto
          -8 -8 4 7 -4 hvcurveto
          54 57 37 68 21 66 142 -3 155 -1 140 4 rrcurveto
          11 -4 5 -6 -12 vvcurveto
          -155 -219 -154 -222 -153 -225 rrcurveto
          232 hlineto
          187 81 116 115 32 hvcurveto
          8 -1 6 -3 5 -4 rrcurveto
          -172 -43 -66 -81 -155 hhcurveto
          229 -20 rmoveto
          8 101 27 69 26 105 -12 15 -16 9 -28 6 rrcurveto
          -116 -33 -82 -119 -175 hhcurveto
          -139 hlineto
          153 225 137 196 155 219 rrcurveto
          27 -10 13 -23 8 vhcurveto
          -173 -5 -170 0 -167 5 -22 -71 -40 -73 -60 -63 9 -20 20 -11 18 -4 135 110 64 48 192 10 -154 -228 -136 -196 -155 -218 rrcurveto
          -13 11 -24 8 -8 vhcurveto
          3 84 102 0 446 hhcurveto
          endchar
        </CharString>
        <CharString name="a">
          6 -7 21 432 -20 hstem
          161 355 rmoveto
          18 14 30 13 35 hhcurveto
          31 28 -20 -55 hvcurveto
          -53 vlineto
          -194 -50 -50 -34 -97 vvcurveto
          -37 18 -74 105 76 34 18 20 28 vhcurveto
          -21 14 23 -10 25 hhcurveto
          92 32 46 47 31 hvcurveto
          16 27 -10 22 -21 14 -25 2 rlinecurve
          -31 -1 rlineto
          171 vlineto
          117 -44 46 -125 -131 -89 -57 -86 -54 41 -25 35 37 25 25 35 28 -20 20 -30 5 vhcurveto
          158 -143 rmoveto
          -134 -28 -26 -35 -49 vvcurveto
          -34 29 -18 35 44 33 37 25 19 vhcurveto
          -20 6 rmoveto
          -14 -17 -18 -20 -24 -8 rrcurveto
          -9 5 -6 10 14 vvcurveto
          30 14 25 57 21 vhcurveto
          -150 109 rmoveto
          4 -8 0 -9 -4 -6 rrcurveto
          -26 -30 19 40 74 79 49 86 100 35 -40 -103 hvcurveto
          -203 vlineto
          -41 43 4 32 49 vhcurveto
          11 -1 9 -6 4 -9 rrcurveto
          -46 -32 -30 -55 -52 hhcurveto
          -30 -25 20 52 -4 hvcurveto
          -26 -28 -48 -53 -65 hhcurveto
          -88 -15 61 30 86 56 32 188 48 hvcurveto
          68 vlineto
          69 -30 29 -40 vhcurveto
          -155 18 -124 37 hhcurveto
          endchar
        </CharString>
        <CharString name="aacute">
          6 -7 21 432 -20 142 188 hstemhm
          31 205 hintmask 11000000
          161 355 rmoveto
          18 14 30 13 35 hhcurveto
          31 28 -20 -55 hvcurveto
          -53 vlineto
          -194 -50 -50 -34 -97 vvcurveto
          -37 18 -74 105 76 34 18 20 28 vhcurveto
          -21 14 23 -10 25 hhcurveto
          92 32 46 47 31 hvcurveto
          16 27 -10 22 -21 14 -25 2 rlinecurve
          -31 -1 rlineto
          171 vlineto
          117 -44 46 -125 -131 -89 -57 -86 -54 41 -25 35 37 25 25 35 28 -20 20 -30 5 vhcurveto
          158 -143 rmoveto
          -134 -28 -26 -35 -49 vvcurveto
          -34 29 -18 35 44 33 37 25 19 vhcurveto
          -20 6 rmoveto
          -14 -17 -18 -20 -24 -8 rrcurveto
          -9 5 -6 10 14 vvcurveto
          30 14 25 57 21 vhcurveto
          -150 109 rmoveto
          4 -8 0 -9 -4 -6 rrcurveto
          -26 -30 19 40 74 79 49 86 100 35 -40 -103 hvcurveto
          -203 vlineto
          -41 43 4 32 49 vhcurveto
          11 -1 9 -6 4 -9 rrcurveto
          -46 -32 -30 -55 -52 hhcurveto
          -30 -25 20 52 -4 hvcurveto
          -26 -28 -48 -53 -65 hhcurveto
          -88 -15 61 30 86 56 32 188 48 hvcurveto
          68 vlineto
          69 -30 29 -40 vhcurveto
          -155 18 -124 37 hhcurveto
          hintmask 00110000
          160 409 rmoveto
          15 12 16 8 17 hhcurveto
          25 17 -17 -25 -17 -7 -12 -11 -7 hvcurveto
          -173 -110 -14 18 rlineto
          -25 1 rmoveto
          33 -46 rlineto
          35 hlineto
          192 122 rlineto
          16 10 9 17 24 vvcurveto
          37 -25 25 -37 vhcurveto
          -35 hlineto
          -23 -21 -10 -21 -17 hvcurveto
          endchar
        </CharString>
        <CharString name="acircumflex">
          6 -7 21 432 -20 142 172 hstemhm
          222 305 hintmask 11000000
          161 355 rmoveto
          18 14 30 13 35 hhcurveto
          31 28 -20 -55 hvcurveto
          -53 vlineto
          -194 -50 -50 -34 -97 vvcurveto
          -37 18 -74 105 76 34 18 20 28 vhcurveto
          -21 14 23 -10 25 hhcurveto
          92 32 46 47 31 hvcurveto
          16 27 -10 22 -21 14 -25 2 rlinecurve
          -31 -1 rlineto
          171 vlineto
          117 -44 46 -125 -131 -89 -57 -86 -54 41 -25 35 37 25 25 35 28 -20 20 -30 5 vhcurveto
          158 -143 rmoveto
          -134 -28 -26 -35 -49 vvcurveto
          -34 29 -18 35 44 33 37 25 19 vhcurveto
          -20 6 rmoveto
          -14 -17 -18 -20 -24 -8 rrcurveto
          -9 5 -6 10 14 vvcurveto
          30 14 25 57 21 vhcurveto
          -150 109 rmoveto
          4 -8 0 -9 -4 -6 rrcurveto
          -26 -30 19 40 74 79 49 86 100 35 -40 -103 hvcurveto
          -203 vlineto
          -41 43 4 32 49 vhcurveto
          11 -1 9 -6 4 -9 rrcurveto
          -46 -32 -30 -55 -52 hhcurveto
          -30 -25 20 52 -4 hvcurveto
          -26 -28 -48 -53 -65 hhcurveto
          -88 -15 61 30 86 56 32 188 48 hvcurveto
          68 vlineto
          69 -30 29 -40 vhcurveto
          -155 18 -124 37 hhcurveto
          hintmask 00110000
          -2 236 rmoveto
          -36 hlineto
          125 162 rlineto
          58 hlineto
          125 -162 rlineto
          -36 hlineto
          -118 87 rlineto
          111 -107 rmoveto
          118 hlineto
          -155 202 rlineto
          -113 hlineto
          -155 -202 rlineto
          118 hlineto
          93 69 rlineto
          endchar
        </CharString>
        <CharString name="acute">
          174 568 188 hstem
          85 205 vstem
          363 694 rmoveto
          15 12 16 8 17 hhcurveto
          25 17 -17 -25 -17 -7 -12 -11 -7 hvcurveto
          -173 -110 -14 18 rlineto
          -25 1 rmoveto
          33 -46 rlineto
          35 hlineto
          192 122 rlineto
          16 10 9 17 24 vvcurveto
          37 -25 25 -37 vhcurveto
          -35 hlineto
          -23 -21 -10 -21 -17 hvcurveto
          endchar
        </CharString>
        <CharString name="adieresis">
          6 -7 21 432 -20 142 109 hstemhm
          215 108 67 109 hintmask 11000000
          161 355 rmoveto
          18 14 30 13 35 hhcurveto
          31 28 -20 -55 hvcurveto
          -53 vlineto
          -194 -50 -50 -34 -97 vvcurveto
          -37 18 -74 105 76 34 18 20 28 vhcurveto
          -21 14 23 -10 25 hhcurveto
          92 32 46 47 31 hvcurveto
          16 27 -10 22 -21 14 -25 2 rlinecurve
          -31 -1 rlineto
          171 vlineto
          117 -44 46 -125 -131 -89 -57 -86 -54 41 -25 35 37 25 25 35 28 -20 20 -30 5 vhcurveto
          158 -143 rmoveto
          -134 -28 -26 -35 -49 vvcurveto
          -34 29 -18 35 44 33 37 25 19 vhcurveto
          -20 6 rmoveto
          -14 -17 -18 -20 -24 -8 rrcurveto
          -9 5 -6 10 14 vvcurveto
          30 14 25 57 21 vhcurveto
          -150 109 rmoveto
          4 -8 0 -9 -4 -6 rrcurveto
          -26 -30 19 40 74 79 49 86 100 35 -40 -103 hvcurveto
          -203 vlineto
          -41 43 4 32 49 vhcurveto
          11 -1 9 -6 4 -9 rrcurveto
          -46 -32 -30 -55 -52 hhcurveto
          -30 -25 20 52 -4 hvcurveto
          -26 -28 -48 -53 -65 hhcurveto
          -88 -15 61 30 86 56 32 188 48 hvcurveto
          68 vlineto
          69 -30 29 -40 vhcurveto
          -155 18 -124 37 hhcurveto
          hintmask 00111000
          -35 321 rmoveto
          33 24 27 29 29 24 -27 -33 -33 -24 -27 -29 -29 -24 27 33 vhcurveto
          182 hmoveto
          33 24 27 29 29 24 -27 -33 -33 -24 -27 -29 -29 -24 27 33 vhcurveto
          60 80 rmoveto
          -35 -30 -23 -31 -11 hvcurveto
          32 -9 -30 22 -67 hhcurveto
          -44 -36 -36 -44 -44 36 -36 44 67 30 21 32 9 hvcurveto
          -31 11 30 -22 35 hhcurveto
          84 26 34 46 46 -26 34 -84 hvcurveto
          endchar
        </CharString>
        <CharString name="ae">
          232 -9 46 196 37 -18 35 122 35 hstem
          35 90 166 82 179 90 vstem
          521 412 rmoveto
          -45 -55 -33 -87 -21 hvcurveto
          190 hlineto
          3 11 2 10 11 vvcurveto
          45 -18 43 -56 vhcurveto
          -202 -200 rmoveto
          -134 -28 -26 -35 -49 vvcurveto
          -34 29 -18 35 44 27 17 22 25 vhcurveto
          -61 357 rmoveto
          71 41 -17 -40 21 hvcurveto
          34 35 46 23 61 hhcurveto
          102 34 -68 -67 -18 -3 -17 -5 -15 hvcurveto
          -266 hlineto
          -1 -15 -1 -15 -17 vvcurveto
          -5 vlineto
          -96 2 64 -64 100 hhcurveto
          78 24 50 30 23 hvcurveto
          9 -2 6 -4 4 -5 rrcurveto
          -92 -34 -79 -38 -74 hhcurveto
          -61 -62 24 58 -38 hvcurveto
          -50 -60 -39 -32 -78 hhcurveto
          -88 -15 61 30 86 56 32 188 48 hvcurveto
          68 vlineto
          67 -33 30 -44 1 vhcurveto
          -91 -2 -27 -47 -35 vvcurveto
          -22 11 -18 14 vhcurveto
          4 -8 0 -9 -4 -6 rrcurveto
          -26 -30 19 40 74 79 49 86 hvcurveto
          317 -120 rmoveto
          -3 -1 -6 -3 vvcurveto
          -99 hlineto
          15 46 25 24 24 7 rrcurveto
          27 -8 9 -28 -29 vvcurveto
          -276 -228 rmoveto
          -15 -13 -16 -9 -22 -4 rrcurveto
          -10 4 -8 10 16 vvcurveto
          30 14 25 57 21 vhcurveto
          -59 210 rmoveto
          38 21 -28 -47 hvcurveto
          -53 vlineto
          -194 -50 -50 -34 -97 vvcurveto
          -37 18 -74 105 102 41 22 35 46 vhcurveto
          -36 41 57 -21 51 hhcurveto
          81 89 45 108 40 hvcurveto
          -11 14 -16 12 -23 5 -33 -48 -21 -29 -46 -5 -70 8 -42 53 -2 78 rrcurveto
          32 262 vlineto
          9 26 5 25 19 vvcurveto
          77 -43 78 -127 -87 -34 -14 -19 -32 vhcurveto
          23 -33 -55 10 -51 hhcurveto
          -119 -84 -57 -86 -54 41 -25 35 37 25 25 35 28 -20 20 -30 5 hvcurveto
          18 14 30 13 35 hhcurveto
          endchar
        </CharString>
        <CharString name="agrave">
          6 -7 21 432 -20 142 188 hstemhm
          56 205 hintmask 11000000
          161 355 rmoveto
          18 14 30 13 35 hhcurveto
          31 28 -20 -55 hvcurveto
          -53 vlineto
          -194 -50 -50 -34 -97 vvcurveto
          -37 18 -74 105 76 34 18 20 28 vhcurveto
          -21 14 23 -10 25 hhcurveto
          92 32 46 47 31 hvcurveto
          16 27 -10 22 -21 14 -25 2 rlinecurve
          -31 -1 rlineto
          171 vlineto
          117 -44 46 -125 -131 -89 -57 -86 -54 41 -25 35 37 25 25 35 28 -20 20 -30 5 vhcurveto
          158 -143 rmoveto
          -134 -28 -26 -35 -49 vvcurveto
          -34 29 -18 35 44 33 37 25 19 vhcurveto
          -20 6 rmoveto
          -14 -17 -18 -20 -24 -8 rrcurveto
          -9 5 -6 10 14 vvcurveto
          30 14 25 57 21 vhcurveto
          -150 109 rmoveto
          4 -8 0 -9 -4 -6 rrcurveto
          -26 -30 19 40 74 79 49 86 100 35 -40 -103 hvcurveto
          -203 vlineto
          -41 43 4 32 49 vhcurveto
          11 -1 9 -6 4 -9 rrcurveto
          -46 -32 -30 -55 -52 hhcurveto
          -30 -25 20 52 -4 hvcurveto
          -26 -28 -48 -53 -65 hhcurveto
          -88 -15 61 30 86 56 32 188 48 hvcurveto
          68 vlineto
          69 -30 29 -40 vhcurveto
          -155 18 -124 37 hhcurveto
          hintmask 00110000
          177 262 rmoveto
          -14 -18 -173 110 rlineto
          -11 7 -7 12 17 vvcurveto
          25 17 17 25 17 16 -8 -15 12 vhcurveto
          50 13 rmoveto
          20 -16 -21 10 -58 hhcurveto
          -37 -25 -25 -37 -25 9 -16 16 -10 hvcurveto
          192 -122 rlineto
          35 hlineto
          33 46 rlineto
          endchar
        </CharString>
        <CharString name="ampersand">
          253 -4 21 -17 -20 685 -20 hstem
          290 424 rmoveto
          43 19 60 45 71 vvcurveto
          65 -40 26 -41 -64 -33 -46 -55 -52 37 -42 38 -31 vhcurveto
          157 -307 rmoveto
          -57 93 -44 56 -87 91 rrcurveto
          -56 -21 -52 -61 -86 vvcurveto
          -88 68 -43 85 45 51 9 50 47 vhcurveto
          81 306 rmoveto
          -3 7 0 10 3 6 80 -4 77 1 78 3 3 -6 2 -9 -5 -8 -65 -6 -34 -13 -16 -26 -138 -224 rcurveline
          -38 36 39 -69 64 hhcurveto
          38 19 26 38 15 hvcurveto
          8 9 -1 -5 6 hvcurveto
          -57 -14 -26 -63 -91 hhcurveto
          -31 -50 0 98 -64 hvcurveto
          -88 -94 -68 -10 -47 hhcurveto
          -142 -47 105 75 54 26 102 135 64 hvcurveto
          -52 51 -35 38 74 vvcurveto
          82 72 64 91 76 52 -41 -92 -76 -48 -45 -71 -40 vhcurveto
          78 -79 39 -55 57 -82 46 60 40 73 6 60 6 36 -30 6 -30 4 rrcurveto
          179 -292 rmoveto
          -9 -29 -15 -23 -18 -9 -27 11 -25 30 -29 44 123 211 rcurveline
          12 20 15 13 49 6 9 22 0 24 -10 16 -90 -4 -90 0 -88 4 -7 -23 0 -21 7 -20 23 -3 29 3 -4 -22 -4 -41 -17 -48 -23 -44 -37 52 -33 43 -51 53 rrcurveto
          69 42 38 43 80 vvcurveto
          106 -66 47 -131 -102 -81 -73 -93 -72 28 -41 45 -45 vhcurveto
          -124 -69 -23 -101 -55 vvcurveto
          -83 52 -117 157 79 60 8 61 80 vhcurveto
          -68 57 47 -1 31 hhcurveto
          113 26 77 70 14 hvcurveto
          16 -20 -22 3 -17 hhcurveto
          -384 -53 rmoveto
          -58 6 -45 36 69 vvcurveto
          58 20 45 29 26 vhcurveto
          66 -71 39 -52 47 -75 -33 -29 -33 -10 -32 -3 rrcurveto
          50 481 rmoveto
          -43 -23 -32 -25 -21 vhcurveto
          -23 24 -18 29 33 vvcurveto
          37 15 32 30 9 vhcurveto
          24 -6 20 -21 -41 vvcurveto
          endchar
        </CharString>
        <CharString name="aring">
          6 -7 21 432 -20 142 35 129 35 hstemhm
          210 35 129 35 hintmask 11000000
          161 355 rmoveto
          18 14 30 13 35 hhcurveto
          31 28 -20 -55 hvcurveto
          -53 vlineto
          -194 -50 -50 -34 -97 vvcurveto
          -37 18 -74 105 76 34 18 20 28 vhcurveto
          -21 14 23 -10 25 hhcurveto
          92 32 46 47 31 hvcurveto
          16 27 -10 22 -21 14 -25 2 rlinecurve
          -31 -1 rlineto
          171 vlineto
          117 -44 46 -125 -131 -89 -57 -86 -54 41 -25 35 37 25 25 35 28 -20 20 -30 5 vhcurveto
          158 -143 rmoveto
          -134 -28 -26 -35 -49 vvcurveto
          -34 29 -18 35 44 33 37 25 19 vhcurveto
          -20 6 rmoveto
          -14 -17 -18 -20 -24 -8 rrcurveto
          -9 5 -6 10 14 vvcurveto
          30 14 25 57 21 vhcurveto
          -150 109 rmoveto
          4 -8 0 -9 -4 -6 rrcurveto
          -26 -30 19 40 74 79 49 86 100 35 -40 -103 hvcurveto
          -203 vlineto
          -41 43 4 32 49 vhcurveto
          11 -1 9 -6 4 -9 rrcurveto
          -46 -32 -30 -55 -52 hhcurveto
          -30 -25 20 52 -4 hvcurveto
          -26 -28 -48 -53 -65 hhcurveto
          -88 -15 61 30 86 56 32 188 48 hvcurveto
          68 vlineto
          69 -30 29 -40 vhcurveto
          -155 18 -124 37 hhcurveto
          hintmask 00111100
          55 330 rmoveto
          -33 31 -26 28 32 28 28 31 29 -25 31 -35 -32 -27 -27 -33 vhcurveto
          -40 1 rmoveto
          65 54 34 45 46 54 -34 -65 -58 -42 -42 -58 -57 -42 42 58 vhcurveto
          -20 hmoveto
          -70 50 -50 69 vhcurveto
          35 hlineto
          70 50 50 70 78 -65 41 -55 hvcurveto
          -35 hlineto
          -54 -65 -41 -78 hvcurveto
          115 -1 rmoveto
          15 9 14 12 6 vhcurveto
          14 -7 9 -15 -13 vvcurveto
          -14 -9 -14 -13 -7 vhcurveto
          -13 7 -9 12 16 vvcurveto
          endchar
        </CharString>
        <CharString name="asciicircum">
          98 515 220 hstem
          90 439 vstem
          178 515 rmoveto
          -88 hlineto
          219 220 220 -220 rlineto
          -89 hlineto
          -131 131 rlineto
          123 -151 rmoveto
          180 hlineto
          -268 268 rlineto
          -35 hlineto
          -267 -268 rlineto
          179 hlineto
          105 105 rlineto
          endchar
        </CharString>
        <CharString name="asciitilde">
          172 286 163 hstem
          89 51 558 52 vstem
          90 196 rmoveto
          45 17 49 102 104 hhcurveto
          28 41 -7 -37 71 hvcurveto
          -9 18 29 -13 29 hhcurveto
          35 35 16 62 17 hvcurveto
          40 hlineto
          -98 -21 -71 -61 -76 hhcurveto
          -35 -33 13 16 -34 hvcurveto
          17 -39 -37 23 -38 hhcurveto
          -45 -24 -26 -43 -21 hvcurveto
          -39 hlineto
          -20 vmoveto
          87 hlineto
          17 36 18 24 25 7 rrcurveto
          -18 70 56 -49 72 hhcurveto
          120 81 76 123 27 hvcurveto
          -115 hlineto
          -14 -50 -20 -20 -22 -6 rrcurveto
          18 -70 -54 46 -108 hhcurveto
          -118 -53 -111 -49 -18 hvcurveto
          endchar
        </CharString>
        <CharString name="asterisk">
          -15 354 412 hstemhm
          70 366 -219 72 hintmask 11000000
          210 529 rmoveto
          4 0 4 1 3 vhcurveto
          -84 21 rlineto
          -35 8 -22 20 30 vvcurveto
          13 14 19 19 34 10 -15 -15 15 vhcurveto
          60 -62 5 5 7 4 8 2 rlinecurve
          hintmask 10100000
          -25 84 rlineto
          -3 11 -2 11 10 vvcurveto
          29 15 19 26 25 15 -20 -30 -9 -1 -10 -3 -11 vhcurveto
          -26 -85 7 -3 7 -3 5 -6 rlinecurve
          62 64 rlineto
          15 15 14 14 27 hhcurveto
          hintmask 11000000
          26 10 -18 -13 -29 -23 -21 -34 -8 hvcurveto
          -88 -21 rlineto
          1 -4 1 -3 -4 vvcurveto
          -4 0 -3 -1 -3 vhcurveto
          87 -22 rlineto
          38 -10 19 -20 -25 vvcurveto
          -18 -10 -16 -26 -18 -15 4 24 -23 vhcurveto
          -63 64 -5 -5 -6 -3 -7 -2 rlinecurve
          hintmask 10100000
          26 -85 rlineto
          3 -10 1 -10 -9 vvcurveto
          -30 -14 -23 -26 -28 -13 21 29 10 2 11 3 11 vhcurveto
          25 84 -8 1 -6 4 -5 5 rlinecurve
          -61 -63 rlineto
          -16 -16 -17 -14 -15 hhcurveto
          hintmask 11000000
          -22 -22 9 24 26 18 22 39 10 hvcurveto
          84 21 rlineto
          -1 4 0 3 4 vvcurveto
          -160 -90 rmoveto
          -39 32 -14 32 vhcurveto
          35 hlineto
          17 16 10 13 15 hvcurveto
          -4 -13 -1 -13 -10 vvcurveto
          -41 19 -29 42 75 20 37 36 9 -1 11 -4 13 vhcurveto
          -18 21 40 -3 31 hhcurveto
          40 16 25 29 34 -24 27 -48 13 hvcurveto
          -51 12 51 14 rlineto
          35 12 37 30 35 vvcurveto
          21 -16 30 -40 vhcurveto
          -35 hlineto
          -27 -17 -10 -13 -14 hvcurveto
          1 2 rlineto
          4 13 1 12 10 vvcurveto
          66 -44 4 -51 -39 -22 -27 -41 -11 2 -13 4 -13 vhcurveto
          -2 vlineto
          21 -40 -26 3 -29 hhcurveto
          -31 -22 -31 -21 -40 28 -27 45 -10 hvcurveto
          -1 hlineto
          52 -13 -52 -13 rlineto
          -49 -12 -23 -29 -36 vvcurveto
          endchar
        </CharString>
        <CharString name="at">
          494 -119 53 154 48 -24 34 373 30 172 47 hstem
          76 61 162 91 490 59 vstem
          618 376 rmoveto
          51 -9 -36 35 -42 hhcurveto
          -60 -62 -59 -111 -22 hvcurveto
          -81 -16 -16 -105 106 hhcurveto
          55 29 39 16 12 hvcurveto
          86 77 rmoveto
          -39 -12 -27 -91 81 hhcurveto
          58 137 61 184 188 -145 145 -203 -275 -134 -214 -185 -202 164 -186 247 76 95 31 56 61 hvcurveto
          29 -49 rlineto
          -65 -88 -64 -26 -104 hhcurveto
          -290 -173 213 223 256 186 195 270 234 159 -174 -206 -204 -154 -89 -96 -40 -49 13 48 -22 hvcurveto
          -30 -32 -35 -18 -54 hhcurveto
          -72 -72 56 114 132 97 116 137 21 53 -11 -53 36 hvcurveto
          63 46 12 1 rlineto
          -170 279 rmoveto
          -298 -194 -204 -267 -233 180 -223 303 144 71 30 75 102 hvcurveto
          -50 87 rlineto
          -35 hlineto
          -64 -59 -87 -34 -69 -5 rrcurveto
          -217 9 -142 171 187 vvcurveto
          171 116 197 239 10 vhcurveto
          183 -7 130 -133 -172 vvcurveto
          -147 -93 -62 -58 -13 vhcurveto
          -29 20 24 59 7 22 83 261 rcurveline
          -94 hlineto
          -32 -23 rlineto
          36 -38 -48 5 -49 hhcurveto
          -149 -105 -125 -143 -127 82 -63 82 56 47 7 15 26 hvcurveto
          -28 29 39 -7 35 hhcurveto
          144 175 95 218 217 -192 183 -254 hvcurveto
          -9 -583 rmoveto
          -9 -13 -19 -22 -31 -7 -53 20 20 104 9 36 19 81 37 57 37 13 24 -8 19 -23 6 -32 rrcurveto
          endchar
        </CharString>
        <CharString name="atilde">
          6 -7 21 432 -20 142 68 -38 69 hstem
          212 354 vstem
          161 355 rmoveto
          18 14 30 13 35 hhcurveto
          31 28 -20 -55 hvcurveto
          -53 vlineto
          -194 -50 -50 -34 -97 vvcurveto
          -37 18 -74 105 76 34 18 20 28 vhcurveto
          -21 14 23 -10 25 hhcurveto
          92 32 46 47 31 hvcurveto
          16 27 -10 22 -21 14 -25 2 rlinecurve
          -31 -1 rlineto
          171 vlineto
          117 -44 46 -125 -131 -89 -57 -86 -54 41 -25 35 37 25 25 35 28 -20 20 -30 5 vhcurveto
          158 -143 rmoveto
          -134 -28 -26 -35 -49 vvcurveto
          -34 29 -18 35 44 33 37 25 19 vhcurveto
          -20 6 rmoveto
          -14 -17 -18 -20 -24 -8 rrcurveto
          -9 5 -6 10 14 vvcurveto
          30 14 25 57 21 vhcurveto
          -150 109 rmoveto
          4 -8 0 -9 -4 -6 rrcurveto
          -26 -30 19 40 74 79 49 86 100 35 -40 -103 hvcurveto
          -203 vlineto
          -41 43 4 32 49 vhcurveto
          11 -1 9 -6 4 -9 rrcurveto
          -46 -32 -30 -55 -52 hhcurveto
          -30 -25 20 52 -4 hvcurveto
          -26 -28 -48 -53 -65 hhcurveto
          -88 -15 61 30 86 56 32 188 48 hvcurveto
          68 vlineto
          69 -30 29 -40 vhcurveto
          -155 18 -124 37 hhcurveto
          278 370 rmoveto
          -50 -15 -31 -54 -63 -48 -42 30 -45 hhcurveto
          -20 -17 -7 -23 -18 hvcurveto
          -27 hlineto
          77 31 41 21 33 44 64 -30 33 hhcurveto
          19 23 10 26 8 hvcurveto
          -15 20 rmoveto
          -6 -18 -8 -10 -9 -5 rrcurveto
          19 -75 -34 8 -44 hhcurveto
          -40 -51 -29 -109 -44 hvcurveto
          102 hlineto
          11 14 9 8 9 4 rrcurveto
          -14 55 44 -12 52 hhcurveto
          75 40 75 69 21 hvcurveto
          endchar
        </CharString>
        <CharString name="b">
          66 -11 21 -10 -20 748 -20 hstem
          96 93 -93 97 vstem
          300 380 rmoveto
          -53 -33 -19 -29 -34 hvcurveto
          -109 1 -98 1 -49 vhcurveto
          -41 27 42 -17 48 hhcurveto
          44 75 37 159 90 -37 76 -81 hvcurveto
          -288 322 rmoveto
          57 6 52 14 42 20 8 -3 6 -4 3 -6 rrcurveto
          -359 vlineto
          57 63 54 17 50 hhcurveto
          90 66 -78 -129 -114 -60 -137 -161 -64 -64 22 40 -48 hvcurveto
          3 206 -1 203 -2 202 -20 12 -32 6 -42 2 -2 9 1 6 1 8 rrcurveto
          158 64 rmoveto
          -49 -21 -51 -17 -72 -7 -7 -17 -1 -24 7 -20 38 -2 32 -5 19 -6 4 -191 1 -188 -5 -229 rrcurveto
          -47 57 71 -26 103 hhcurveto
          186 69 148 123 141 -80 86 -110 -59 -39 -8 -18 -35 hvcurveto
          296 vlineto
          -17 18 -26 11 -36 3 rrcurveto
          228 -552 rmoveto
          -125 -48 -41 -36 -9 vhcurveto
          -26 4 -21 12 -16 26 rrcurveto
          -1 48 -1 88 107 vvcurveto
          19 17 20 13 27 4 rrcurveto
          57 -9 26 -63 -72 vvcurveto
          endchar
        </CharString>
        <CharString name="backslash">
          118 -208 24 952 23 hstem
          90 791 rmoveto
          67 hlineto
          392 -999 rlineto
          -65 hlineto
          -14 -20 rmoveto
          144 hlineto
          -408 1039 rlineto
          -146 hlineto
          endchar
        </CharString>
        <CharString name="bar">
          -284 -253 24 1143 23 hstem
          90 57 vstem
          90 887 rmoveto
          57 -1120 -57 hlineto
          -20 -20 rmoveto
          132 1160 -132 hlineto
          endchar
        </CharString>
        <CharString name="braceleft">
          -107 -170 24 450 43 451 22 hstem
          156 86 vstem
          60 317 rmoveto
          115 16 4 110 62 vvcurveto
          -3 96 rlineto
          85 6 88 215 25 vhcurveto
          7 -24 rlineto
          -61 -5 -80 -26 -71 -38 8 -51 -60 vvcurveto
          -55 -5 -114 -155 -60 vhcurveto
          154 -60 9 -114 -3 -55 -8 -149 rcurveline
          -6 -71 86 -26 61 -5 -7 -24 rcurveline
          -215 25 -6 88 85 vvcurveto
          3 96 rlineto
          62 -4 110 -115 16 vhcurveto
          -20 62 rmoveto
          -80 vlineto
          115 -16 4 -99 -55 vvcurveto
          -3 -96 rlineto
          -94 6 -97 220 -29 vhcurveto
          35 hlineto
          17 63 -44 5 -61 22 3 58 rlinecurve
          8 149 3 54 -10 107 -125 68 rlinecurve
          125 68 10 107 -3 54 -8 149 rcurveline
          -3 58 61 22 44 5 -17 63 rcurveline
          -35 hlineto
          -220 -29 -6 -97 -94 vvcurveto
          3 -96 rlineto
          -55 -4 -99 -115 -16 vhcurveto
          endchar
        </CharString>
        <CharString name="braceright">
          -107 -170 24 450 43 451 22 hstem
          136 86 vstem
          289 295 rmoveto
          -154 60 -9 114 3 55 8 149 rcurveline
          4 71 -59 26 -42 5 7 24 rcurveline
          172 -25 8 -88 -3 -85 -3 -96 rcurveline
          -2 -62 6 -110 115 -16 rrcurveto
          -44 vlineto
          -114 -16 -7 -110 2 -62 3 -96 rcurveline
          3 -85 -8 -88 -172 -25 -7 24 rcurveline
          42 5 59 26 -4 71 -8 149 rcurveline
          -3 55 9 114 154 60 rrcurveto
          -172 -378 rmoveto
          3 -58 -61 -22 -44 -5 17 -63 rcurveline
          35 hlineto
          220 29 9 97 -3 94 -3 96 rcurveline
          -2 55 6 99 115 16 rrcurveto
          80 vlineto
          -115 16 -6 99 2 55 3 96 rcurveline
          3 94 -9 97 -220 29 rrcurveto
          -35 hlineto
          -17 -63 44 -5 61 -22 -3 -58 rlinecurve
          -8 -149 -3 -55 8 -106 126 -68 rlinecurve
          -126 -68 -8 -107 3 -54 rrcurveto
          endchar
        </CharString>
        <CharString name="bracketleft">
          -99 -208 42 915 42 hstem
          130 97 vstem
          372 749 rmoveto
          -145 -915 145 -42 -242 999 242 hlineto
          55 20 rmoveto
          -317 -1039 317 82 -145 875 145 hlineto
          endchar
        </CharString>
        <CharString name="bracketright">
          -99 -208 42 915 42 hstem
          195 97 vstem
          292 791 rmoveto
          -999 -242 42 145 915 -145 42 vlineto
          -20 20 rmoveto
          -82 145 -875 -145 -82 317 1039 vlineto
          endchar
        </CharString>
        <CharString name="brokenbar">
          -284 -253 24 1143 23 hstem
          90 57 vstem
          90 232 rmoveto
          57 -465 -57 hlineto
          57 655 rmoveto
          -57 465 57 hlineto
          55 20 rmoveto
          -132 -505 132 hlineto
          -132 -655 rmoveto
          132 505 -132 hlineto
          endchar
        </CharString>
        <CharString name="bullet">
          -149 270 192 hstem
          90 192 vstem
          90 356 rmoveto
          54 38 42 49 49 39 -41 -55 -53 -39 -43 -49 -50 -37 43 53 vhcurveto
          -20 hmoveto
          -64 50 -52 66 99 52 39 77 77 -52 39 -99 -65 -51 -51 -65 vhcurveto
          endchar
        </CharString>
        <CharString name="c">
          -21 -18 21 447 -20 hstem
          418 339 rmoveto
          49 -49 24 -72 -58 -82 -28 -177 -87 39 -73 108 78 36 50 30 23 vhcurveto
          9 -2 6 -4 4 -5 rrcurveto
          -92 -34 -79 -38 -74 hhcurveto
          -96 -107 62 159 144 100 93 127 92 63 -44 -61 -35 -26 -25 -33 hvcurveto
          -4 6 0 9 4 8 rrcurveto
          14 4 11 10 23 vvcurveto
          14 -193 rmoveto
          -19 -25 -36 -46 -56 -7 rrcurveto
          -70 8 -25 60 71 vvcurveto
          141 49 36 41 6 vhcurveto
          21 -2 21 -9 16 -11 rrcurveto
          -23 -8 -19 -16 -25 vvcurveto
          -36 19 -18 42 44 35 27 47 73 -71 52 -104 -138 -109 -101 -156 -173 118 -68 105 81 89 45 108 40 vhcurveto
          -11 14 -22 11 -18 2 rrcurveto
          endchar
        </CharString>
        <CharString name="caron">
          37 568 172 hstem
          236 305 vstem
          397 683 rmoveto
          36 hlineto
          -125 -162 rlineto
          -58 hlineto
          -125 162 rlineto
          36 hlineto
          118 -87 rlineto
          -194 107 rmoveto
          155 -202 rlineto
          113 hlineto
          155 202 rlineto
          -118 hlineto
          -94 -69 -93 69 rlineto
          endchar
        </CharString>
        <CharString name="ccedilla">
          -21 -190 25 102 23 22 21 447 -20 hstem
          104 55 104 41 vstem
          227 -55 rmoveto
          2 11 19 0 15 hhcurveto
          41 27 -24 -46 -44 -33 -42 -64 -39 -35 15 31 -20 hvcurveto
          13 15 rlineto
          -20 19 26 -3 19 hhcurveto
          33 20 20 26 27 -18 13 -29 -16 -13 -2 -5 -18 hvcurveto
          27 87 rlineto
          -75 22 -67 65 125 vvcurveto
          144 100 93 127 92 63 -44 -61 -35 -26 -25 -33 vhcurveto
          -4 6 0 9 4 8 rrcurveto
          14 4 11 10 23 vvcurveto
          49 -49 24 -72 -58 -82 -28 -177 -87 39 -73 108 78 36 50 30 23 vhcurveto
          9 -2 6 -4 4 -5 rrcurveto
          -92 -34 -79 -38 -74 hhcurveto
          -11 -10 1 2 -11 hvcurveto
          -85 -110 rmoveto
          -32 -41 rlineto
          -45 29 41 -22 84 hhcurveto
          86 45 52 54 59 -45 31 -65 hvcurveto
          72 10 77 47 35 95 -11 14 -22 11 -18 2 -19 -25 -36 -46 -56 -7 rrcurveto
          -70 8 -25 60 71 vvcurveto
          141 49 36 41 6 vhcurveto
          21 -2 21 -9 16 -11 rrcurveto
          -23 -8 -19 -16 -25 vvcurveto
          -36 19 -18 42 44 35 27 47 73 -71 52 -104 -138 -109 -101 -156 -126 61 -70 75 -29 vhcurveto
          73 -107 rmoveto
          -10 -6 -9 -11 -4 vhcurveto
          -13 3 -15 8 -17 18 21 6 16 4 12 2 rrcurveto
          8 -3 5 -6 -9 vvcurveto
          endchar
        </CharString>
        <CharString name="cedilla">
          14 -190 25 102 23 hstem
          120 55 104 41 vstem
          261 hmoveto
          -18 -55 rlineto
          2 11 19 0 15 hhcurveto
          41 27 -24 -46 -44 -33 -42 -64 -39 -35 15 31 -20 hvcurveto
          13 15 rlineto
          -20 19 26 -3 19 hhcurveto
          33 20 20 26 27 -18 13 -29 -16 -13 -2 -5 -18 hvcurveto
          28 92 rlineto
          -15 20 rmoveto
          -42 -141 -32 -41 rlineto
          -45 29 41 -22 84 hhcurveto
          86 45 52 54 59 -41 31 -65 hvcurveto
          18 53 rlineto
          -62 -145 rmoveto
          -10 -6 -9 -11 -4 vhcurveto
          -13 3 -15 8 -17 18 21 6 16 4 12 2 rrcurveto
          8 -3 5 -6 -9 vvcurveto
          endchar
        </CharString>
        <CharString name="cent">
          -77 24 44 53 365 35 50 22 hstem
          129 94 91 36 50 86 vstem
          272 407 rmoveto
          -51 -14 -51 -48 -138 vvcurveto
          -72 29 -63 73 -20 vhcurveto
          355 vlineto
          38 -362 rmoveto
          85 38 52 30 23 hvcurveto
          9 -2 6 -4 4 -5 -31 -83 -67 -39 -67 -7 rrcurveto
          -67 -38 67 vlineto
          -92 6 -95 64 150 vvcurveto
          130 78 88 109 16 vhcurveto
          72 38 -69 vlineto
          91 -1 66 -44 -60 vvcurveto
          -35 -28 -25 -37 vhcurveto
          -3 7 0 10 3 7 rrcurveto
          22 5 10 12 25 vvcurveto
          32 -46 31 -78 vhcurveto
          98 -149 rmoveto
          44 35 33 47 67 -50 41 -72 16 hvcurveto
          70 -113 -75 vlineto
          -112 -22 -75 -93 -136 vvcurveto
          -155 92 -71 95 -13 vhcurveto
          -68 113 69 vlineto
          53 13 53 46 27 91 -13 14 -12 11 -24 4 -17 -30 -28 -30 -39 -14 rrcurveto
          196 vlineto
          -7 11 14 -4 18 hhcurveto
          -179 -52 rmoveto
          57 3 21 20 29 vhcurveto
          -184 vlineto
          -16 20 -7 16 41 vvcurveto
          endchar
        </CharString>
        <CharString name="circumflex">
          37 568 172 hstem
          236 305 vstem
          161 521 rmoveto
          -36 hlineto
          125 162 rlineto
          58 hlineto
          125 -162 rlineto
          -36 hlineto
          -118 87 rlineto
          111 -107 rmoveto
          118 hlineto
          -155 202 rlineto
          -113 hlineto
          -155 -202 rlineto
          118 hlineto
          93 69 rlineto
          endchar
        </CharString>
        <CharString name="colon">
          -219 -9 122 212 122 hstem
          90 122 vstem
          90 47 rmoveto
          34 27 27 34 34 27 -27 -34 -34 -27 -27 -34 -34 -27 27 34 vhcurveto
          -20 hmoveto
          -45 36 -36 45 57 59 8 73 73 -63 8 -53 -45 -36 -36 -45 vhcurveto
          20 333 rmoveto
          34 27 27 34 34 27 -27 -34 -34 -27 -27 -34 -34 -27 27 34 vhcurveto
          -20 hmoveto
          -45 36 -36 45 57 59 8 73 73 -63 8 -53 -45 -36 -36 -45 vhcurveto
          endchar
        </CharString>
        <CharString name="comma">
          -219 -139 24 106 120 hstem
          89 135 vstem
          90 -106 rmoveto
          52 45 8 28 5 20 -2 3 rcurveline
          -44 -19 19 39 29 23 31 34 33 32 -16 -50 -62 -45 -74 -52 -34 hvcurveto
          34 -25 rmoveto
          63 41 55 86 68 vvcurveto
          81 -61 5 -59 -46 -31 -41 -39 -45 18 -25 42 -6 vhcurveto
          -8 -17 -18 -23 -44 -38 54 -47 rcurveline
          endchar
        </CharString>
        <CharString name="copyright">
          408 -9 47 131 35 378 27 144 47 hstem
          60 48 146 77 261 27 203 47 vstem
          637 251 rmoveto
          -64 -60 -75 -18 -42 hhcurveto
          -185 -21 167 49 133 85 91 122 71 72 -29 -123 21 hvcurveto
          -15 -5 rlineto
          102 -43 -50 28 -53 hhcurveto
          -128 -4 -143 -51 -132 61 -52 88 21 55 3 59 64 hvcurveto
          -513 120 rmoveto
          -209 170 -149 187 186 171 150 208 205 -171 152 -186 -187 -170 -149 -208 vhcurveto
          -48 hmoveto
          223 181 181 224 223 181 -181 -223 -224 -181 -181 -223 -224 -181 181 224 vhcurveto
          -20 hmoveto
          -235 190 -190 235 269 190 190 235 262 -212 162 -247 -235 -190 -190 -234 vhcurveto
          123 hmoveto
          189 149 138 170 9 vhcurveto
          169 -9 151 -140 -187 vvcurveto
          -190 -151 -139 -169 -9 vhcurveto
          -170 9 -149 138 191 vvcurveto
          488 55 rmoveto
          -12 37 -13 53 36 vvcurveto
          5 0 5 4 24 vhcurveto
          22 -90 -25 6 -54 hhcurveto
          -134 -93 -99 -145 -54 27 -182 203 46 84 22 80 75 hvcurveto
          -48 43 -55 -52 -42 -14 -25 -3 rlinecurve
          -61 7 -41 47 109 vvcurveto
          43 3 115 81 14 vhcurveto
          39 -7 39 -34 39 -90 rrcurveto
          endchar
        </CharString>
        <CharString name="currency">
          86 48 389 48 hstem
          38 48 389 48 vstem
          119 340 rmoveto
          -84 67 -68 84 84 67 68 84 84 -67 67 -84 -84 -67 -67 -84 vhcurveto
          387 196 rmoveto
          -72 -71 rlineto
          35 -41 7 -47 -37 vvcurveto
          -36 -9 -47 -34 -42 vhcurveto
          73 -72 -41 -39 -71 72 rlineto
          -32 -39 -49 -11 -36 hhcurveto
          -45 -45 18 25 -36 hvcurveto
          -70 -72 -40 39 72 72 rlineto
          -25 36 -18 45 44 vvcurveto
          36 12 48 31 40 vhcurveto
          -72 72 40 39 70 -72 rlineto
          27 37 43 15 46 hhcurveto
          36 49 -10 -31 39 hvcurveto
          71 71 rlineto
          35 28 rmoveto
          -35 hlineto
          -61 -61 rlineto
          20 -47 -42 3 -45 hhcurveto
          -35 -35 -9 -15 -31 hvcurveto
          -60 62 rlineto
          -35 hlineto
          -68 -67 74 -74 rlineto
          -25 -40 -12 -48 -34 vvcurveto
          -44 14 -39 24 -39 vhcurveto
          -75 -75 68 -67 rlineto
          35 hlineto
          16 17 24 24 20 20 rrcurveto
          -16 31 33 -8 37 hhcurveto
          63 37 7 16 34 hvcurveto
          61 -60 rlineto
          35 hlineto
          69 67 -74 73 rlineto
          28 42 8 46 36 vvcurveto
          35 -7 47 -28 41 vhcurveto
          73 73 rlineto
          -395 -196 rmoveto
          67 49 54 64 9 vhcurveto
          65 -9 49 -54 -67 vvcurveto
          -67 -49 -56 -65 -8 vhcurveto
          -64 8 -49 56 67 vvcurveto
          endchar
        </CharString>
        <CharString name="d">
          81 -8 21 -20 21 -14 -20 729 -20 hstem
          374 93 -89 89 vstem
          283 50 rmoveto
          40 33 23 29 30 hvcurveto
          1 48 0 64 69 vvcurveto
          71 vlineto
          41 -24 -37 17 -42 hhcurveto
          -44 -75 -31 -165 -90 37 -76 81 hvcurveto
          319 -11 rmoveto
          -25 3 -43 7 -1 19 rrcurveto
          -4 109 0 344 213 vvcurveto
          -17 18 -26 11 -36 3 -58 -21 -48 -17 -67 -6 -6 -17 -1 -27 7 -18 38 -2 32 -5 19 -6 rrcurveto
          -45 0 -63 1 -77 vhcurveto
          1 -11 -27 1 -28 hhcurveto
          -183 -68 -150 -117 -146 78 -85 108 31 65 8 23 35 hvcurveto
          3 -7 5 -6 15 -7 70 3 71 -1 69 -2 14 23 0 16 -12 23 rrcurveto
          -235 310 rmoveto
          -66 vlineto
          -67 0 -58 -1 -48 vhcurveto
          -21 -19 -22 -14 -23 -5 rrcurveto
          -55 11 -25 61 72 vvcurveto
          129 47 38 36 7 vhcurveto
          25 -4 23 -14 16 -23 rrcurveto
          217 -328 rmoveto
          4 -8 0 -9 -4 -6 rrcurveto
          2 -59 -30 1 -26 hhcurveto
          -17 -17 -2 -2 -40 hvcurveto
          -9 5 0 3 -3 7 rrcurveto
          2 12 0 9 32 vvcurveto
          -56 -57 -48 -23 -44 hhcurveto
          -90 -66 78 133 108 60 139 161 30 28 -7 -9 28 hvcurveto
          -1 93 0 87 51 vvcurveto
          -20 12 -32 6 -42 2 -2 8 0 7 2 8 57 6 52 14 42 20 7 -2 7 -5 3 -6 rrcurveto
          -213 0 -340 4 -109 vhcurveto
          1 -36 76 -6 43 -4 rrcurveto
          endchar
        </CharString>
        <CharString name="degree">
          -115 575 41 142 42 hstem
          90 42 142 42 vstem
          132 625 rmoveto
          -35 30 -36 41 37 34 33 38 33 -26 38 -45 -48 -23 -42 -29 vhcurveto
          -42 hmoveto
          62 52 51 61 61 52 -51 -62 -63 -52 -49 -61 -61 -52 49 63 vhcurveto
          -20 hmoveto
          -74 61 -58 72 107 61 59 73 96 -61 37 -107 -72 -61 -60 -73 vhcurveto
          117 hmoveto
          17 11 23 22 8 vhcurveto
          21 -8 13 -21 -19 vvcurveto
          -21 -15 -20 -19 -7 vhcurveto
          -20 7 -13 21 20 vvcurveto
          endchar
        </CharString>
        <CharString name="dieresis">
          48 568 109 hstem
          236 108 67 109 vstem
          135 606 rmoveto
          33 24 27 29 29 24 -27 -33 -33 -24 -27 -29 -29 -24 27 33 vhcurveto
          182 hmoveto
          33 24 27 29 29 24 -27 -33 -33 -24 -27 -29 -29 -24 27 33 vhcurveto
          60 80 rmoveto
          -35 -30 -23 -31 -11 hvcurveto
          32 -9 -30 22 -67 hhcurveto
          -44 -36 -36 -44 -44 36 -36 44 67 30 21 32 9 hvcurveto
          -31 11 30 -22 35 hhcurveto
          84 26 34 46 46 -26 34 -84 hvcurveto
          endchar
        </CharString>
        <CharString name="divide">
          214 150 131 68 48 67 132 hstem
          306 131 vstem
          90 319 rmoveto
          56 555 -56 vlineto
          55 -20 rmoveto
          96 -630 -96 vlineto
          238 -114 rmoveto
          36 25 28 31 31 26 -28 -36 -35 -26 -28 -31 -31 -25 28 35 vhcurveto
          63 86 rmoveto
          -47 -38 -38 -48 -47 38 -38 47 90 28 36 49 50 -28 36 -90 hvcurveto
          -63 237 rmoveto
          36 25 28 31 31 26 -28 -36 -35 -26 -28 -31 -31 -25 28 35 vhcurveto
          63 86 rmoveto
          -47 -38 -38 -48 -47 38 -38 47 90 28 36 49 50 -28 36 -90 hvcurveto
          endchar
        </CharString>
        <CharString name="dollar">
          -55 -21 68 40 637 38 69 -20 hstemhm
          77 68 109 37 135 72 -70 33 hintmask 11111101
          136 581 rmoveto
          -68 17 -71 100 -34 vhcurveto
          289 vlineto
          -75 -8 -42 -45 -63 vvcurveto
          266 -420 rmoveto
          79 -22 47 -87 30 vhcurveto
          -298 vlineto
          71 13 38 56 73 vvcurveto
          41 362 rmoveto
          -22 111 -54 56 -74 8 rrcurveto
          -301 vlineto
          92 -25 103 -42 -125 vvcurveto
          -139 -104 -70 -91 -13 vhcurveto
          -68 -40 65 vlineto
          -81 2 -74 30 -46 24 rrcurveto
          1 25 1 25 22 vvcurveto
          40 -3 37 -7 48 vhcurveto
          9 4 5 -1 7 -3 25 -171 86 -44 77 -2 rrcurveto
          313 vlineto
          -112 33 -77 51 120 vvcurveto
          145 102 48 87 7 vhcurveto
          63 40 -63 vlineto
          108 60 -84 -126 2 hvcurveto
          -6 -2 -7 0 -7 2 rrcurveto
          -324 -277 rmoveto
          -21 8 -58 -1 -18 -9 rrcurveto
          8 -57 4 -40 -39 vvcurveto
          -22 -2 -37 -1 -25 vhcurveto
          48 -24 77 -32 77 -7 rrcurveto
          -66 115 71 vlineto
          99 20 106 76 143 vvcurveto
          144 -104 53 -101 30 vhcurveto
          225 vlineto
          hintmask 11111110
          35 -24 29 -57 14 -68 21 -9 25 5 13 7 -11 67 -4 62 10 61 -32 17 -48 27 -52 7 rrcurveto
          64 -115 -65 vlineto
          -91 -13 -98 -56 -149 vvcurveto
          -125 80 -58 109 -36 vhcurveto
          -266 vlineto
          -50 22 -47 56 -17 120 rrcurveto
          263 -85 rmoveto
          -39 -11 -33 -23 -22 vhcurveto
          195 vlineto
          24 -25 10 -33 -43 vvcurveto
          -181 420 rmoveto
          31 11 25 21 17 vhcurveto
          -176 vlineto
          -31 27 -1 33 43 vvcurveto
          endchar
        </CharString>
        <CharString name="dotlessi">
          -172 -21 17 24 18 322 19 23 20 20 24 hstemhm
          32 18 63 21 74 69 52 18 hintmask 1010111110000000
          hintmask 1110111110000000
          329 20 rmoveto
          hintmask 1010111110000000
          3 -7 0 -10 -3 -7 -93 2 -93 0 -93 -2 rrcurveto
          hintmask 1110111110000000
          -3 7 0 10 3 7 30 4 52 7 1 36 4 95 -1 97 -2 100 -20 12 -22 6 -42 2 rrcurveto
          hintmask 1011111110000000
          -2 8 0 7 2 8 rrcurveto
          hintmask 1110111110000000
          57 6 42 14 42 20 8 -3 6 -4 3 -6 -1 -143 1 -110 4 -109 1 -36 74 -7 42 -4 rrcurveto
          hintmask 1010111110000000
          18 18 rmoveto
          -33 4 -32 6 -1 20 -5 109 0 124 1 133 -17 18 -26 11 -36 3 rrcurveto
          hintmask 1011111110000000
          -49 -21 -51 -19 -66 -4 rrcurveto
          hintmask 1010111110000000
          -6 -17 -1 -27 7 -18 38 -2 25 -5 19 -6 3 -90 0 -91 -4 -98 -1 -19 -40 -7 -40 -4 -5 -18 0 -24 5 -17 105 3 105 0 105 -3 5 17 0 24 -5 18 rrcurveto
          endchar
        </CharString>
        <CharString name="e">
          -13 -7 21 428 -20 hstem
          276 412 rmoveto
          -45 -55 -33 -87 -21 hvcurveto
          190 hlineto
          3 11 2 10 11 vvcurveto
          45 -18 43 -56 vhcurveto
          -126 -153 rmoveto
          -1 -15 -1 -15 -17 vvcurveto
          -101 2 64 -64 100 hhcurveto
          78 24 50 30 23 hvcurveto
          9 -2 6 -4 4 -5 rrcurveto
          -92 -34 -79 -38 -74 hhcurveto
          -96 -105 62 159 139 97 98 121 102 34 -68 -67 -18 -3 -17 -5 -15 hvcurveto
          15 -109 rmoveto
          -33 -48 -21 -29 -46 -5 -70 8 -42 53 -2 78 rrcurveto
          32 262 vlineto
          9 26 5 25 19 vvcurveto
          120 -84 35 -102 -173 -84 -121 -136 -173 115 -68 106 81 89 45 108 40 vhcurveto
          -11 14 -16 12 -23 5 rrcurveto
          -101 174 rmoveto
          -3 -1 -6 -3 vvcurveto
          -99 hlineto
          15 46 25 24 24 7 rrcurveto
          27 -8 9 -28 -29 vvcurveto
          endchar
        </CharString>
        <CharString name="eacute">
          -13 -7 21 428 -20 146 188 hstemhm
          52 205 hintmask 11000000
          276 412 rmoveto
          -45 -55 -33 -87 -21 hvcurveto
          190 hlineto
          3 11 2 10 11 vvcurveto
          45 -18 43 -56 vhcurveto
          -126 -153 rmoveto
          -1 -15 -1 -15 -17 vvcurveto
          -101 2 64 -64 100 hhcurveto
          78 24 50 30 23 hvcurveto
          9 -2 6 -4 4 -5 rrcurveto
          -92 -34 -79 -38 -74 hhcurveto
          -96 -105 62 159 139 97 98 121 102 34 -68 -67 -18 -3 -17 -5 -15 hvcurveto
          15 -109 rmoveto
          -33 -48 -21 -29 -46 -5 -70 8 -42 53 -2 78 rrcurveto
          32 262 vlineto
          9 26 5 25 19 vvcurveto
          120 -84 35 -102 -173 -84 -121 -136 -173 115 -68 106 81 89 45 108 40 vhcurveto
          -11 14 -16 12 -23 5 rrcurveto
          -101 174 rmoveto
          -3 -1 -6 -3 vvcurveto
          -99 hlineto
          15 46 25 24 24 7 rrcurveto
          27 -8 9 -28 -29 vvcurveto
          hintmask 00110000
          370 vmoveto
          15 12 16 8 17 hhcurveto
          25 17 -17 -25 -17 -7 -12 -11 -7 hvcurveto
          -173 -110 -14 18 rlineto
          -25 1 rmoveto
          33 -46 rlineto
          35 hlineto
          192 122 rlineto
          16 10 9 17 24 vvcurveto
          37 -25 25 -37 vhcurveto
          -35 hlineto
          -23 -21 -10 -21 -17 hvcurveto
          endchar
        </CharString>
        <CharString name="ecircumflex">
          -13 -7 21 428 -20 146 172 hstemhm
          221 305 hintmask 11000000
          276 412 rmoveto
          -45 -55 -33 -87 -21 hvcurveto
          190 hlineto
          3 11 2 10 11 vvcurveto
          45 -18 43 -56 vhcurveto
          -126 -153 rmoveto
          -1 -15 -1 -15 -17 vvcurveto
          -101 2 64 -64 100 hhcurveto
          78 24 50 30 23 hvcurveto
          9 -2 6 -4 4 -5 rrcurveto
          -92 -34 -79 -38 -74 hhcurveto
          -96 -105 62 159 139 97 98 121 102 34 -68 -67 -18 -3 -17 -5 -15 hvcurveto
          15 -109 rmoveto
          -33 -48 -21 -29 -46 -5 -70 8 -42 53 -2 78 rrcurveto
          32 262 vlineto
          9 26 5 25 19 vvcurveto
          120 -84 35 -102 -173 -84 -121 -136 -173 115 -68 106 81 89 45 108 40 vhcurveto
          -11 14 -16 12 -23 5 rrcurveto
          -101 174 rmoveto
          -3 -1 -6 -3 vvcurveto
          -99 hlineto
          15 46 25 24 24 7 rrcurveto
          27 -8 9 -28 -29 vvcurveto
          hintmask 00110000
          -184 197 rmoveto
          -36 hlineto
          125 162 rlineto
          58 hlineto
          125 -162 rlineto
          -36 hlineto
          -118 87 rlineto
          111 -107 rmoveto
          118 hlineto
          -155 202 rlineto
          -113 hlineto
          -155 -202 rlineto
          118 hlineto
          93 69 rlineto
          endchar
        </CharString>
        <CharString name="edieresis">
          -13 -7 21 428 -20 146 109 hstemhm
          236 108 67 109 hintmask 11000000
          276 412 rmoveto
          -45 -55 -33 -87 -21 hvcurveto
          190 hlineto
          3 11 2 10 11 vvcurveto
          45 -18 43 -56 vhcurveto
          -126 -153 rmoveto
          -1 -15 -1 -15 -17 vvcurveto
          -101 2 64 -64 100 hhcurveto
          78 24 50 30 23 hvcurveto
          9 -2 6 -4 4 -5 rrcurveto
          -92 -34 -79 -38 -74 hhcurveto
          -96 -105 62 159 139 97 98 121 102 34 -68 -67 -18 -3 -17 -5 -15 hvcurveto
          15 -109 rmoveto
          -33 -48 -21 -29 -46 -5 -70 8 -42 53 -2 78 rrcurveto
          32 262 vlineto
          9 26 5 25 19 vvcurveto
          120 -84 35 -102 -173 -84 -121 -136 -173 115 -68 106 81 89 45 108 40 vhcurveto
          -11 14 -16 12 -23 5 rrcurveto
          -101 174 rmoveto
          -3 -1 -6 -3 vvcurveto
          -99 hlineto
          15 46 25 24 24 7 rrcurveto
          27 -8 9 -28 -29 vvcurveto
          hintmask 00111000
          -195 282 rmoveto
          33 24 27 29 29 24 -27 -33 -33 -24 -27 -29 -29 -24 27 33 vhcurveto
          182 hmoveto
          33 24 27 29 29 24 -27 -33 -33 -24 -27 -29 -29 -24 27 33 vhcurveto
          60 80 rmoveto
          -35 -30 -23 -31 -11 hvcurveto
          32 -9 -30 22 -67 hhcurveto
          -44 -36 -36 -44 -44 36 -36 44 67 30 21 32 9 hvcurveto
          -31 11 30 -22 35 hhcurveto
          84 26 34 46 46 -26 34 -84 hvcurveto
          endchar
        </CharString>
        <CharString name="egrave">
          -13 -7 21 428 -20 146 188 hstemhm
          86 205 hintmask 11000000
          276 412 rmoveto
          -45 -55 -33 -87 -21 hvcurveto
          190 hlineto
          3 11 2 10 11 vvcurveto
          45 -18 43 -56 vhcurveto
          -126 -153 rmoveto
          -1 -15 -1 -15 -17 vvcurveto
          -101 2 64 -64 100 hhcurveto
          78 24 50 30 23 hvcurveto
          9 -2 6 -4 4 -5 rrcurveto
          -92 -34 -79 -38 -74 hhcurveto
          -96 -105 62 159 139 97 98 121 102 34 -68 -67 -18 -3 -17 -5 -15 hvcurveto
          15 -109 rmoveto
          -33 -48 -21 -29 -46 -5 -70 8 -42 53 -2 78 rrcurveto
          32 262 vlineto
          9 26 5 25 19 vvcurveto
          120 -84 35 -102 -173 -84 -121 -136 -173 115 -68 106 81 89 45 108 40 vhcurveto
          -11 14 -16 12 -23 5 rrcurveto
          -101 174 rmoveto
          -3 -1 -6 -3 vvcurveto
          -99 hlineto
          15 46 25 24 24 7 rrcurveto
          27 -8 9 -28 -29 vvcurveto
          hintmask 00110000
          26 223 rmoveto
          -14 -18 -173 110 rlineto
          -11 7 -7 12 17 vvcurveto
          25 17 17 25 17 16 -8 -15 12 vhcurveto
          50 13 rmoveto
          20 -16 -21 10 -58 hhcurveto
          -37 -25 -25 -37 -25 9 -16 16 -10 hvcurveto
          192 -122 rlineto
          35 hlineto
          33 46 rlineto
          endchar
        </CharString>
        <CharString name="eight">
          3 21 639 -20 hstem
          266 327 rmoveto
          -49 -71 -38 -118 -122 66 -31 54 62 52 31 129 141 -85 8 -29 hvcurveto
          32 vmoveto
          75 17 93 65 89 -30 56 -63 -64 -44 -50 -107 -130 72 -16 37 hvcurveto
          -79 -13 rmoveto
          0 -121 24 136 vvcurveto
          179 173 9 28 52 130 -18 -159 -132 -98 -39 0 vhcurveto
          -6 vlineto
          0 120 -22 -138 vvcurveto
          -140 -116 -54 -90 -77 -133 47 138 142 132 26 0 vhcurveto
          7 vlineto
          -152 -175 rmoveto
          -153 146 -52 84 140 135 60 154 102 -66 45 -44 20 vhcurveto
          37 25 51 52 93 vvcurveto
          177 -154 20 -97 -31 -190 -10 -198 -95 53 -47 40 -21 vhcurveto
          -44 -22 -60 -49 -101 vvcurveto
          325 7 rmoveto
          -99 -33 -33 -42 -7 vhcurveto
          -35 7 -35 32 93 vvcurveto
          89 38 36 33 9 vhcurveto
          30 -6 44 -25 -96 vvcurveto
          -22 339 rmoveto
          -52 -11 -70 -45 -14 vhcurveto
          -25 8 -31 27 89 vvcurveto
          80 22 44 35 10 vhcurveto
          37 -10 18 -45 -67 vvcurveto
          endchar
        </CharString>
        <CharString name="emdash">
          690 181 56 hstem
          90 257 rmoveto
          1031 -56 -1031 hlineto
          -20 -20 rmoveto
          1106 96 -1106 hlineto
          endchar
        </CharString>
        <CharString name="endash">
          356 181 56 hstem
          90 257 rmoveto
          697 -56 -697 hlineto
          -20 -20 rmoveto
          772 96 -772 hlineto
          endchar
        </CharString>
        <CharString name="equal">
          214 244 48 133 47 hstem
          90 409 rmoveto
          56 555 -56 vlineto
          -555 -180 rmoveto
          56 555 -56 vlineto
          55 -20 rmoveto
          96 -630 -96 vlineto
          630 180 rmoveto
          96 -630 -96 vlineto
          endchar
        </CharString>
        <CharString name="eth">
          49 -8 31 339 31 226 -20 hstem
          36 84 212 84 vstem
          279 412 rmoveto
          -106 -16 -124 -74 -64 12 -132 110 100 10 132 64 145 -49 53 -61 hvcurveto
          -107 139 rmoveto
          80 78 -36 37 -50 31 -27 18 rlinecurve
          15 25 40 -18 58 -32 36 -26 rlinecurve
          78 76 30 -26 -74 -74 rlineto
          122 -130 32 -140 -156 vvcurveto
          -168 -114 -60 -83 -83 -126 49 180 89 45 140 164 33 38 -9 -14 19 vhcurveto
          -8 55 -32 70 -47 56 -81 -82 rcurveline
          -1 -29 rmoveto
          35 hlineto
          59 60 18 -29 15 -31 10 -28 rlinecurve
          1 -20 -19 0 -19 hhcurveto
          -180 -49 -152 -97 -196 126 -53 138 97 134 62 186 156 -23 136 -136 135 hvcurveto
          75 75 -61 50 rlineto
          -35 hlineto
          -65 -63 -35 21 -47 24 -37 17 rlinecurve
          -35 hlineto
          -35 -56 28 -18 23 -15 35 -23 27 -24 rlinecurve
          -79 -77 rlineto
          224 -338 rmoveto
          -53 -7 -105 -65 -16 vhcurveto
          -63 16 -8 105 53 vvcurveto
          61 9 98 61 16 vhcurveto
          42 -10 31 -51 -114 vvcurveto
          endchar
        </CharString>
        <CharString name="exclam">
          -151 -17 122 hstemhm
          124 122 -82 43 hintmask 10100000
          166 170 rmoveto
          -3 69 rlineto
          -8 221 -32 143 75 vvcurveto
          51 40 5 15 15 40 -5 -51 -75 -27 -144 -12 -220 vhcurveto
          -4 -69 rlineto
          68 -20 rmoveto
          5 88 7 116 11 99 8 75 rlinecurve
          7 62 6 53 35 vvcurveto
          69 -60 7 -57 -22 -60 -7 -69 -34 5 -42 7 -53 vhcurveto
          10 -77 13 -109 5 -125 4 -88 rcurveline
          hintmask 11000000
          -23 -102 rmoveto
          33 24 27 29 29 24 -27 -33 -33 -24 -27 -29 -29 -24 27 33 vhcurveto
          60 80 rmoveto
          -44 -36 -36 -44 -44 36 -36 44 84 26 34 46 46 -26 34 -84 hvcurveto
          endchar
        </CharString>
        <CharString name="exclamdown">
          -151 -17 122 hstemhm
          124 122 -82 43 hintmask 10100000
          190 552 rmoveto
          4 -69 rlineto
          12 -220 27 -144 -75 vvcurveto
          -51 -40 -5 -15 -15 -40 5 51 75 32 143 8 221 vhcurveto
          3 69 rlineto
          -19 20 rmoveto
          -4 -88 -5 -125 -13 -109 -10 -77 rlinecurve
          -7 -53 -5 -42 -34 vvcurveto
          -69 60 -7 22 57 60 7 69 35 -6 53 -7 62 vhcurveto
          -8 75 -11 99 -7 116 -5 88 rcurveline
          -134 102 rmoveto
          33 24 27 29 29 24 -27 -33 -33 -24 -27 -29 vhcurveto
          hintmask 11000000
          -29 -24 27 33 hvcurveto
          60 -80 rmoveto
          84 26 34 46 46 -26 34 -84 -44 -36 -36 -44 -44 36 -36 44 hvcurveto
          endchar
        </CharString>
        <CharString name="f">
          -139 11 21 692 -20 hstem
          137 93 vstem
          287 68 rmoveto
          -3 52 -1 120 125 vvcurveto
          100 hlineto
          11 25 0 23 -11 27 rrcurveto
          -100 145 hlineto
          54 31 35 40 7 vhcurveto
          15 10 -1 -6 10 hvcurveto
          -22 -9 -7 -28 -16 vvcurveto
          -29 21 -24 42 49 32 38 43 69 -63 44 -77 -165 -78 -140 -151 vhcurveto
          -31 -60 vlineto
          -11 -25 0 -23 11 -27 rrcurveto
          60 hlineto
          -170 0 -79 -2 -48 vhcurveto
          -1 -19 -52 -7 -30 -4 -12 -23 0 -13 14 -23 97 4 104 -3 112 -4 14 23 0 16 -12 23 -23 4 -42 6 -1 20 rrcurveto
          67 642 rmoveto
          -78 -62 -70 -78 hvcurveto
          -142 150 vlineto
          4 -10 1 -14 -5 -11 rrcurveto
          -150 hlineto
          -136 1 -125 3 -57 vhcurveto
          1 -36 74 -7 42 -4 4 -8 0 -9 -4 -6 -104 4 -87 0 -88 -4 -4 6 0 9 4 8 30 4 52 7 1 36 rrcurveto
          2 48 0 80 190 vvcurveto
          -66 hlineto
          -4 10 -1 14 5 11 rrcurveto
          66 51 hlineto
          141 72 130 151 66 54 -36 -57 -33 -28 -31 -35 vhcurveto
          -4 8 0 9 4 6 rrcurveto
          18 6 7 11 26 vvcurveto
          26 -20 33 -72 vhcurveto
          endchar
        </CharString>
        <CharString name="five">
          -208 21 759 -20 hstem
          180 -200 rmoveto
          81 93 48 155 126 -111 17 -113 hvcurveto
          -15 3 -7 6 -9 19 rrcurveto
          37 115 17 175 0 vvcurveto
          184 hlineto
          71 17 32 29 14 hvcurveto
          10 9 -3 -4 5 hvcurveto
          -39 -150 rlineto
          -244 hlineto
          -21 -123 rlineto
          154 122 -44 -178 -148 -121 -107 -130 -109 -62 71 49 47 27 24 33 hvcurveto
          4 -8 0 -9 -4 -6 rrcurveto
          -18 -6 -7 -12 -26 vvcurveto
          -42 45 -50 87 vhcurveto
          246 745 rmoveto
          -14 -28 -15 -30 -52 -3 rrcurveto
          -210 hlineto
          0 -19 -193 -38 -119 vhcurveto
          15 -32 11 -9 22 -5 rrcurveto
          105 103 -15 -108 -130 -71 -46 -69 -6 hvcurveto
          -22 -3 -56 6 -18 14 rrcurveto
          30 13 15 24 29 vvcurveto
          44 -20 31 -48 -46 -37 -36 -52 -48 47 -94 144 147 174 114 160 189 -116 51 -163 2 vhcurveto
          14 83 rlineto
          200 hlineto
          46 178 rlineto
          11 -13 -23 8 -23 hhcurveto
          endchar
        </CharString>
        <CharString name="four">
          9 -182 21 187 107 383 -20 hstem
          107 91 rmoveto
          198 250 hlineto
          84 -249 rmoveto
          143 hlineto
          -14 -91 -129 -1 rlineto
          -214 -86 214 -276 vlineto
          -8 4 -5 13 12 vvcurveto
          358 450 rlineto
          6 8 -2 -4 4 hvcurveto
          -396 -437 rmoveto
          -22 11 -25 17 -9 vhcurveto
          261 -214 175 214 hlineto
          114 1 19 130 rlineto
          -133 365 hlineto
          15 -15 -35 8 -46 hhcurveto
          -165 -388 rmoveto
          88 110 rlineto
          -110 vlineto
          endchar
        </CharString>
        <CharString name="foursuperior">
          -151 353 -21 104 34 239 -20 hstem
          167 66 vstem
          172 500 rmoveto
          109 vlineto
          -101 -109 rlineto
          -61 -23 rmoveto
          208 241 rlineto
          31 -218 54 -44 -54 -98 -77 98 -162 hlineto
          -20 -20 rmoveto
          162 -98 152 98 54 84 -54 218 -95 hlineto
          -219 -254 rlineto
          endchar
        </CharString>
        <CharString name="fraction">
          -394 -208 24 952 23 hstem
          -140 -54 rmoveto
          360 818 47 -12 -362 -818 rlineto
          11 -23 rmoveto
          35 hlineto
          378 854 -85 22 rlineto
          -35 hlineto
          -376 -854 rlineto
          endchar
        </CharString>
        <CharString name="g">
          13 -263 21 689 -20 hstem
          155 283 rmoveto
          -106 47 -24 45 46 30 35 104 97 -48 23 -30 -46 -44 -32 -97 vhcurveto
          -2 -413 rmoveto
          -49 31 -55 98 114 36 78 33 46 -12 38 -85 -32 -59 -1 -3 -29 vhcurveto
          -39 -21 -23 -32 -34 vvcurveto
          314 553 rmoveto
          -4 6 0 9 4 8 rrcurveto
          32 15 -24 -26 -26 -18 -23 -26 -32 -19 20 20 -32 hvcurveto
          -2 -2 rlineto
          16 -22 7 -37 -35 vvcurveto
          -107 -73 -63 -84 -21 -30 3 2 -12 vhcurveto
          -28 -12 -15 -17 -17 vvcurveto
          -28 33 -14 103 vhcurveto
          20 26 2 28 hhcurveto
          116 20 -61 -51 -83 -97 -120 -144 -120 -53 52 58 41 29 47 67 36 hvcurveto
          -61 9 -33 24 40 vvcurveto
          42 40 35 39 29 vhcurveto
          -72 40 -16 52 54 vvcurveto
          76 75 84 102 76 17 -14 -32 78 vhcurveto
          69 -28 4 52 -24 1 rrcurveto
          6 -96 rmoveto
          38 23 32 37 36 -19 34 -48 -25 -20 -15 -18 -12 hvcurveto
          22 -52 -24 9 -87 hhcurveto
          -114 -83 -95 -85 -54 15 -51 58 -42 hvcurveto
          -35 -29 -29 -34 -42 vvcurveto
          -40 20 -27 43 -15 vhcurveto
          -43 -35 -22 -43 -37 vvcurveto
          -69 59 -61 134 199 111 132 91 60 -23 72 -133 vhcurveto
          -164 hlineto
          -22 -13 20 21 20 hvcurveto
          61 hlineto
          102 89 70 120 12 -1 12 -3 12 hvcurveto
          -251 -457 rmoveto
          25 13 25 20 17 vhcurveto
          3 34 28 1 29 hhcurveto
          57 9 -31 -33 -25 -27 -58 -85 -7 hvcurveto
          -59 7 -19 40 36 vvcurveto
          2 413 rmoveto
          65 17 31 21 9 vhcurveto
          20 -8 21 -26 -62 vvcurveto
          -73 -15 -34 -24 -9 vhcurveto
          -22 8 -18 28 71 vvcurveto
          endchar
        </CharString>
        <CharString name="germandbls">
          77 -9 28 -19 33 369 33 321 35 hstemhm
          91 84 64 90 64 95 hintmask 10111110
          62 -21 rmoveto
          216 1 -1 22 rlineto
          -31 40 44 -5 44 hhcurveto
          118 60 127 109 107 -42 72 -79 27 hvcurveto
          63 39 17 67 67 vvcurveto
          135 -107 45 -107 -141 -77 -68 -145 -3 vhcurveto
          -353 0 -79 -2 -48 vhcurveto
          -1 -19 -40 -7 -40 -4 -5 -18 0 -24 5 -17 rrcurveto
          383 223 rmoveto
          hintmask 01111110
          -25 6 -141 -43 -3 vhcurveto
          7 8 5 10 18 vvcurveto
          35 -17 28 -44 -17 -20 -5 -15 -13 vhcurveto
          -1 60 -1 89 96 vvcurveto
          128 -5 10 -86 -64 vvcurveto
          -38 379 rmoveto
          -77 -13 -77 -87 vhcurveto
          159 vlineto
          73 30 23 28 6 vhcurveto
          39 -12 3 -60 -35 vvcurveto
          -2 -565 rmoveto
          35 25 20 166 74 -11 101 -144 hvcurveto
          -14 30 12 hlineto
          103 16 87 87 46 -4 83 -73 -43 -69 -14 -110 -300 1 -153 3 -66 hvcurveto
          4 -67 -166 -4 -3 7 0 10 3 7 rlinecurve
          30 4 52 7 1 36 rrcurveto
          2 48 0 80 353 vvcurveto
          174 129 20 56 70 91 -39 -122 -76 -24 -75 -97 -27 vhcurveto
          -4 vlineto
          105 -6 57 -71 -120 vvcurveto
          -100 -48 -116 -96 -67 -37 40 34 40 27 21 33 vhcurveto
          3 -7 0 -8 -3 -8 rrcurveto
          -18 -5 -7 -9 -20 vvcurveto
          -21 15 -27 51 vhcurveto
          endchar
        </CharString>
        <CharString name="grave">
          -16 568 188 hstem
          85 205 vstem
          355 547 rmoveto
          -14 -18 -173 110 rlineto
          -11 7 -7 12 17 vvcurveto
          25 17 17 25 17 16 -8 -15 12 vhcurveto
          50 13 rmoveto
          20 -16 -21 10 -58 hhcurveto
          -37 -25 -25 -37 -25 9 -16 16 -10 hvcurveto
          192 -122 rlineto
          35 hlineto
          33 46 rlineto
          endchar
        </CharString>
        <CharString name="greater">
          262 93 551 hstem
          90 663 vstem
          552 349 rmoveto
          -462 197 24 53 579 -251 -579 -251 -24 53 rlineto
          -27 10 rmoveto
          41 -89 rlineto
          35 hlineto
          639 277 -639 277 rlineto
          -35 hlineto
          -41 -89 439 -187 rlineto
          endchar
        </CharString>
        <CharString name="guillemotleft">
          43 21 24 325 22 hstem
          89 385 vstem
          474 44 rmoveto
          -28 -23 -172 186 172 185 28 -22 -103 -163 rlineto
          -82 -163 rmoveto
          -28 -23 -172 186 172 185 28 -22 -104 -163 rlineto
          245 hmoveto
          106 167 -58 45 rlineto
          -35 hlineto
          -197 -212 197 -213 rlineto
          35 hlineto
          58 45 rlineto
          -292 168 rmoveto
          107 167 -58 45 rlineto
          -35 hlineto
          -197 -212 197 -213 rlineto
          35 hlineto
          58 45 rlineto
          endchar
        </CharString>
        <CharString name="guillemotright">
          44 21 24 325 22 hstem
          90 385 vstem
          275 370 rmoveto
          29 22 171 -185 -171 -186 -29 23 104 163 rlineto
          -289 163 rmoveto
          28 22 172 -185 -172 -186 -28 23 104 163 rlineto
          161 hmoveto
          -107 -167 59 -46 rlineto
          35 hlineto
          196 213 -196 212 rlineto
          -35 hlineto
          -59 -44 rlineto
          -78 -168 rmoveto
          -107 -167 58 -46 rlineto
          35 hlineto
          197 213 -197 212 rlineto
          -35 hlineto
          -58 -44 rlineto
          endchar
        </CharString>
        <CharString name="guilsinglleft">
          -141 44 24 324 23 hstem
          90 207 vstem
          290 44 rmoveto
          -28 -23 -172 186 172 185 28 -22 -102 -163 rlineto
          59 hmoveto
          105 168 -58 44 rlineto
          -35 hlineto
          -197 -212 197 -213 rlineto
          35 hlineto
          58 45 rlineto
          endchar
        </CharString>
        <CharString name="guilsinglright">
          -141 44 24 324 23 hstem
          90 207 vstem
          192 207 rmoveto
          -102 163 28 22 172 -185 -172 -186 -28 23 rlineto
          -27 -5 rmoveto
          58 -45 rlineto
          35 hlineto
          197 213 -197 212 rlineto
          -35 hlineto
          -58 -44 105 -168 rlineto
          endchar
        </CharString>
        <CharString name="h">
          97 -21 17 24 18 326 23 57 20 198 19 23 20 20 24 hstemhm
          22 22 64 20 75 69 27 21 15 21 34 20 77 69 57 19 hintmask 1011101111011110
          hintmask 1111101111011110
          356 20 rmoveto
          22 4 31 7 36 vvcurveto
          1 232 rlineto
          58 -16 30 -37 -42 -54 -35 -51 -58 vhcurveto
          -105 1 -51 3 -78 vhcurveto
          hintmask 1111101111111110
          1 -36 56 -7 35 -4 rrcurveto
          hintmask 1011101111111110
          3 -6 0 -11 -3 -7 -84 3 -87 0 -84 -3 rrcurveto
          hintmask 1111101111011110
          -3 7 0 11 3 6 30 4 53 7 1 36 rrcurveto
          594 vlineto
          -19 12 -22 6 -42 2 rrcurveto
          hintmask 1011111111011110
          -2 8 0 7 2 8 rrcurveto
          hintmask 1111101111011110
          57 6 42 14 42 20 8 -3 6 -4 3 -6 rrcurveto
          -399 vlineto
          55 55 67 57 71 hhcurveto
          66 21 -43 -86 2 hvcurveto
          5 -248 1 -36 79 -9 40 -2 rlinecurve
          hintmask 1011101111011110
          4 -7 0 -10 -4 -7 -85 2 -84 0 -85 -2 rrcurveto
          hintmask 1111101111011110
          -3 7 0 11 3 6 rrcurveto
          hintmask 1011101111011110
          -16 -41 rmoveto
          96 2 94 0 96 -2 8 17 0 24 -6 18 -30 4 -38 6 -1 19 -4 82 0 84 -1 82 rrcurveto
          99 -1 -31 50 -91 hhcurveto
          -76 -41 -18 -28 -42 hvcurveto
          318 vlineto
          -17 18 -26 11 -36 3 rrcurveto
          hintmask 1011111111011110
          -49 -21 -51 -19 -66 -4 rrcurveto
          hintmask 1011101111111110
          -6 -17 -1 -27 7 -18 38 -2 24 -5 19 -6 rrcurveto
          -581 vlineto
          -1 -19 -50 -7 -30 -4 -7 -18 0 -24 7 -17 96 3 97 0 95 -3 7 17 0 24 -7 18 rrcurveto
          hintmask 1011101111011110
          -27 3 -11 10 -1 17 rrcurveto
          -3 82 -1 53 108 vvcurveto
          36 26 33 20 28 7 rrcurveto
          14 -8 7 -22 -35 vvcurveto
          -1 -232 rlineto
          -18 -30 -11 -19 vhcurveto
          -7 -18 0 -24 7 -17 rrcurveto
          endchar
        </CharString>
        <CharString name="hyphen">
          -44 163 74 hstem
          90 262 rmoveto
          297 -61 -297 hlineto
          -20 -20 rmoveto
          372 101 -372 hlineto
          endchar
        </CharString>
        <CharString name="i">
          -172 -21 17 24 18 322 19 23 20 20 24 60 20 120 20 hstemhm
          32 18 47 20 -4 21 74 69 -54 64 42 18 hintmask 1010111101101000
          hintmask 1110111110011000
          117 606 rmoveto
          33 24 27 29 29 24 -27 -33 -33 -24 -27 -29 -29 -24 27 33 vhcurveto
          60 80 rmoveto
          -44 -36 -36 -44 -44 36 -36 44 84 26 34 46 46 -26 34 -84 hvcurveto
          152 -666 rmoveto
          hintmask 1010111101101000
          3 -7 0 -10 -3 -7 -93 2 -93 0 -93 -2 rrcurveto
          hintmask 1110111101101000
          -3 7 0 10 3 7 30 4 52 7 1 36 4 95 -1 97 -2 100 -20 12 -22 6 -42 2 rrcurveto
          hintmask 1011111101101000
          -2 8 0 7 2 8 rrcurveto
          hintmask 1110111101101000
          57 6 42 14 42 20 8 -3 6 -4 3 -6 -1 -143 1 -110 4 -109 rrcurveto
          hintmask 1110111110011000
          1 -36 74 -7 42 -4 rrcurveto
          hintmask 1010111101101000
          18 18 rmoveto
          -33 4 -32 6 -1 20 -5 109 0 124 1 133 -17 18 -26 11 -36 3 rrcurveto
          hintmask 1011111101101000
          -49 -21 -51 -19 -66 -4 rrcurveto
          hintmask 1010111101101000
          -6 -17 -1 -27 7 -18 38 -2 25 -5 19 -6 3 -90 0 -91 -4 -98 -1 -19 -40 -7 -40 -4 -5 -18 0 -24 5 -17 105 3 105 0 105 -3 5 17 0 24 -5 18 rrcurveto
          endchar
        </CharString>
        <CharString name="iacute">
          -172 568 188 hstem
          -38 205 vstem
          240 694 rmoveto
          15 12 16 8 17 hhcurveto
          25 17 -17 -25 -17 -7 -12 -11 -7 hvcurveto
          -173 -110 -14 18 rlineto
          -25 1 rmoveto
          33 -46 rlineto
          35 hlineto
          192 122 rlineto
          16 10 9 17 24 vvcurveto
          37 -25 25 -37 vhcurveto
          -35 hlineto
          -23 -21 -10 -21 -17 hvcurveto
          105 -686 rmoveto
          3 -7 0 -10 -3 -7 -93 2 -93 0 -93 -2 -3 7 0 10 3 7 30 4 52 7 1 36 4 95 -1 97 -2 100 -20 12 -22 6 -42 2 -2 8 0 7 2 8 57 6 42 14 42 20 rrcurveto
          8 -3 6 -4 3 -6 -1 -143 1 -110 4 -109 1 -36 74 -7 42 -4 rrcurveto
          18 18 rmoveto
          -33 4 -32 6 -1 20 -5 109 0 124 1 133 -17 18 -26 11 -36 3 -49 -21 -51 -19 -66 -4 -6 -17 -1 -27 7 -18 38 -2 25 -5 19 -6 3 -90 0 -91 -4 -98 -1 -19 -40 -7 -40 -4 rrcurveto
          -5 -18 0 -24 5 -17 105 3 105 0 105 -3 5 17 0 24 -5 18 rrcurveto
          endchar
        </CharString>
        <CharString name="icircumflex">
          -172 568 172 hstem
          127 305 vstem
          52 521 rmoveto
          -36 hlineto
          125 162 rlineto
          58 hlineto
          125 -162 rlineto
          -36 hlineto
          -118 87 rlineto
          111 -107 rmoveto
          118 hlineto
          -155 202 rlineto
          -113 hlineto
          -155 -202 rlineto
          118 hlineto
          93 69 rlineto
          142 -550 rmoveto
          3 -7 0 -10 -3 -7 -93 2 -93 0 -93 -2 -3 7 0 10 3 7 30 4 52 7 1 36 4 95 -1 97 -2 100 -20 12 -22 6 -42 2 -2 8 0 7 2 8 57 6 42 14 42 20 rrcurveto
          8 -3 6 -4 3 -6 -1 -143 1 -110 4 -109 1 -36 74 -7 42 -4 rrcurveto
          18 18 rmoveto
          -33 4 -32 6 -1 20 -5 109 0 124 1 133 -17 18 -26 11 -36 3 -49 -21 -51 -19 -66 -4 -6 -17 -1 -27 7 -18 38 -2 25 -5 19 -6 3 -90 0 -91 -4 -98 -1 -19 -40 -7 -40 -4 rrcurveto
          -5 -18 0 -24 5 -17 105 3 105 0 105 -3 5 17 0 24 -5 18 rrcurveto
          endchar
        </CharString>
        <CharString name="idieresis">
          -172 568 109 hstem
          116 108 67 109 vstem
          15 606 rmoveto
          33 24 27 29 29 24 -27 -33 -33 -24 -27 -29 -29 -24 27 33 vhcurveto
          182 hmoveto
          33 24 27 29 29 24 -27 -33 -33 -24 -27 -29 -29 -24 27 33 vhcurveto
          60 80 rmoveto
          -35 -30 -23 -31 -11 hvcurveto
          32 -9 -30 22 -67 hhcurveto
          -44 -36 -36 -44 -44 36 -36 44 67 30 21 32 9 hvcurveto
          -31 11 30 -22 35 hhcurveto
          84 26 34 46 46 -26 34 -84 hvcurveto
          72 -666 rmoveto
          3 -7 0 -10 -3 -7 -93 2 -93 0 -93 -2 -3 7 0 10 3 7 30 4 52 7 1 36 4 95 -1 97 -2 100 -20 12 -22 6 -42 2 -2 8 0 7 2 8 57 6 42 14 42 20 rrcurveto
          8 -3 6 -4 3 -6 -1 -143 1 -110 4 -109 1 -36 74 -7 42 -4 rrcurveto
          18 18 rmoveto
          -33 4 -32 6 -1 20 -5 109 0 124 1 133 -17 18 -26 11 -36 3 -49 -21 -51 -19 -66 -4 -6 -17 -1 -27 7 -18 38 -2 25 -5 19 -6 3 -90 0 -91 -4 -98 -1 -19 -40 -7 -40 -4 rrcurveto
          -5 -18 0 -24 5 -17 105 3 105 0 105 -3 5 17 0 24 -5 18 rrcurveto
          endchar
        </CharString>
        <CharString name="igrave">
          -172 568 188 hstem
          -20 205 vstem
          250 547 rmoveto
          -14 -18 -173 110 rlineto
          -11 7 -7 12 17 vvcurveto
          25 17 17 25 17 16 -8 -15 12 vhcurveto
          50 13 rmoveto
          20 -16 -21 10 -58 hhcurveto
          -37 -25 -25 -37 -25 9 -16 16 -10 hvcurveto
          192 -122 rlineto
          35 hlineto
          33 46 rlineto
          52 -528 rmoveto
          3 -7 0 -10 -3 -7 -93 2 -93 0 -93 -2 -3 7 0 10 3 7 30 4 52 7 1 36 4 95 -1 97 -2 100 -20 12 -22 6 -42 2 -2 8 0 7 2 8 57 6 42 14 42 20 rrcurveto
          8 -3 6 -4 3 -6 -1 -143 1 -110 4 -109 1 -36 74 -7 42 -4 rrcurveto
          18 18 rmoveto
          -33 4 -32 6 -1 20 -5 109 0 124 1 133 -17 18 -26 11 -36 3 -49 -21 -51 -19 -66 -4 -6 -17 -1 -27 7 -18 38 -2 25 -5 19 -6 3 -90 0 -91 -4 -98 -1 -19 -40 -7 -40 -4 rrcurveto
          -5 -18 0 -24 5 -17 105 3 105 0 105 -3 5 17 0 24 -5 18 rrcurveto
          endchar
        </CharString>
        <CharString name="j">
          -193 -268 21 -20 21 922 -20 hstem
          133 93 -89 89 vstem
          50 -243 rmoveto
          55 24 32 96 3 hvcurveto
          4 132 0 217 -4 125 -20 12 -32 6 -42 2 -2 8 0 7 2 8 57 6 52 14 42 20 8 -3 6 -4 3 -6 rrcurveto
          -464 vlineto
          -112 -31 -128 -129 -61 -33 53 41 47 27 24 33 vhcurveto
          4 -8 0 -9 -4 -6 rrcurveto
          -18 -6 -7 -12 -26 vvcurveto
          -30 20 -36 43 vhcurveto
          65 849 rmoveto
          33 24 27 29 29 24 -27 -33 -33 -24 -27 -29 -29 -24 27 33 vhcurveto
          60 80 rmoveto
          -44 -36 -36 -44 -44 36 -36 44 84 26 34 46 46 -26 34 -84 hvcurveto
          -143 -906 rmoveto
          30 10 16 26 31 vvcurveto
          40 -23 23 -42 -51 -32 -37 -48 -68 54 -52 100 140 52 140 120 -1 vhcurveto
          469 vlineto
          -17 18 -26 11 -36 3 -49 -21 -58 -19 -66 -4 -6 -17 -1 -27 7 -18 38 -2 32 -5 19 -6 rrcurveto
          -462 vlineto
          -62 -12 -60 -68 17 vhcurveto
          endchar
        </CharString>
        <CharString name="k">
          45 10 21 -20 21 689 -20 hstem
          144 89 vstem
          312 433 rmoveto
          69 -4 58 0 78 4 3 -8 0 -7 -3 -8 -49 -5 -41 -8 -33 -34 -86 -87 rcurveline
          166 -209 31 -40 48 -3 33 -4 rlinecurve
          3 -6 0 -11 -3 -6 rrcurveto
          2 -46 -37 1 -41 hhcurveto
          -37 -33 2 -2 -42 hvcurveto
          -5 9 1 6 4 8 33 4 23 10 -24 30 -133 171 rcurveline
          -38 hlineto
          -74 1 -61 2 -36 vhcurveto
          -36 53 -7 31 -4 vhcurveto
          4 -8 1 -6 -5 -9 rrcurveto
          2 -43 -38 1 -41 hhcurveto
          -40 -41 -1 -2 -43 hvcurveto
          -5 9 1 6 4 8 30 4 52 7 1 36 rrcurveto
          8 202 -7 195 195 vvcurveto
          -20 12 -32 6 -42 2 -2 8 0 7 2 8 57 6 52 14 42 20 7 -2 7 -5 3 -6 rrcurveto
          -133 0 -182 1 -145 vhcurveto
          39 hlineto
          99 94 29 27 -39 17 -27 3 rlinecurve
          -4 7 1 9 3 7 rrcurveto
          -9 20 rmoveto
          -11 -21 0 -19 10 -19 40 -7 2 0 -9 -9 -56 -53 rcurveline
          409 vlineto
          -17 18 -26 11 -36 3 -58 -21 -48 -17 -67 -6 -6 -17 -1 -27 7 -18 38 -2 32 -5 19 -6 rrcurveto
          -123 vlineto
          -74 1 -87 -80 vvcurveto
          -88 0 -79 -2 -48 vhcurveto
          -1 -19 -48 -7 -30 -4 -13 -21 2 -19 13 -19 93 2 83 0 92 -2 7 19 3 19 -8 21 -16 4 -8 10 -1 15 rrcurveto
          -2 23 -1 34 41 vvcurveto
          77 -98 10 -21 -14 -5 -14 -3 rlinecurve
          -9 -22 4 -19 9 -18 83 3 92 2 86 -5 8 17 0 24 -6 18 -35 7 -11 8 -21 26 -177 223 rcurveline
          46 47 29 29 43 8 52 5 rlinecurve
          7 21 0 22 -8 20 -79 -5 -71 1 -78 3 rrcurveto
          endchar
        </CharString>
        <CharString name="l">
          -177 7 21 695 -20 hstem
          91 89 -89 93 vstem
          324 20 rmoveto
          3 -7 0 -10 -3 -7 -92 2 -93 1 -94 -3 -3 7 0 10 3 7 30 4 52 7 1 36 4 194 -1 196 -2 202 -20 12 -22 6 -42 2 -2 8 0 7 2 8 57 6 42 14 42 20 rrcurveto
          8 -3 6 -4 3 -6 -1 -263 1 -200 4 -199 1 -36 74 -7 42 -4 rrcurveto
          18 18 rmoveto
          -33 4 -32 6 -1 20 -5 199 0 226 1 241 -17 18 -26 11 -36 3 -49 -21 -51 -19 -66 -4 -6 -17 -1 -27 7 -18 38 -2 25 -5 19 -6 3 -186 0 -190 -4 -203 -1 -19 -40 -7 -40 -4 rrcurveto
          -5 -18 0 -24 5 -17 106 3 105 -1 104 -2 5 17 0 24 -5 18 rrcurveto
          endchar
        </CharString>
        <CharString name="less">
          262 93 551 hstem
          90 663 vstem
          693 150 rmoveto
          -24 -53 -579 251 579 251 24 -53 -462 -197 rlineto
          86 hmoveto
          438 187 -41 89 rlineto
          -35 hlineto
          -639 -277 639 -277 rlineto
          35 hlineto
          41 89 rlineto
          endchar
        </CharString>
        <CharString name="logicalnot">
          282 64 24 94 55 hstem
          657 56 vstem
          90 257 rmoveto
          623 -173 -56 118 -567 hlineto
          -20 -20 rmoveto
          567 -118 131 213 -698 hlineto
          endchar
        </CharString>
        <CharString name="m">
          368 7 21 414 -20 hstem
          129 92 172 92 172 92 cntrmask 00111000
          549 311 rmoveto
          32 28 29 18 28 7 rrcurveto
          14 -8 7 -22 -35 vvcurveto
          -1 -232 rlineto
          -18 -29 -11 -19 vhcurveto
          -7 -18 0 -24 7 -17 96 2 93 0 96 -2 8 17 0 24 -6 18 -30 4 -38 6 -1 19 rrcurveto
          -4 82 -1 84 82 vvcurveto
          99 -32 50 -91 -74 -30 -12 -46 -63 vhcurveto
          38 -18 -33 20 -56 hhcurveto
          -74 -34 -17 -29 -41 hvcurveto
          16 vlineto
          -17 18 -26 11 -36 3 -49 -21 -51 -19 -66 -4 -6 -17 -1 -27 7 -18 38 -2 24 -5 19 -6 2 -93 1 -93 -3 -93 -1 -19 -50 -7 -30 -4 -7 -18 0 -24 7 -17 96 3 91 0 95 -3 rrcurveto
          7 17 0 24 -7 18 -27 6 -5 7 -1 17 rrcurveto
          -3 82 -1 53 108 vvcurveto
          28 27 31 19 28 7 rrcurveto
          14 -8 7 -22 -35 vvcurveto
          -1 -232 rlineto
          -18 -19 -7 -29 -4 vhcurveto
          -7 -18 0 -24 7 -17 96 2 59 0 96 -2 7 17 0 24 -7 18 -20 2 -12 8 -1 19 rrcurveto
          -4 82 -1 80 82 vvcurveto
          -70 21 rmoveto
          55 55 58 57 71 hhcurveto
          66 21 -43 -86 2 hvcurveto
          5 -248 1 -36 79 -9 40 -2 rlinecurve
          4 -7 0 -10 -4 -7 -85 2 -83 0 -85 -2 -3 7 0 11 3 6 rrcurveto
          22 4 30 7 36 vvcurveto
          1 232 rlineto
          58 -16 30 -37 -42 -44 -35 -51 -58 vhcurveto
          5 -234 rlineto
          -36 44 -7 42 -4 vhcurveto
          3 -6 0 -11 -3 -7 -85 2 -49 0 -85 -2 -3 7 0 11 3 6 rrcurveto
          22 4 30 7 36 vvcurveto
          1 232 rlineto
          58 -16 30 -37 -42 -44 -35 -51 -58 vhcurveto
          -105 1 -51 3 -78 vhcurveto
          1 -36 50 -7 35 -4 3 -6 0 -11 -3 -7 -84 3 -81 0 -84 -3 -3 7 0 11 3 6 30 4 53 7 1 36 2 97 0 98 -2 97 -19 12 -22 6 -42 2 -2 8 0 7 2 8 rrcurveto
          57 6 42 14 42 20 8 -3 6 -4 3 -6 rrcurveto
          -97 vlineto
          55 55 57 57 71 hhcurveto
          62 22 -37 -75 4 hvcurveto
          endchar
        </CharString>
        <CharString name="macron">
          39 568 60 hstem
          236 314 vstem
          435 628 rmoveto
          -60 -310 60 vlineto
          -20 20 rmoveto
          -100 385 100 vlineto
          endchar
        </CharString>
        <CharString name="minus">
          214 329 56 hstem
          339 57 vstem
          90 319 rmoveto
          56 555 -56 vlineto
          55 -20 rmoveto
          96 -630 -96 vlineto
          endchar
        </CharString>
        <CharString name="mu">
          107 -219 24 186 66 355 23 hstem
          117 83 184 82 vstem
          582 28 rmoveto
          -62 -6 -57 -14 -46 -20 -8 3 -6 4 -3 6 rrcurveto
          66 vlineto
          -48 -39 -34 -31 -63 hhcurveto
          -46 -35 11 59 -19 hvcurveto
          -6 hlineto
          4 -131 35 -55 -68 vvcurveto
          -65 -35 -15 -22 -27 -31 21 55 81 35 64 2 171 vhcurveto
          -5 247 -1 36 -47 7 -26 4 rlinecurve
          -2 9 1 6 1 8 rrcurveto
          158 hlineto
          7 -2 5 -6 2 -7 -1 -13 -3 -8 -1 -242 rrcurveto
          -69 46 -39 35 38 37 24 33 37 vhcurveto
          -4 259 -1 36 -46 7 -26 4 rlinecurve
          -2 9 1 6 1 8 rrcurveto
          158 hlineto
          9 -5 0 -3 3 -7 rrcurveto
          -6 -26 1 -20 -301 vvcurveto
          20 -12 32 -6 42 -2 3 -7 0 -9 -3 -7 rrcurveto
          -130 -62 rmoveto
          49 21 58 15 75 6 6 17 1 26 -7 17 -41 3 -31 5 -19 7 rrcurveto
          293 2 23 3 17 vhcurveto
          -6 21 -3 7 -18 9 rrcurveto
          -212 hlineto
          -9 -23 1 -16 6 -22 25 -4 43 -7 1 -19 4 -249 rcurveline
          -25 -21 -23 -16 -23 -6 rrcurveto
          -23 9 -24 29 47 vvcurveto
          1 220 3 25 1 21 -4 15 -12 14 -15 3 rrcurveto
          -210 hlineto
          -9 -23 1 -16 6 -22 rrcurveto
          25 -4 44 -7 -18 vvcurveto
          6 -247 rlineto
          4 -144 -41 -55 -117 vvcurveto
          -69 42 -27 36 90 22 52 48 60 -24 53 -7 55 vhcurveto
          -3 13 14 -1 16 hhcurveto
          59 37 7 14 23 hvcurveto
          8 -11 24 -13 37 1 rrcurveto
          endchar
        </CharString>
        <CharString name="multiply">
          214 329 56 hstem
          339 57 vstem
          151 171 rmoveto
          176 176 -176 177 40 39 176 -176 177 177 40 -40 -177 -177 176 -176 -39 -40 -177 176 -176 -176 rlineto
          -28 vmoveto
          35 hlineto
          158 158 160 -158 rlineto
          35 hlineto
          67 68 -176 176 177 177 -68 68 rlineto
          -35 hlineto
          -160 -160 -158 159 rlineto
          -35 hlineto
          -68 -67 176 -177 -176 -176 rlineto
          endchar
        </CharString>
        <CharString name="n">
          105 -21 17 24 18 322 19 -15 23 15 20 22 20 hstemhm
          27 22 64 20 75 69 27 21 15 21 34 20 77 69 57 19 hintmask 1010011110111100
          hintmask 1101011110111100
          361 20 rmoveto
          22 4 31 7 36 vvcurveto
          1 232 rlineto
          58 -16 30 -37 -42 -54 -35 -51 -58 vhcurveto
          -105 1 -51 3 -78 vhcurveto
          hintmask 1110011111111100
          1 -36 56 -7 35 -4 rrcurveto
          hintmask 1010011111111100
          3 -6 0 -11 -3 -7 -84 3 -87 0 -84 -3 rrcurveto
          hintmask 1110011110111100
          -3 7 0 11 3 6 30 4 53 7 1 36 3 97 0 98 -3 97 -19 12 -22 6 -42 2 rrcurveto
          hintmask 1010111110111100
          -2 8 0 7 2 8 rrcurveto
          hintmask 1110011110111100
          57 6 42 14 42 20 8 -3 6 -4 3 -6 rrcurveto
          -97 vlineto
          55 55 67 57 71 hhcurveto
          66 21 -43 -86 2 hvcurveto
          5 -248 1 -36 79 -9 40 -2 rlinecurve
          hintmask 1010011110111100
          4 -7 0 -10 -4 -7 -85 2 -84 0 -85 -2 rrcurveto
          hintmask 1101011110111100
          -3 7 0 11 3 6 rrcurveto
          hintmask 1010011110111100
          -16 -41 rmoveto
          96 2 94 0 96 -2 8 17 0 24 -6 18 -30 4 -38 6 -1 19 -4 82 0 84 -1 82 rrcurveto
          99 -1 -31 50 -91 hhcurveto
          -76 -41 -18 -28 -42 hvcurveto
          16 vlineto
          -17 18 -26 11 -36 3 rrcurveto
          hintmask 1010111110111100
          -49 -21 -51 -19 -66 -4 rrcurveto
          hintmask 1010011111111100
          -6 -17 -1 -27 7 -18 38 -2 24 -5 19 -6 3 -92 0 -94 -3 -93 -1 -19 -50 -7 -30 -4 -7 -18 0 -24 7 -17 96 3 97 0 95 -3 7 17 0 24 -7 18 rrcurveto
          hintmask 1001011110111100
          -27 3 -11 10 -1 17 rrcurveto
          -3 82 -1 53 108 vvcurveto
          36 26 33 20 28 7 rrcurveto
          14 -8 7 -22 -35 vvcurveto
          -1 -232 rlineto
          -18 -30 -11 -19 vhcurveto
          hintmask 1010011110111100
          -7 -18 0 -24 7 -17 rrcurveto
          endchar
        </CharString>
        <CharString name="nine">
          -224 21 681 -20 hstem
          122 247 rmoveto
          1 -120 47 -59 158 -2 rrcurveto
          26 27 27 65 104 vvcurveto
          117 -48 68 -80 -50 -81 -32 -168 vhcurveto
          -122 -457 rmoveto
          121 59 111 82 77 100 rrcurveto
          -159 -124 55 161 152 117 80 109 84 135 -43 -193 -344 -459 -128 0 hvcurveto
          26 -23 rmoveto
          0 502 136 359 vvcurveto
          209 -156 47 -132 -119 -127 -87 -165 -162 112 -64 150 -9 vhcurveto
          -73 -84 -105 -72 -120 -58 33 -50 rcurveline
          188 499 rmoveto
          130 44 39 36 9 vhcurveto
          56 -11 34 -58 -94 vvcurveto
          -88 -20 -58 -21 -28 vhcurveto
          -100 11 -28 52 -1 96 rrcurveto
          endchar
        </CharString>
        <CharString name="ntilde">
          105 568 68 -38 69 hstem
          283 354 vstem
          361 20 rmoveto
          22 4 31 7 36 vvcurveto
          1 232 rlineto
          58 -16 30 -37 -42 -54 -35 -51 -58 vhcurveto
          -105 1 -51 3 -78 vhcurveto
          1 -36 56 -7 35 -4 3 -6 0 -11 -3 -7 -84 3 -87 0 -84 -3 -3 7 0 11 3 6 30 4 53 7 1 36 3 97 0 98 -3 97 -19 12 -22 6 -42 2 -2 8 0 7 2 8 rrcurveto
          57 6 42 14 42 20 8 -3 6 -4 3 -6 rrcurveto
          -97 vlineto
          55 55 67 57 71 hhcurveto
          66 21 -43 -86 2 hvcurveto
          5 -248 1 -36 79 -9 40 -2 rlinecurve
          4 -7 0 -10 -4 -7 -85 2 -84 0 -85 -2 -3 7 0 11 3 6 rrcurveto
          -16 -41 rmoveto
          96 2 94 0 96 -2 8 17 0 24 -6 18 -30 4 -38 6 -1 19 -4 82 0 84 -1 82 rrcurveto
          99 -1 -31 50 -91 hhcurveto
          -76 -41 -18 -28 -42 hvcurveto
          16 vlineto
          -17 18 -26 11 -36 3 -49 -21 -51 -19 -66 -4 -6 -17 -1 -27 7 -18 38 -2 24 -5 19 -6 3 -92 0 -94 -3 -93 -1 -19 -50 -7 -30 -4 -7 -18 0 -24 7 -17 96 3 97 0 95 -3 rrcurveto
          7 17 0 24 -7 18 -27 3 -11 10 -1 17 rrcurveto
          -3 82 -1 53 108 vvcurveto
          36 26 33 20 28 7 rrcurveto
          14 -8 7 -22 -35 vvcurveto
          -1 -232 rlineto
          -18 -30 -11 -19 vhcurveto
          -7 -18 0 -24 7 -17 rrcurveto
          153 676 rmoveto
          -50 -15 -31 -54 -63 -48 -42 30 -45 hhcurveto
          -20 -17 -7 -23 -18 hvcurveto
          -27 hlineto
          77 31 41 21 33 44 64 -30 33 hhcurveto
          19 23 10 26 8 hvcurveto
          -15 20 rmoveto
          -6 -18 -8 -10 -9 -5 rrcurveto
          19 -75 -34 8 -44 hhcurveto
          -40 -51 -29 -109 -44 hvcurveto
          102 hlineto
          11 14 9 8 9 4 rrcurveto
          -14 55 44 -12 52 hhcurveto
          75 40 75 69 21 hvcurveto
          endchar
        </CharString>
        <CharString name="numbersign">
          45 24 154 44 205 44 146 23 hstem
          98 159 44 160 vstem
          336 249 rmoveto
          34 230 rlineto
          -161 hlineto
          -35 -230 rlineto
          124 -249 rmoveto
          32 201 rlineto
          -162 hlineto
          -34 -201 rlineto
          -61 hlineto
          30 201 rlineto
          -132 hlineto
          7 48 rlineto
          133 hlineto
          38 230 rlineto
          -135 hlineto
          6 50 rlineto
          135 hlineto
          31 189 rlineto
          61 hlineto
          -31 -189 rlineto
          165 hlineto
          28 189 rlineto
          64 hlineto
          -31 -189 rlineto
          127 hlineto
          -8 -50 rlineto
          -128 hlineto
          -36 -230 rlineto
          129 hlineto
          -7 -48 rlineto
          -129 hlineto
          -32 -201 rlineto
          52 -20 rmoveto
          33 201 rlineto
          129 hlineto
          12 88 rlineto
          -128 hlineto
          29 190 rlineto
          129 hlineto
          13 90 rlineto
          -126 hlineto
          31 189 rlineto
          -141 hlineto
          -28 -189 rlineto
          -88 hlineto
          31 189 rlineto
          -137 hlineto
          -32 -189 rlineto
          -135 hlineto
          -11 -90 rlineto
          134 hlineto
          -32 -190 rlineto
          -133 hlineto
          -12 -88 rlineto
          131 hlineto
          -30 -201 rlineto
          137 hlineto
          35 201 rlineto
          86 hlineto
          -33 -201 rlineto
          -42 289 rmoveto
          30 190 rlineto
          85 hlineto
          -29 -190 rlineto
          endchar
        </CharString>
        <CharString name="o">
          39 -7 21 -14 -20 469 -20 hstem
          157 215 rmoveto
          -141 53 -56 70 62 47 56 141 141 -47 56 -62 -70 -53 -56 -141 vhcurveto
          123 -229 rmoveto
          -131 -79 97 132 132 79 97 131 122 74 -97 -132 -132 -74 -97 -122 hvcurveto
          -230 229 rmoveto
          -144 87 -105 160 161 87 105 144 144 -87 105 -161 -160 -87 -105 -144 vhcurveto
          176 hmoveto
          112 29 52 42 11 vhcurveto
          42 -11 30 -52 -112 vvcurveto
          -112 -30 -53 -42 -10 vhcurveto
          -42 10 -29 53 112 vvcurveto
          endchar
        </CharString>
        <CharString name="oacute">
          39 -7 21 -14 -20 469 -20 139 188 hstem
          58 205 vstem
          157 215 rmoveto
          -141 53 -56 70 62 47 56 141 141 -47 56 -62 -70 -53 -56 -141 vhcurveto
          123 -229 rmoveto
          -131 -79 97 132 132 79 97 131 122 74 -97 -132 -132 -74 -97 -122 hvcurveto
          -230 229 rmoveto
          -144 87 -105 160 161 87 105 144 144 -87 105 -161 -160 -87 -105 -144 vhcurveto
          176 hmoveto
          112 29 52 42 11 vhcurveto
          42 -11 30 -52 -112 vvcurveto
          -112 -30 -53 -42 -10 vhcurveto
          -42 10 -29 53 112 vvcurveto
          110 479 rmoveto
          15 12 16 8 17 hhcurveto
          25 17 -17 -25 -17 -7 -12 -11 -7 hvcurveto
          -173 -110 -14 18 rlineto
          -25 1 rmoveto
          33 -46 rlineto
          35 hlineto
          192 122 rlineto
          16 10 9 17 24 vvcurveto
          37 -25 25 -37 vhcurveto
          -35 hlineto
          -23 -21 -10 -21 -17 hvcurveto
          endchar
        </CharString>
        <CharString name="ocircumflex">
          39 -7 21 -14 -20 469 -20 139 172 hstem
          239 305 vstem
          157 215 rmoveto
          -141 53 -56 70 62 47 56 141 141 -47 56 -62 -70 -53 -56 -141 vhcurveto
          123 -229 rmoveto
          -131 -79 97 132 132 79 97 131 122 74 -97 -132 -132 -74 -97 -122 hvcurveto
          -230 229 rmoveto
          -144 87 -105 160 161 87 105 144 144 -87 105 -161 -160 -87 -105 -144 vhcurveto
          176 hmoveto
          112 29 52 42 11 vhcurveto
          42 -11 30 -52 -112 vvcurveto
          -112 -30 -53 -42 -10 vhcurveto
          -42 10 -29 53 112 vvcurveto
          -62 306 rmoveto
          -36 hlineto
          125 162 rlineto
          58 hlineto
          125 -162 rlineto
          -36 hlineto
          -118 87 rlineto
          111 -107 rmoveto
          118 hlineto
          -155 202 rlineto
          -113 hlineto
          -155 -202 rlineto
          118 hlineto
          93 69 rlineto
          endchar
        </CharString>
        <CharString name="odieresis">
          39 -7 21 -14 -20 469 -20 139 109 hstem
          232 108 67 109 vstem
          157 215 rmoveto
          -141 53 -56 70 62 47 56 141 141 -47 56 -62 -70 -53 -56 -141 vhcurveto
          123 -229 rmoveto
          -131 -79 97 132 132 79 97 131 122 74 -97 -132 -132 -74 -97 -122 hvcurveto
          -230 229 rmoveto
          -144 87 -105 160 161 87 105 144 144 -87 105 -161 -160 -87 -105 -144 vhcurveto
          176 hmoveto
          112 29 52 42 11 vhcurveto
          42 -11 30 -52 -112 vvcurveto
          -112 -30 -53 -42 -10 vhcurveto
          -42 10 -29 53 112 vvcurveto
          -95 391 rmoveto
          33 24 27 29 29 24 -27 -33 -33 -24 -27 -29 -29 -24 27 33 vhcurveto
          182 hmoveto
          33 24 27 29 29 24 -27 -33 -33 -24 -27 -29 -29 -24 27 33 vhcurveto
          60 80 rmoveto
          -35 -30 -23 -31 -11 hvcurveto
          32 -9 -30 22 -67 hhcurveto
          -44 -36 -36 -44 -44 36 -36 44 67 30 21 32 9 hvcurveto
          -31 11 30 -22 35 hhcurveto
          84 26 34 46 46 -26 34 -84 hvcurveto
          endchar
        </CharString>
        <CharString name="oe">
          313 -9 35 225 35 123 35 5 -20 hstemhm
          39 95 238 92 179 90 hintmask 11011110
          595 412 rmoveto
          -45 -55 -33 -87 -21 hvcurveto
          190 hlineto
          3 11 2 10 11 vvcurveto
          45 -18 43 -56 vhcurveto
          -438 -197 rmoveto
          -141 53 -56 70 61 48 54 143 141 -47 56 -62 -70 -53 -56 -141 vhcurveto
          601 -88 rmoveto
          9 -2 6 -4 4 -5 rrcurveto
          -92 -34 -79 -38 -74 hhcurveto
          -57 -59 21 50 -40 hvcurveto
          -45 -34 -51 -26 -69 hhcurveto
          -131 -79 97 132 hvcurveto
          hintmask 11101110
          132 79 97 131 73 55 -31 -50 33 vhcurveto
          48 39 55 33 72 hhcurveto
          102 34 -68 -67 -18 -3 -17 -5 -15 hvcurveto
          -266 hlineto
          -1 -12 -1 -13 -27 vvcurveto
          -96 2 64 -64 100 hhcurveto
          78 24 50 30 23 hvcurveto
          -10 20 rmoveto
          -25 -40 -27 -34 -46 -5 -70 8 -42 53 -2 78 rrcurveto
          32 262 vlineto
          9 26 5 25 19 vvcurveto
          77 -43 78 -162 -59 -49 -21 -31 -39 vhcurveto
          38 -46 -63 13 -54 hhcurveto
          -163 -84 -112 -136 -151 81 -97 167 54 59 10 33 41 hvcurveto
          -30 40 50 -14 48 hhcurveto
          81 89 45 108 40 hvcurveto
          -11 14 -22 12 -19 2 rrcurveto
          -522 68 rmoveto
          112 29 52 42 11 vhcurveto
          42 -11 30 -52 -112 vvcurveto
          -113 -31 -51 -41 -11 vhcurveto
          -42 11 -29 52 112 vvcurveto
          423 109 rmoveto
          -3 -1 -6 -3 vvcurveto
          -99 hlineto
          15 46 25 24 24 7 rrcurveto
          27 -8 9 -28 -29 vvcurveto
          endchar
        </CharString>
        <CharString name="ograve">
          39 -7 21 -14 -20 469 -20 139 188 hstem
          62 205 vstem
          157 215 rmoveto
          -141 53 -56 70 62 47 56 141 141 -47 56 -62 -70 -53 -56 -141 vhcurveto
          123 -229 rmoveto
          -131 -79 97 132 132 79 97 131 122 74 -97 -132 -132 -74 -97 -122 hvcurveto
          -230 229 rmoveto
          -144 87 -105 160 161 87 105 144 144 -87 105 -161 -160 -87 -105 -144 vhcurveto
          176 hmoveto
          112 29 52 42 11 vhcurveto
          42 -11 30 -52 -112 vvcurveto
          -112 -30 -53 -42 -10 vhcurveto
          -42 10 -29 53 112 vvcurveto
          106 332 rmoveto
          -14 -18 -173 110 rlineto
          -11 7 -7 12 17 vvcurveto
          25 17 17 25 17 16 -8 -15 12 vhcurveto
          50 13 rmoveto
          20 -16 -21 10 -58 hhcurveto
          -37 -25 -25 -37 -25 9 -16 16 -10 hvcurveto
          192 -122 rlineto
          35 hlineto
          33 46 rlineto
          endchar
        </CharString>
        <CharString name="one">
          26 21 hstem
          313 67 rmoveto
          -36 59 -7 61 -3 vhcurveto
          3 -7 0 -10 -3 -7 rrcurveto
          -297 hlineto
          -3 7 0 10 3 7 30 4 59 6 1 36 4 110 0 110 -4 110 -1 36 -59 6 -30 4 -3 7 0 10 3 7 rrcurveto
          297 hlineto
          3 -7 0 -10 -3 -7 -61 -3 -58 -7 -1 -36 rrcurveto
          -133 0 -99 -98 vvcurveto
          -107 1 rmoveto
          -1 -19 -57 -7 -30 -4 -5 -17 0 -24 5 -18 rrcurveto
          333 hlineto
          5 18 0 24 -5 17 -24 4 -44 6 -1 20 -6 132 1 98 5 98 1 20 44 6 24 4 5 17 0 24 -5 18 rrcurveto
          -333 hlineto
          -5 -18 0 -24 5 -17 30 -4 57 -7 1 -19 5 -114 0 -107 -5 -107 rrcurveto
          endchar
        </CharString>
        <CharString name="onehalf">
          279 -208 24 21 -21 84 71 -12 52 198 24 4 27 42 -20 120 54 239 -20 89 23 hstemhm
          194 60 -26 67 304 61 112 83 hintmask 0101101010101000
          hintmask 0000010001010000
          155 398 rmoveto
          2 86 1 97 -2 83 rrcurveto
          28 -44 2 -23 3 vhcurveto
          -3 6 0 9 3 6 rrcurveto
          239 hlineto
          3 -4 0 -12 -3 -5 -32 -3 -61 -2 -1 -28 -4 -89 -1 -95 4 -82 1 -28 61 -2 32 -3 3 -5 0 -12 -3 -4 rrcurveto
          -239 hlineto
          -3 6 0 9 3 6 rrcurveto
          23 3 44 2 28 vvcurveto
          134 252 rmoveto
          1 21 15 3 41 2 9 19 0 23 -10 16 rrcurveto
          -270 hlineto
          -10 -16 0 -23 9 -18 rrcurveto
          49 -4 14 -2 -21 vvcurveto
          -85 1 -70 -2 -83 vhcurveto
          -21 -14 -2 -49 -4 vhcurveto
          -9 -18 0 -23 10 -16 rrcurveto
          270 hlineto
          10 16 0 23 -9 19 rrcurveto
          -41 2 -15 3 22 vvcurveto
          hintmask 0010000100000100
          360 -258 rmoveto
          48 33 21 43 43 vvcurveto
          67 -42 16 -25 -34 -36 -26 -48 -44 22 -23 3 -2 vhcurveto
          -3 -4 -6 -7 -5 -2 rrcurveto
          0 -56 24 66 vvcurveto
          74 48 35 77 80 49 -43 -69 -63 -41 -34 -32 -24 vhcurveto
          -88 -68 rlineto
          -7 80 vlineto
          42 31 35 22 15 hvcurveto
          5 3 0 -1 3 hvcurveto
          -10 -41 -15 -48 -11 -40 rrcurveto
          -247 hlineto
          -5 5 -5 12 -2 12 rrcurveto
          336 240 rmoveto
          80 -61 52 -127 -88 -58 -42 -87 -84 74 -26 0 vhcurveto
          29 hlineto
          23 2 12 18 4 20 rrcurveto
          0 -28 24 38 vvcurveto
          29 1 18 32 5 vhcurveto
          16 -4 21 -16 -41 vvcurveto
          -34 -22 -40 -39 -28 vhcurveto
          -147 -116 4 -23 11 -24 12 -10 rlinecurve
          275 hlineto
          41 153 -11 9 -17 8 -18 1 rlinecurve
          31 29 30 41 48 vvcurveto
          -137 -176 rmoveto
          -10 hlineto
          48 30 10 6 11 7 11 9 rlinecurve
          -14 -22 -27 -28 -29 -2 rrcurveto
          hintmask 1000000001000000
          -486 -166 rmoveto
          360 818 47 -12 -362 -818 rlineto
          11 -23 rmoveto
          35 hlineto
          378 854 -85 22 rlineto
          -35 hlineto
          -376 -854 rlineto
          endchar
        </CharString>
        <CharString name="onequarter">
          279 -208 24 21 -21 143 52 -16 -21 104 34 97 24 4 27 42 -20 65 -20 368 -20 89 23 hstemhm
          194 60 -26 67 304 61 -41 66 hintmask 0110010101010100
          hintmask 1000000000100000
          225 -54 rmoveto
          360 818 47 -12 -362 -818 rlineto
          11 -23 rmoveto
          35 hlineto
          378 854 -85 22 rlineto
          -35 hlineto
          -376 -854 rlineto
          hintmask 0001100010000010
          426 209 rmoveto
          109 vlineto
          -101 -109 rlineto
          -61 -23 rmoveto
          208 241 rlineto
          31 -218 54 -44 -54 -98 -77 98 -162 hlineto
          -20 -20 rmoveto
          162 -98 152 98 54 84 -54 218 -95 hlineto
          -219 -254 rlineto
          hintmask 0000001000101000
          -287 272 rmoveto
          2 86 1 97 -2 83 rrcurveto
          28 -44 2 -23 3 vhcurveto
          -3 6 0 9 3 6 rrcurveto
          239 hlineto
          3 -4 0 -12 -3 -5 -32 -3 -61 -2 -1 -28 -4 -89 -1 -95 4 -82 1 -28 61 -2 32 -3 3 -5 0 -12 -3 -4 rrcurveto
          -239 hlineto
          -3 6 0 9 3 6 rrcurveto
          23 3 44 2 28 vvcurveto
          134 252 rmoveto
          1 21 15 3 41 2 9 19 0 23 -10 16 rrcurveto
          -270 hlineto
          -10 -16 0 -23 9 -18 rrcurveto
          49 -4 14 -2 -21 vvcurveto
          -85 1 -70 -2 -83 vhcurveto
          -21 -14 -2 -49 -4 vhcurveto
          -9 -18 0 -23 10 -16 rrcurveto
          270 hlineto
          10 16 0 23 -9 19 rrcurveto
          -41 2 -15 3 22 vvcurveto
          endchar
        </CharString>
</ttFont>
